<svg width="184" height="36" viewBox="0 0 184 36" fill="none" xmlns="http://www.w3.org/2000/svg">
<g clip-path="url(#clip0_48_198)">
<path d="M0 36H17.8457L0 18V36Z" fill="#00CD69"/>
<path d="M17.8457 36H35.6914V18L17.8457 36Z" fill="#00CD69"/>
<path d="M17.8457 0L35.6914 18V0H17.8457Z" fill="#00CD69"/>
<path d="M0 0V18L17.8457 0.00232215L0 0Z" fill="#00CD69"/>
<path d="M51.8742 8.54639V11.5321H55.5749L49.2844 26.9988H53.8844L55.2897 23.1988H63.1373L64.5656 26.9988H69.3243L61.8125 8.54639H51.8742ZM56.5524 19.8558L59.1744 12.7755L61.8539 19.8558H56.5524Z" fill="black"/>
<path d="M80.7691 15.339C80.1412 14.2974 78.7336 13.1328 76.4796 13.1328C72.9997 13.1328 70.2696 15.6499 70.2696 19.9742C70.2696 24.2404 72.9997 26.7645 76.4796 26.7645C78.5634 26.7645 79.9296 25.7669 80.6196 24.7902V26.0291C80.6196 28.5206 78.6439 29.3883 76.6176 29.3883C74.802 29.4001 73.0263 28.8504 71.53 27.813V31.1421C72.9307 31.9819 74.7753 32.5039 77.2984 32.5039C81.5281 32.5039 84.7826 30.3301 84.7826 26.1056V13.446H80.7806L80.7691 15.339ZM77.5951 23.5909C75.6976 23.5909 74.451 22.1479 74.451 19.9742C74.4257 17.7447 75.6976 16.3551 77.5951 16.3551C78.7149 16.3367 79.7973 16.7614 80.6104 17.5383V22.3845C79.801 23.1699 78.7181 23.6031 77.5951 23.5909Z" fill="black"/>
<path d="M93.9711 16.4875L93.3202 13.4461H87.0849V16.2787H89.8656V26.9989H94.047V18.6635C94.645 17.6915 95.8157 16.9329 97.9731 16.9329C98.5245 16.936 99.0736 17.0061 99.6084 17.1417V13.3603C99.2375 13.2094 98.8397 13.1375 98.44 13.1492C95.7628 13.1492 94.3 14.7499 93.9711 16.4782" fill="black"/>
<path d="M108.447 13.1282C104.11 13.1282 100.913 15.9584 100.913 20.2317C100.913 24.5049 104.11 27.3073 108.447 27.3073C112.735 27.3073 115.959 24.5026 115.959 20.2317C115.959 15.9608 112.735 13.1282 108.447 13.1282ZM108.447 24.0061C106.446 24.0061 105.096 22.4332 105.096 20.2317C105.096 18.0301 106.446 16.427 108.447 16.427C110.448 16.427 111.78 17.9999 111.78 20.2293C111.78 22.4588 110.428 24.0061 108.452 24.0061" fill="black"/>
<path d="M126.254 13.1283C125.486 13.1046 124.724 13.2639 124.028 13.5932C123.333 13.9225 122.724 14.4126 122.252 15.0237V7.94336H118.07V26.9989H122.073V25.1639C122.73 26.2078 124.11 27.3121 126.254 27.3121C129.736 27.3121 132.464 24.6906 132.464 20.2364C132.464 15.7823 129.736 13.1283 126.254 13.1283ZM125.136 24.0063C124.067 24.018 123.034 23.6143 122.252 22.8788V17.5778C123.028 16.8301 124.063 16.4187 125.136 16.4318C127.061 16.4318 128.283 17.9235 128.283 20.2295C128.283 22.5354 127.061 24.0063 125.136 24.0063Z" fill="black"/>
<path d="M147.694 23.5909V18.4268C147.694 15.1511 145.199 13.1328 141.174 13.1328C138.678 13.1328 136.884 13.6826 135.557 14.4946V17.7981C137.002 16.7927 138.715 16.2539 140.47 16.253C142.31 16.253 143.642 16.949 143.642 18.7933V19.146C142.676 18.8889 141.681 18.7625 140.682 18.7701C137.407 18.7701 134.419 20.0786 134.419 23.0921C134.419 25.5581 136.599 27.312 139.513 27.312C141.813 27.312 143.035 26.5116 143.789 25.5164C144.219 26.725 145.539 27.312 146.864 27.312C147.727 27.3481 148.585 27.1646 149.36 26.7784V24.3495C149.141 24.4163 148.914 24.4522 148.686 24.4562C148.138 24.4562 147.697 24.2242 147.697 23.5909H147.694ZM140.811 24.4562C139.46 24.4562 138.6 23.8275 138.6 22.8833C138.6 21.6514 140.006 21.2315 141.245 21.2315C142.05 21.2305 142.85 21.3438 143.623 21.5679V23.1686C143.279 23.5846 142.844 23.9162 142.354 24.1384C141.864 24.3606 141.33 24.4677 140.792 24.4515" fill="black"/>
<path d="M160.924 13.1281C160.022 13.1142 159.129 13.3173 158.32 13.7208C157.51 14.1242 156.808 14.7163 156.271 15.448L155.855 13.4552H149.617V16.2878H152.398V27.008H156.582V17.5614C157.18 16.9072 158.143 16.5662 159.181 16.5662C160.871 16.5662 161.826 17.4037 161.826 19.1877V26.9987H166.007V17.9836C166.007 14.81 163.827 13.1328 160.915 13.1328" fill="black"/>
<path d="M183.975 26.9572V24.1733H182.047L178.827 19.508L183.059 13.4508H178.885L175.49 18.3736H173.636V7.93408H169.448V26.9896H173.629V21.3894H175.511L179.191 26.9989H184L183.975 26.9572Z" fill="black"/>
</g>
<defs>
<clipPath id="clip0_48_198">
<rect width="184" height="36" fill="white"/>
</clipPath>
</defs>
</svg>
