<svg width="55" height="55" viewBox="0 0 55 55" fill="none" xmlns="http://www.w3.org/2000/svg">
<g clip-path="url(#clip0_59_545)">
<path d="M14.4116 39.6095C14.3927 39.5986 14.3744 39.5865 14.357 39.5733C14.2665 39.5057 14.1996 39.4112 14.1661 39.3033C14.1325 39.1954 14.1339 39.0796 14.1701 38.9726L18.8611 25.1789L12.1471 16.1042C12.0836 16.0185 12.0472 15.9158 12.0424 15.8092C12.0377 15.7027 12.0649 15.5971 12.1205 15.5061C12.1761 15.4151 12.2576 15.3428 12.3546 15.2984C12.4516 15.254 12.5596 15.2395 12.6648 15.2569L51.4016 21.6474C51.4975 21.6632 51.5873 21.7048 51.6614 21.7678C51.7354 21.8307 51.791 21.9126 51.822 22.0047C51.8531 22.0969 51.8585 22.1957 51.8376 22.2906C51.8168 22.3856 51.7705 22.4731 51.7038 22.5437L31.4224 43.9937C31.3658 44.0536 31.2961 44.0997 31.2188 44.1282C31.1415 44.1568 31.0586 44.1671 30.9766 44.1584C30.8946 44.1497 30.8158 44.1222 30.7461 44.0781C30.6765 44.0339 30.6181 43.9742 30.5753 43.9038L24.0524 33.182L14.9855 39.5838C14.9021 39.6421 14.8039 39.6755 14.7023 39.6801C14.6006 39.6847 14.4998 39.6602 14.4116 39.6095ZM13.7938 16.529L19.8882 24.7701C19.9396 24.8397 19.9735 24.9207 19.9867 25.0063C20 25.0918 19.9924 25.1793 19.9644 25.2612L15.7145 37.7582L23.904 31.975C23.9639 31.9327 24.032 31.9031 24.1038 31.8882C24.1756 31.8733 24.2498 31.8733 24.3216 31.8882C24.3935 31.9031 24.4615 31.9326 24.5215 31.9749C24.5814 32.0172 24.6321 32.0713 24.6702 32.134L31.1265 42.7424L50.2333 22.5401L13.7938 16.529Z" fill="#244CCB"/>
<path d="M23.946 32.8784C23.8579 32.8279 23.786 32.7534 23.7387 32.6636C23.6913 32.5738 23.6704 32.4723 23.6785 32.3711C23.6866 32.2699 23.7232 32.1731 23.7842 32.0919C23.8452 32.0108 23.928 31.9486 24.023 31.9127L47.437 23.0679L19.5071 25.6202C19.4371 25.6266 19.3664 25.6191 19.2993 25.5983C19.2321 25.5774 19.1697 25.5435 19.1156 25.4985C19.0615 25.4535 19.0168 25.3983 18.9841 25.336C18.9514 25.2737 18.9312 25.2056 18.9248 25.1356C18.9184 25.0655 18.9258 24.9949 18.9467 24.9277C18.9676 24.8605 19.0015 24.7981 19.0465 24.744C19.0915 24.69 19.1467 24.6453 19.2089 24.6125C19.2712 24.5798 19.3393 24.5596 19.4094 24.5532L51.2657 21.6422C51.3948 21.6302 51.5239 21.6655 51.629 21.7414C51.7341 21.8174 51.8081 21.9289 51.8372 22.0552C51.8663 22.1816 51.8486 22.3142 51.7874 22.4286C51.7262 22.5429 51.6255 22.6311 51.5042 22.6768L24.4018 32.9146C24.3278 32.9425 24.2486 32.9538 24.1698 32.9475C24.091 32.9413 24.0146 32.9176 23.946 32.8784Z" fill="#244CCB"/>
<path d="M14.4096 39.6106C14.3166 39.5575 14.2417 39.4777 14.1944 39.3816C14.1472 39.2855 14.1299 39.1774 14.1447 39.0714C14.1595 38.9653 14.2057 38.8661 14.2775 38.7866C14.3492 38.7071 14.4432 38.6509 14.5472 38.6253L26.1894 35.7474C26.2582 35.7288 26.3301 35.7241 26.4008 35.7336C26.4715 35.7431 26.5396 35.7666 26.6011 35.8028C26.6625 35.839 26.7162 35.8871 26.7588 35.9442C26.8014 36.0014 26.8322 36.0666 26.8494 36.1358C26.8665 36.205 26.8696 36.277 26.8585 36.3475C26.8475 36.4179 26.8225 36.4855 26.7849 36.5461C26.7474 36.6068 26.6982 36.6594 26.6401 36.7007C26.582 36.7421 26.5162 36.7715 26.4466 36.7871L14.8044 39.665C14.6707 39.6983 14.5293 39.6788 14.4096 39.6106Z" fill="#244CCB"/>
</g>
<defs>
<clipPath id="clip0_59_545">
<rect width="39.6373" height="39.6373" fill="white" transform="translate(19.6918) rotate(29.7886)"/>
</clipPath>
</defs>
</svg>
