<svg width="181" height="27" viewBox="0 0 181 27" fill="none" xmlns="http://www.w3.org/2000/svg">
<path d="M42.8101 5.01812L49.6161 21.5101C48.7139 21.706 47.7943 21.8105 46.8711 21.8221C46.3442 21.8209 45.8182 21.7774 45.2981 21.6921L43.9821 18.3921H37.1761L35.8641 21.6941C35.2188 21.7671 34.5696 21.8005 33.9201 21.7941C33.1568 21.8169 32.3947 21.7204 31.6611 21.5081L38.5211 5.01812C39.2486 4.90321 39.9847 4.85168 40.7211 4.86412C41.4206 4.85405 42.1197 4.90558 42.8101 5.01812ZM38.4921 15.1761H42.6641L41.1201 11.3321L40.5471 9.72312L40.0331 11.3331L38.4921 15.1761Z" fill="#A30041"/>
<path d="M65.288 4.89302C66.015 4.8957 66.741 4.94749 67.461 5.04801V21.617C66.1092 21.8438 64.7358 21.9132 63.368 21.824L56.277 12.344L55.677 11.357L55.791 12.552V21.695C55.0808 21.7961 54.3644 21.8479 53.647 21.85C52.9484 21.8425 52.251 21.7908 51.559 21.695V5.17201C52.2028 4.99548 52.8649 4.8948 53.532 4.87202C54.2376 4.82716 54.9456 4.84021 55.649 4.91102L62.713 14.599L63.342 15.611L63.228 14.287V5.04701C63.9116 4.95091 64.6007 4.89947 65.291 4.89302H65.288Z" fill="#A30041"/>
<path d="M79.874 22.162C78.5695 22.1735 77.2729 21.9583 76.042 21.526C74.9111 21.132 73.8682 20.5205 72.972 19.726C72.1028 18.9447 71.4148 17.983 70.956 16.908C70.4841 15.7812 70.241 14.5717 70.241 13.35C70.241 12.1283 70.4841 10.9188 70.956 9.79201C71.4168 8.71446 72.1045 7.74887 72.972 6.96101C73.8665 6.15681 74.9094 5.53486 76.042 5.13001C77.2709 4.68856 78.5683 4.46816 79.874 4.47901C81.1817 4.46686 82.4817 4.67997 83.717 5.10901C84.8499 5.49888 85.8936 6.11082 86.787 6.90901C87.6481 7.694 88.3302 8.65509 88.787 9.72701C89.2714 10.8648 89.5149 12.0905 89.502 13.327C89.5094 14.5368 89.266 15.735 88.787 16.846C88.3261 17.9235 87.6385 18.8891 86.771 19.677C85.8715 20.4841 84.8219 21.1062 83.682 21.508C82.4607 21.9468 81.1718 22.1682 79.874 22.162ZM79.874 18.5C80.5439 18.529 81.2124 18.4181 81.837 18.1745C82.4617 17.9309 83.0287 17.5598 83.502 17.085C83.9689 16.5821 84.3308 15.9912 84.5665 15.3468C84.8023 14.7024 84.9072 14.0174 84.875 13.332C84.911 12.6403 84.808 11.9484 84.5722 11.2971C84.3363 10.6458 83.9725 10.0484 83.502 9.54001C82.5081 8.63662 81.2132 8.13608 79.87 8.13608C78.5269 8.13608 77.232 8.63662 76.238 9.54001C75.7678 10.0485 75.4042 10.646 75.1685 11.2972C74.9329 11.9485 74.83 12.6404 74.866 13.332C74.8338 14.0174 74.9385 14.7023 75.1741 15.3467C75.4097 15.9911 75.7714 16.582 76.238 17.085C76.7123 17.5608 77.2807 17.9324 77.9068 18.1761C78.5329 18.4197 79.2029 18.5301 79.874 18.5Z" fill="#A30041"/>
<path d="M103.042 15.0969L107.332 21.5159C106.148 21.7564 104.94 21.8611 103.732 21.8279L102.645 21.8019L98.871 15.9589H98.671L96.583 15.9329V21.7009C95.8834 21.816 95.1749 21.8678 94.466 21.8559C93.7383 21.8644 93.0111 21.8126 92.292 21.7009V5.27987C93.1313 5.12387 94.1313 4.99387 95.292 4.88987C96.4527 4.78587 97.5107 4.7342 98.466 4.73487C99.4486 4.73418 100.429 4.81681 101.398 4.98187C102.286 5.12058 103.142 5.41511 103.928 5.85187C104.681 6.26316 105.304 6.87842 105.723 7.62711C106.143 8.3758 106.343 9.2276 106.301 10.0849C106.291 10.6954 106.194 11.3015 106.014 11.8849C105.803 12.5699 105.435 13.1966 104.941 13.7159C104.406 14.2974 103.76 14.7669 103.042 15.0969ZM96.579 8.08487V12.7369L98.838 12.7629C99.6775 12.8281 100.512 12.5833 101.183 12.0749C101.433 11.8578 101.632 11.588 101.766 11.2849C101.899 10.9818 101.964 10.6529 101.955 10.3219C101.967 9.99681 101.901 9.67364 101.761 9.37967C101.622 9.0857 101.414 8.82955 101.155 8.63287C100.463 8.17212 99.639 7.95307 98.81 8.00987C98.0653 8.00987 97.321 8.03454 96.577 8.08387L96.579 8.08487Z" fill="#A30041"/>
<path d="M120.483 13.1761C121.155 13.3904 121.781 13.7297 122.328 14.1761C122.794 14.5477 123.154 15.0358 123.372 15.5911C123.725 16.5243 123.752 17.5496 123.448 18.5C123.144 19.4503 122.526 20.2696 121.697 20.8241C120.391 21.7161 118.384 22.1621 115.677 22.1621C113.646 22.1787 111.618 22.0232 109.614 21.6971V5.3061C111.577 4.95 113.568 4.77626 115.563 4.7871C120.425 4.7871 122.856 6.3801 122.856 9.5661C122.909 10.3443 122.706 11.1186 122.278 11.7705C121.849 12.4225 121.219 12.9162 120.484 13.1761H120.483ZM115.883 7.9041C115.272 7.9041 114.605 7.9301 113.883 7.9821V11.7451H116.057C116.761 11.8025 117.465 11.6241 118.057 11.2381C118.271 11.0557 118.44 10.8256 118.549 10.5664C118.658 10.3071 118.705 10.0258 118.686 9.7451C118.693 9.47766 118.631 9.2129 118.506 8.97641C118.381 8.73991 118.197 8.53969 117.972 8.3951C117.34 8.02696 116.612 7.85598 115.883 7.9041ZM116.112 19.0461C118.266 19.0461 119.344 18.3188 119.344 16.8641C119.355 16.5625 119.288 16.2631 119.15 15.9948C119.012 15.7265 118.807 15.4983 118.555 15.3321C117.869 14.9265 117.076 14.7367 116.281 14.7871H113.881V18.9691C114.603 19.0198 115.346 19.0451 116.109 19.0451L116.112 19.0461Z" fill="#A30041"/>
<path d="M135.356 5.01805L142.166 21.511C141.264 21.7069 140.344 21.8115 139.421 21.823C138.894 21.8218 138.368 21.7783 137.848 21.693L136.532 18.3931H129.725L128.409 21.693C127.764 21.766 127.114 21.7994 126.465 21.793C125.701 21.816 124.939 21.7195 124.205 21.507L131.069 5.01805C131.796 4.90279 132.533 4.85093 133.269 4.86305C133.968 4.85345 134.666 4.90532 135.356 5.01805ZM131.037 15.174H135.212L133.668 11.3301L133.096 9.72005L132.583 11.3301L131.037 15.174Z" fill="#A30041"/>
<path d="M157.834 4.89302C158.561 4.8957 159.287 4.94748 160.007 5.04801V21.617C158.655 21.8438 157.281 21.9133 155.913 21.824L148.82 12.344L148.22 11.357L148.334 12.552V21.695C147.623 21.7962 146.907 21.848 146.189 21.85C145.49 21.8425 144.793 21.7908 144.101 21.695V5.17201C144.745 4.99548 145.407 4.89479 146.074 4.87202C146.78 4.82716 147.488 4.84021 148.191 4.91102L155.255 14.599L155.884 15.611L155.77 14.287V5.04701C156.454 4.95088 157.143 4.89943 157.834 4.89302Z" fill="#A30041"/>
<path d="M172.678 12.8129L180.484 21.5399C179.413 21.6887 178.333 21.7579 177.252 21.7469L174.992 21.6949L169.358 15.3049L168.071 16.1619V21.6939C167.371 21.7985 166.663 21.8503 165.955 21.8489C165.238 21.8468 164.521 21.7951 163.811 21.6939V5.0469C164.492 4.94228 165.181 4.89047 165.87 4.8919C166.606 4.89398 167.341 4.94576 168.07 5.0469V11.7989C169.323 10.8838 170.49 9.85802 171.559 8.7339C172.644 7.55453 173.639 6.29569 174.536 4.9679C175.203 4.91657 175.917 4.89057 176.68 4.8899C177.636 4.88556 178.591 4.93732 179.54 5.0449C177.633 7.94687 175.321 10.5622 172.676 12.8119L172.678 12.8129Z" fill="#A30041"/>
<path d="M15.83 13.0269V15.9109H12.959C12.3868 15.9149 11.8263 15.7488 11.3487 15.4337C10.8711 15.1186 10.4978 14.6687 10.2763 14.1411C10.0547 13.6136 9.9949 13.032 10.1044 12.4704C10.2139 11.9088 10.4877 11.3923 10.8912 10.9866C11.2947 10.5808 11.8096 10.3041 12.3707 10.1915C12.9317 10.0789 13.5135 10.1355 14.0423 10.3541C14.5711 10.5727 15.0231 10.9434 15.3408 11.4193C15.6586 11.8952 15.8278 12.4547 15.827 13.0269H15.83Z" fill="#A30041"/>
<path d="M17.901 0.00300026H8.02102C5.88867 0.00856311 3.84582 0.86077 2.34167 2.37223C0.837528 3.88369 -0.00475977 5.93065 2.02344e-05 8.063V17.992C-0.0044946 20.1243 0.837878 22.1711 2.34196 23.6825C3.84605 25.1939 5.88875 26.0462 8.02102 26.052H25.921V8.06C25.9261 5.92774 25.084 3.88078 23.58 2.36929C22.076 0.857802 20.0333 0.00556269 17.901 0V0.00300026ZM20.227 20.326H12.956C11.2413 20.3161 9.5848 19.7032 8.27647 18.5949C6.96814 17.4865 6.09141 15.9532 5.79979 14.2635C5.50817 12.5737 5.82026 10.8353 6.6814 9.35248C7.54255 7.8697 8.89786 6.73709 10.51 6.153V3.971C10.5098 3.93731 10.5197 3.90432 10.5384 3.87628C10.5571 3.84824 10.5837 3.82642 10.6149 3.81363C10.646 3.80084 10.6803 3.79766 10.7133 3.80449C10.7463 3.81133 10.7765 3.82787 10.8 3.852L11.966 5.042C11.9832 5.05953 12.0039 5.07312 12.0268 5.08183C12.0497 5.09054 12.0742 5.09417 12.0987 5.09246C12.1231 5.09074 12.1469 5.08374 12.1684 5.07191C12.1899 5.06009 12.2085 5.04374 12.223 5.024L12.823 4.224C12.8387 4.20271 12.8592 4.1854 12.8828 4.17347C12.9065 4.16154 12.9326 4.15532 12.959 4.15532C12.9855 4.15532 13.0116 4.16154 13.0352 4.17347C13.0588 4.1854 13.0793 4.20271 13.095 4.224L13.695 5.024C13.7094 5.04389 13.728 5.06038 13.7495 5.0723C13.771 5.08422 13.7948 5.09129 13.8193 5.09301C13.8438 5.09472 13.8684 5.09105 13.8913 5.08223C13.9143 5.07342 13.935 5.05969 13.952 5.042L15.119 3.852C15.1425 3.82787 15.1727 3.81133 15.2057 3.80449C15.2387 3.79766 15.273 3.80084 15.3042 3.81363C15.3354 3.82642 15.362 3.84824 15.3807 3.87628C15.3994 3.90432 15.4092 3.93731 15.409 3.971V6.154C16.8213 6.66527 18.0414 7.59971 18.9031 8.82988C19.7648 10.06 20.2261 11.5261 20.224 13.028L20.227 20.326Z" fill="#A30041"/>
</svg>
