<svg width="131" height="35" viewBox="0 0 131 35" fill="none" xmlns="http://www.w3.org/2000/svg">
<path d="M0 28.0301C0 31.6501 2.963 34.5961 6.605 34.5961H27.397C31.039 34.5961 34.002 31.6501 34.002 28.0311V7.3631C34.002 3.7431 31.038 0.798096 27.397 0.798096H6.605C2.963 0.798096 0 3.7431 0 7.3631V28.0311V28.0301Z" fill="url(#paint0_linear_48_182)"/>
<path d="M22.606 2.47105L6.29401 10.441L30.281 10.008L27.35 4.08005C26.9321 3.23989 26.1988 2.59916 25.3102 2.29771C24.4216 1.99626 23.4498 2.05858 22.607 2.47105H22.606Z" fill="#8BC53F"/>
<path d="M26.354 5.399L5.08002 10.719L31.499 11.405L30.654 7.956C30.4207 7.04785 29.8372 6.26904 29.0312 5.78988C28.2252 5.31071 27.2623 5.17018 26.353 5.399H26.354Z" fill="#008F4C"/>
<path d="M28.48 25.3281C28.802 25.3292 29.121 25.2668 29.4189 25.1445C29.7168 25.0223 29.9877 24.8426 30.2161 24.6156C30.4446 24.3887 30.6261 24.1189 30.7502 23.8219C30.8744 23.5248 30.9389 23.2061 30.94 22.8841C30.94 21.5341 29.838 20.4391 28.48 20.4391C28.158 20.4382 27.8389 20.5007 27.5411 20.6231C27.2432 20.7455 26.9724 20.9253 26.7441 21.1523C26.5157 21.3794 26.3344 21.6492 26.2103 21.9463C26.0862 22.2434 26.0219 22.5621 26.021 22.8841C26.021 24.2341 27.122 25.3281 28.481 25.3281H28.48ZM27.771 10.2871H5.12795C5.05297 10.2867 4.97864 10.3011 4.90921 10.3294C4.83979 10.3578 4.77662 10.3995 4.72332 10.4522C4.67002 10.505 4.62763 10.5677 4.59857 10.6368C4.56951 10.706 4.55435 10.7801 4.55396 10.8551C4.55396 11.1681 4.81095 11.4231 5.12795 11.4231H27.77C31.184 11.4231 33.96 14.2211 33.96 17.6591L34.02 18.3841V13.8081C32.73 11.6981 30.41 10.2881 27.77 10.2881L27.771 10.2871Z" fill="white"/>
<g opacity="0.65">
<path opacity="0.65" d="M4.41701 30.6699C5.08501 30.6699 5.62701 30.1299 5.62701 29.4669C5.62701 28.8029 5.08501 28.2649 4.41701 28.2649C3.74901 28.2649 3.20701 28.8029 3.20701 29.4669C3.20701 30.1309 3.74901 30.6689 4.41701 30.6689V30.6699ZM4.05201 27.7149C4.72201 27.5669 5.14801 26.9209 5.00301 26.2729C4.85801 25.6249 4.19601 25.2199 3.52601 25.3679C2.85601 25.5169 2.42901 26.1629 2.57501 26.8109C2.72001 27.4589 3.38101 27.8639 4.05201 27.7149ZM7.25401 31.9059C7.92201 31.9059 8.46401 31.3669 8.46401 30.7029C8.46401 30.0389 7.92201 29.5009 7.25401 29.5009C6.58601 29.5009 6.04401 30.0389 6.04401 30.7029C6.04401 31.3669 6.58601 31.9059 7.25401 31.9059ZM6.93601 28.8049C7.60401 28.8049 8.14601 28.2669 8.14601 27.6029C8.14601 26.9389 7.60401 26.4009 6.93601 26.4009C6.26801 26.4009 5.72601 26.9389 5.72601 27.6029C5.72601 28.2669 6.26801 28.8049 6.93601 28.8049Z" fill="#BA3827"/>
</g>
<path d="M47.772 25.0219H44.11L50.993 6.67795H54.215L61.1 25.0219H57.437L56.119 21.2369H49.089L47.771 25.0219H47.772ZM54.948 18.0349L52.605 11.3379L50.262 18.0349H54.948ZM69.448 11.4819C70.288 11.4819 71.088 11.6519 71.851 11.9919C72.612 12.3319 73.281 12.8079 73.858 13.4189C74.4464 14.0514 74.9129 14.787 75.234 15.5889C75.576 16.4239 75.748 17.3349 75.748 18.3259C75.748 19.3159 75.576 20.2289 75.234 21.0629C74.9133 21.8651 74.4468 22.6009 73.858 23.2329C73.2906 23.8371 72.6082 24.3219 71.851 24.6589C71.091 24.9989 70.289 25.1689 69.448 25.1689C68.882 25.1689 68.388 25.1009 67.969 24.9659C67.5922 24.8485 67.2248 24.7027 66.87 24.5299C66.532 24.3454 66.2177 24.1204 65.934 23.8599V29.6819H62.565V11.6279H65.055L65.641 12.9379C65.9514 12.654 66.2957 12.4095 66.666 12.2099C66.999 12.0359 67.398 11.8699 67.866 11.7159C68.3775 11.5541 68.9115 11.4752 69.448 11.4819ZM65.641 18.3259C65.641 19.4329 65.963 20.3159 66.608 20.9749C67.253 21.6349 68.053 21.9649 69.011 21.9649C69.967 21.9649 70.768 21.6349 71.414 20.9749C72.059 20.3149 72.381 19.4309 72.381 18.3249C72.381 17.2189 72.059 16.3359 71.414 15.6769C70.77 15.0169 69.969 14.6869 69.011 14.6869C68.054 14.6869 67.253 15.0169 66.608 15.6769C65.963 16.3369 65.641 17.2189 65.641 18.3259ZM90.246 20.9459C90.0517 21.4865 89.7802 21.9961 89.44 22.4589C89.078 22.9639 88.639 23.4149 88.122 23.8129C87.5857 24.2204 86.9936 24.5488 86.364 24.7879C85.6856 25.0448 84.9654 25.1737 84.24 25.1679C83.3472 25.1731 82.4635 24.9891 81.647 24.6279C80.848 24.2765 80.1224 23.7779 79.508 23.1579C78.8902 22.5316 78.3938 21.7962 78.044 20.9889C77.6791 20.1489 77.4941 19.2418 77.501 18.3259C77.501 17.3749 77.682 16.4869 78.044 15.6619C78.3938 14.8547 78.8902 14.1193 79.508 13.4929C80.1218 12.8723 80.8476 12.3735 81.647 12.0229C82.4635 11.6618 83.3472 11.4778 84.24 11.4829C85.0948 11.4787 85.9418 11.647 86.73 11.9779C87.51 12.3079 88.194 12.7739 88.78 13.3759C89.3807 14.0019 89.8535 14.739 90.172 15.5459C90.514 16.3899 90.685 17.3169 90.685 18.3259C90.685 18.4819 90.675 18.6309 90.656 18.7759C90.636 18.9219 90.616 19.0629 90.599 19.1989L90.541 19.6359H81.166C81.322 20.2959 81.654 20.8489 82.162 21.2949C82.67 21.7419 83.362 21.9649 84.242 21.9649C84.69 21.9649 85.066 21.9159 85.37 21.8189C85.672 21.7219 85.93 21.6059 86.145 21.4709C86.38 21.3159 86.575 21.1409 86.731 20.9459H90.246ZM84.242 14.6849C83.362 14.6849 82.645 14.9379 82.088 15.4409C81.5402 15.9308 81.1656 16.5847 81.02 17.3049H87.464C87.3164 16.585 86.9413 15.9315 86.394 15.4409C85.838 14.9379 85.12 14.6849 84.242 14.6849ZM96.543 25.0219H93.175V6.67795H96.543V25.0219ZM102.257 20.7999C102.335 21.2479 102.55 21.6249 102.901 21.9359C103.251 22.2469 103.721 22.4019 104.307 22.4019C104.893 22.4019 105.358 22.2509 105.699 21.9509C106.041 21.6509 106.213 21.3139 106.213 20.9459C106.213 20.6359 106.041 20.3919 105.699 20.2179C105.291 20.0179 104.864 19.8572 104.425 19.7379C103.875 19.581 103.324 19.431 102.77 19.2879C102.189 19.1393 101.632 18.9083 101.116 18.6019C100.614 18.3077 100.18 17.9111 99.841 17.4379C99.5 16.9619 99.328 16.3359 99.328 15.5599C99.3257 15.0168 99.4425 14.4798 99.6702 13.9867C99.8979 13.4936 100.231 13.0564 100.646 12.7059C101.098 12.3239 101.613 12.0234 102.168 11.8179C102.754 11.5949 103.418 11.4839 104.161 11.4839C105.781 11.4839 107.027 11.8719 107.896 12.6479C108.75 13.3963 109.298 14.433 109.435 15.5599H106.213C106.135 15.2689 105.925 14.9769 105.584 14.6859C105.242 14.3959 104.817 14.2499 104.309 14.2499C103.801 14.2499 103.405 14.3749 103.123 14.6289C102.988 14.743 102.88 14.8855 102.806 15.0463C102.733 15.2071 102.696 15.3822 102.698 15.5589C102.698 15.8709 102.868 16.1129 103.212 16.2879C103.553 16.4619 103.978 16.6219 104.486 16.7679C104.994 16.9129 105.546 17.0689 106.141 17.2329C106.723 17.3924 107.28 17.6324 107.795 17.9459C108.303 18.2569 108.728 18.6599 109.07 19.1539C109.411 19.6479 109.583 20.2949 109.583 21.0899C109.583 21.6339 109.466 22.1519 109.232 22.6479C108.995 23.1456 108.656 23.5873 108.236 23.9439C107.772 24.3318 107.241 24.6323 106.669 24.8309C106.054 25.0539 105.365 25.1659 104.604 25.1659C102.846 25.1659 101.514 24.7689 100.604 23.9719C99.697 23.1759 99.174 22.1189 99.037 20.7989H102.257V20.7999ZM113.827 9.87995C113.319 9.87995 112.874 9.69195 112.494 9.31295C112.113 8.93295 111.923 8.49295 111.923 7.98795C111.923 7.48295 112.113 7.04095 112.494 6.66395C112.876 6.28395 113.319 6.09595 113.827 6.09595C114.335 6.09595 114.779 6.28495 115.159 6.66395C115.539 7.04395 115.731 7.48395 115.731 7.98795C115.731 8.49295 115.541 8.93495 115.159 9.31295C114.779 9.69295 114.335 9.88095 113.827 9.88095V9.87995ZM115.438 25.0219H112.069V11.6279H115.438V25.0219ZM125.544 11.4819C126.345 11.4819 127.078 11.6129 127.741 11.8759C128.388 12.1264 128.972 12.5139 129.455 13.0119C129.932 13.5059 130.305 14.1039 130.569 14.8019C130.833 15.5009 130.965 16.2859 130.965 17.1589V25.0199H127.597V17.5959C127.597 16.7229 127.338 16.0199 126.821 15.4839C126.304 14.9509 125.635 14.6829 124.814 14.6829C123.993 14.6829 123.324 14.9509 122.807 15.4839C122.29 16.0179 122.031 16.7229 122.031 17.5959V25.0199H118.663V11.6259H121.153L121.739 12.9359C122.077 12.6603 122.439 12.4166 122.822 12.2079C123.204 12.0123 123.6 11.8471 124.008 11.7139C124.504 11.5542 125.023 11.4758 125.544 11.4819Z" fill="#00527D"/>
<defs>
<linearGradient id="paint0_linear_48_182" x1="30.74" y1="2.2681" x2="2.726" y2="34.1101" gradientUnits="userSpaceOnUse">
<stop stop-color="#FCB94D"/>
<stop offset="0.306" stop-color="#F7903F"/>
<stop offset="0.775" stop-color="#F1562B"/>
<stop offset="1" stop-color="#EE4023"/>
</linearGradient>
</defs>
</svg>
