<svg width="121" height="22" viewBox="0 0 121 22" fill="none" xmlns="http://www.w3.org/2000/svg">
<path d="M110.31 0.0025278C107.215 0.000338661 104.114 -0.00185048 101.006 0.0025278C104.729 3.66934 108.483 7.33178 112.231 10.9964C108.495 14.6632 104.729 18.33 101 21.999C104.108 21.999 107.209 22.0012 110.31 21.999C113.865 18.3278 117.464 14.6632 121 10.9898C117.426 7.32959 113.871 3.66715 110.31 0.0025278Z" fill="url(#paint0_linear_374_912)"/>
<path d="M109 11C105.265 7.33625 101.576 3.66594 97.8672 0C95.247 0.00218862 92.6268 -2.67019e-07 90 0.00656559C93.9304 3.67031 97.8542 7.33406 101.778 10.9978C97.8607 14.6637 93.9304 18.3297 90 21.9934C92.6202 22 95.2405 21.9934 97.8607 22C101.569 18.3319 105.265 14.6637 109 11Z" fill="url(#paint1_linear_374_912)"/>
<path d="M98 11.0011C94.2309 7.33698 90.5464 3.66192 86.7643 0C79.174 0.00656651 71.5903 0.00219097 64 0.00219097C67.9188 3.66849 71.8377 7.33479 75.7695 10.9989C71.8442 14.6652 67.9123 18.3293 64.0065 21.9978C71.5903 22.0022 79.1805 21.9956 86.7643 22C90.5399 18.3381 94.2309 14.6652 98 11.0011Z" fill="url(#paint2_linear_374_912)"/>
<path d="M61.1771 0.00252777C56.4535 0.000338657 51.7236 -0.00185046 47 0.00252777C50.794 3.66929 54.5817 7.33605 58.3505 11.005C54.5691 14.6696 50.7877 18.3341 47 21.9965C51.7299 21.9987 56.4598 22.0031 61.1834 21.9965C64.8015 18.332 68.3819 14.6652 72 11.0028C68.3819 7.33824 64.8141 3.66491 61.1771 0.00252777Z" fill="url(#paint3_linear_374_912)"/>
<path d="M56 11.0011C52.2639 7.33552 48.6386 3.65682 44.8243 0C42.2162 0.0065652 39.6081 -2.40415e-06 37 0.0043744C40.9447 3.66776 44.8634 7.33552 48.7951 11.0011C44.87 14.6667 40.9382 18.3322 37 21.9956C39.6146 21.9978 42.2227 21.9934 44.8308 22C48.6321 18.3432 52.2704 14.6667 56 11.0011Z" fill="url(#paint4_linear_374_912)"/>
<path d="M33.1475 0.00219119C25.765 -0.00218692 18.3825 0.00218905 11 0C14.805 3.66667 18.629 7.32896 22.4214 10.9956C18.6416 14.6667 14.7987 18.3311 11 22C18.3762 21.9956 25.7587 22.0044 33.1348 21.9956C36.7439 18.329 40.3846 14.6667 44 11.0022C40.3972 7.33334 36.7313 3.67324 33.1475 0.00219119Z" fill="url(#paint5_linear_374_912)"/>
<path d="M7.79053 0.00252792C5.20021 0.000338676 2.60337 -0.00185056 0 0.00252792C3.93441 3.66731 7.86882 7.3321 11.7902 10.9991C7.88188 14.6682 3.92137 18.333 0.00653267 22C2.60337 22 5.20022 22 7.79706 22C11.4966 18.3286 15.294 14.6682 19 10.9969C15.2744 7.32991 11.5096 3.6695 7.79053 0.00252792Z" fill="url(#paint6_linear_374_912)"/>
<defs>
<linearGradient id="paint0_linear_374_912" x1="121.083" y1="11" x2="96.2882" y2="10.9727" gradientUnits="userSpaceOnUse">
<stop stop-color="#2850D0"/>
<stop offset="1" stop-color="#244CCB" stop-opacity="0"/>
</linearGradient>
<linearGradient id="paint1_linear_374_912" x1="109.079" y1="11" x2="85.5238" y2="10.9753" gradientUnits="userSpaceOnUse">
<stop stop-color="#2850D0"/>
<stop offset="1" stop-color="#244CCB" stop-opacity="0"/>
</linearGradient>
<linearGradient id="paint2_linear_374_912" x1="98.1405" y1="11" x2="55.99" y2="10.921" gradientUnits="userSpaceOnUse">
<stop stop-color="#2850D0"/>
<stop offset="1" stop-color="#244CCB" stop-opacity="0"/>
</linearGradient>
<linearGradient id="paint3_linear_374_912" x1="72.1033" y1="11" x2="41.1103" y2="10.9573" gradientUnits="userSpaceOnUse">
<stop stop-color="#2850D0"/>
<stop offset="1" stop-color="#244CCB" stop-opacity="0"/>
</linearGradient>
<linearGradient id="paint4_linear_374_912" x1="56.0785" y1="11" x2="32.5238" y2="10.9753" gradientUnits="userSpaceOnUse">
<stop stop-color="#2850D0"/>
<stop offset="1" stop-color="#244CCB" stop-opacity="0"/>
</linearGradient>
<linearGradient id="paint5_linear_374_912" x1="44.1364" y1="11" x2="3.22559" y2="10.9256" gradientUnits="userSpaceOnUse">
<stop stop-color="#2850D0"/>
<stop offset="1" stop-color="#244CCB" stop-opacity="0"/>
</linearGradient>
<linearGradient id="paint6_linear_374_912" x1="19.0785" y1="11" x2="-4.47623" y2="10.9753" gradientUnits="userSpaceOnUse">
<stop stop-color="#2850D0"/>
<stop offset="1" stop-color="#244CCB" stop-opacity="0"/>
</linearGradient>
</defs>
</svg>
