<svg width="171" height="31" viewBox="0 0 171 31" fill="none" xmlns="http://www.w3.org/2000/svg">
<path d="M84.8167 29.6486L84.7771 29.1502L84.8167 29.6486ZM170.354 3.6698C170.549 3.86507 170.549 4.18165 170.354 4.37691L167.172 7.55889C166.976 7.75415 166.66 7.75415 166.464 7.55889C166.269 7.36363 166.269 7.04705 166.464 6.85179L169.293 4.02336L166.464 1.19493C166.269 0.999668 166.269 0.683086 166.464 0.487823C166.66 0.292562 166.976 0.292562 167.172 0.487823L170.354 3.6698ZM0.988734 3.52349C1.8799 3.5034 2.74929 3.49634 3.59786 3.50176L3.59147 4.50174C2.75282 4.49638 1.89306 4.50336 1.01127 4.52323L0.988734 3.52349ZM6.68841 3.57976C8.49019 3.66068 10.1917 3.80184 11.8036 3.99703L11.6834 4.98978C10.0978 4.79777 8.42143 4.6586 6.64354 4.57875L6.68841 3.57976ZM14.8717 4.45066C16.6674 4.76651 18.3442 5.154 19.9205 5.60235L19.6469 6.5642C18.1045 6.12547 16.4612 5.74558 14.6985 5.43554L14.8717 4.45066ZM22.8712 6.55052C24.5688 7.1612 26.144 7.84476 27.6266 8.58339L27.1807 9.47846C25.7311 8.75626 24.1917 8.08828 22.5327 7.49149L22.8712 6.55052ZM30.3559 10.0581C31.8805 10.946 33.3132 11.8869 34.6937 12.8554L34.1193 13.674C32.7558 12.7174 31.3473 11.7927 29.8526 10.9223L30.3559 10.0581ZM37.1901 14.6676C38.5604 15.69 39.9162 16.7368 41.2726 17.7601L40.6704 18.5584C39.2982 17.5233 37.9633 16.4922 36.5921 15.4692L37.1901 14.6676ZM43.7328 19.5777C45.0884 20.5521 46.4831 21.5001 47.9587 22.3995L47.4383 23.2534C45.9353 22.3373 44.5189 21.3743 43.1491 20.3898L43.7328 19.5777ZM50.6004 23.9029C52.0359 24.661 53.5581 25.3687 55.1973 26.0085L54.8337 26.9401C53.1568 26.2855 51.6002 25.5618 50.1334 24.7871L50.6004 23.9029ZM58.0573 27.0136C59.588 27.4942 61.219 27.9177 62.9697 28.2727L62.7709 29.2528C60.9868 28.8909 59.3222 28.4588 57.7578 27.9677L58.0573 27.0136ZM65.9696 28.7944C67.5526 29.026 69.2275 29.2051 71.0059 29.3249L70.9387 30.3227C69.1356 30.2012 67.4347 30.0194 65.8248 29.7838L65.9696 28.7944ZM74.0499 29.4681C75.6665 29.5126 77.3629 29.5112 79.1462 29.4598L79.1751 30.4594C77.374 30.5113 75.6588 30.5127 74.0224 30.4677L74.0499 29.4681ZM82.1911 29.3276C83.0346 29.2791 83.8964 29.2201 84.7771 29.1502L84.8563 30.1471C83.9685 30.2175 83.0995 30.2771 82.2485 30.326L82.1911 29.3276ZM84.7771 29.1502C85.6593 29.0802 86.5221 29.0045 87.3663 28.9235L87.4619 29.9189C86.6121 30.0005 85.7438 30.0766 84.8563 30.1471L84.7771 29.1502ZM90.4084 28.5993C92.1833 28.3906 93.8703 28.1568 95.4769 27.9002L95.6346 28.8877C94.0138 29.1465 92.3131 29.3822 90.5251 29.5924L90.4084 28.5993ZM98.4918 27.3753C100.249 27.0429 101.904 26.6817 103.467 26.2957L103.707 27.2665C102.125 27.6571 100.453 28.0222 98.6777 28.3579L98.4918 27.3753ZM106.425 25.5062C108.153 25.0085 109.763 24.4792 111.273 23.9246L111.618 24.8634C110.085 25.4262 108.453 25.963 106.701 26.4671L106.425 25.5062ZM114.112 22.8074C115.757 22.1151 117.282 21.3932 118.72 20.6523L119.178 21.5412C117.719 22.2929 116.17 23.026 114.5 23.7291L114.112 22.8074ZM121.406 19.1952C122.933 18.3272 124.375 17.443 125.783 16.5575L126.315 17.4039C124.902 18.2934 123.446 19.1862 121.9 20.0646L121.406 19.1952ZM128.376 14.9099C129.82 13.9901 131.261 13.0786 132.749 12.1972L133.259 13.0576C131.786 13.93 130.357 14.8337 128.914 15.7533L128.376 14.9099ZM135.451 10.6695C136.917 9.88284 138.454 9.13198 140.109 8.4328L140.498 9.35394C138.876 10.0395 137.366 10.7766 135.923 11.5507L135.451 10.6695ZM143.005 7.31033C144.544 6.7661 146.185 6.26661 147.958 5.82134L148.202 6.79122C146.459 7.22891 144.847 7.71939 143.338 8.25312L143.005 7.31033ZM150.987 5.1415C152.58 4.82442 154.272 4.54813 156.081 4.31789L156.207 5.30989C154.421 5.53733 152.751 5.80996 151.182 6.12225L150.987 5.1415ZM159.163 3.98169C160.784 3.83284 162.493 3.71816 164.299 3.64075L164.341 4.63983C162.551 4.71659 160.859 4.83022 159.254 4.97751L159.163 3.98169ZM167.386 3.54698C168.237 3.53132 169.108 3.52336 170 3.52336V4.52336C169.114 4.52336 168.249 4.53127 167.404 4.54681L167.386 3.54698Z" fill="#4767CE"/>
</svg>
