<svg width="164" height="31" viewBox="0 0 164 31" fill="none" xmlns="http://www.w3.org/2000/svg">
<path d="M81.345 1.35137L81.3037 1.84967L81.345 1.35137ZM163.354 27.3302C163.549 27.1349 163.549 26.8184 163.354 26.6231L160.172 23.4411C159.976 23.2458 159.66 23.2458 159.464 23.4411C159.269 23.6364 159.269 23.953 159.464 24.1482L162.293 26.9766L159.464 29.8051C159.269 30.0003 159.269 30.3169 159.464 30.5122C159.66 30.7074 159.976 30.7074 160.172 30.5122L163.354 27.3302ZM0.988247 27.4765C1.84776 27.4967 2.68619 27.5037 3.50444 27.4981L3.49759 26.4982C2.68975 26.5037 1.86144 26.4968 1.01175 26.4768L0.988247 27.4765ZM6.48556 27.4187C8.22294 27.3366 9.86314 27.1934 11.4166 26.9956L11.2903 26.0036C9.76438 26.1979 8.1506 26.3389 6.43831 26.4199L6.48556 27.4187ZM14.3731 26.536C16.1019 26.2163 17.7157 25.8243 19.2324 25.3709L18.946 24.4128C17.4644 24.8557 15.8855 25.2394 14.1912 25.5527L14.3731 26.536ZM22.0652 24.4146C23.6903 23.8005 25.1984 23.1139 26.6179 22.3725L26.1549 21.4861C24.7689 22.2101 23.2973 22.88 21.7118 23.4791L22.0652 24.4146ZM29.2234 20.8975C30.6731 20.0136 32.0363 19.078 33.3502 18.1153L32.7591 17.3087C31.462 18.2591 30.1227 19.178 28.7028 20.0437L29.2234 20.8975ZM35.721 16.3189C37.0214 15.3066 38.3081 14.2704 39.5951 13.2573L38.9765 12.4716C37.6746 13.4965 36.4076 14.5171 35.1067 15.5298L35.721 16.3189ZM41.9297 11.4563C43.2185 10.4885 44.5435 9.54643 45.9439 8.65192L45.4056 7.80917C43.9781 8.72098 42.6318 9.67848 41.3292 10.6566L41.9297 11.4563ZM48.4606 7.14977C49.8318 6.38949 51.2851 5.67934 52.8497 5.03663L52.4698 4.11163C50.8667 4.77016 49.3783 5.49749 47.9757 6.2752L48.4606 7.14977ZM55.5877 4.02349C57.057 3.53749 58.6229 3.10884 60.3044 2.74914L60.0952 1.77126C58.3788 2.13844 56.7778 2.57653 55.2736 3.07408L55.5877 4.02349ZM63.1893 2.21979C64.7116 1.98465 66.3231 1.80248 68.0349 1.68023L67.9636 0.682771C66.2259 0.806872 64.5872 0.992007 63.0366 1.23151L63.1893 2.21979ZM70.9681 1.5336C72.5249 1.48769 74.1592 1.48813 75.8778 1.53923L75.9075 0.539675C74.1702 0.488016 72.5162 0.487511 70.9386 0.534033L70.9681 1.5336ZM78.8123 1.6715C79.6249 1.72012 80.4552 1.77938 81.3037 1.84967L81.3863 0.853081C80.5303 0.782181 79.6924 0.722373 78.872 0.673288L78.8123 1.6715ZM81.3037 1.84967C82.1528 1.92 82.9832 1.99598 83.7956 2.07738L83.8953 1.08237C83.0771 1.00038 82.2409 0.923873 81.3863 0.853081L81.3037 1.84967ZM86.7236 2.40331C88.4312 2.61307 90.0538 2.8482 91.5987 3.10617L91.7634 2.11982C90.2037 1.85938 88.5667 1.62221 86.8455 1.41077L86.7236 2.40331ZM94.4979 3.63418C96.1861 3.96829 97.7748 4.33128 99.2753 4.71918L99.5256 3.751C98.0058 3.35813 96.3984 2.99091 94.6921 2.6532L94.4979 3.63418ZM102.113 5.51233C103.771 6.01167 105.313 6.54282 106.76 7.0991L107.119 6.16568C105.649 5.60045 104.083 5.06129 102.402 4.55485L102.113 5.51233ZM109.475 8.21744C111.045 8.90886 112.501 9.6297 113.874 10.3694L114.348 9.48899C112.954 8.73786 111.474 8.00521 109.878 7.30226L109.475 8.21744ZM116.435 11.8207C117.888 12.6829 119.26 13.561 120.6 14.4405L121.149 13.6045C119.803 12.7209 118.416 11.8338 116.946 10.9608L116.435 11.8207ZM123.067 16.0753C124.441 16.9885 125.812 17.8937 127.228 18.7696L127.754 17.9192C126.353 17.0527 124.994 16.1554 123.62 15.2424L123.067 16.0753ZM129.801 20.2908C131.202 21.0773 132.671 21.8285 134.251 22.5285L134.656 21.6142C133.109 20.9286 131.668 20.1921 130.29 19.4188L129.801 20.2908ZM137.023 23.6553C138.5 24.2033 140.075 24.7065 141.777 25.1553L142.032 24.1883C140.362 23.7478 138.817 23.2545 137.371 22.7178L137.023 23.6553ZM144.688 25.8414C146.221 26.1619 147.851 26.4411 149.593 26.6738L149.725 25.6826C148.006 25.453 146.401 25.1778 144.893 24.8626L144.688 25.8414ZM152.561 27.0136C154.122 27.164 155.768 27.2798 157.507 27.3581L157.552 26.3591C155.829 26.2816 154.2 26.1669 152.657 26.0182L152.561 27.0136ZM160.482 27.4528C161.302 27.4686 162.141 27.4766 163 27.4766V26.4766C162.147 26.4766 161.314 26.4687 160.501 26.453L160.482 27.4528Z" fill="#4767CE"/>
</svg>
