<svg width="120" height="86" viewBox="0 0 120 86" fill="none" xmlns="http://www.w3.org/2000/svg">
<g clip-path="url(#clip0_48_211)">
<path fill-rule="evenodd" clip-rule="evenodd" d="M62.529 42.7691C65.8283 42.3472 68.9841 41.1705 71.748 39.3316H57.363C55.2735 39.3316 53.5635 40.1049 53.5635 41.0496C53.5635 41.6456 54.252 42.1805 55.29 42.4874C55.8 42.5947 56.3165 42.6826 56.8395 42.7512C57.0105 42.7631 57.186 42.7691 57.363 42.7691H62.529ZM75.192 36.4932C75.462 36.221 75.7235 35.9414 75.9765 35.6543C75.9979 35.5817 76.009 35.5065 76.0095 35.4308C76.0095 34.4861 74.2995 33.7128 72.2085 33.7128H41.979C42.8524 34.9597 43.8554 36.1118 44.9715 37.1502H72.2085C73.416 37.1502 74.496 36.8925 75.192 36.4932ZM78.8505 31.527C79.4388 30.429 79.9302 29.2823 80.319 28.1H43.632C41.541 28.1 39.831 28.8733 39.831 29.8179C39.831 29.8358 39.831 29.8507 39.831 29.8671C39.912 30.0593 39.9975 30.2486 40.0845 30.4363C40.6365 31.0785 42.0195 31.5374 43.629 31.5374L78.8505 31.527ZM81.339 20.2879C81.2754 19.132 81.1189 17.983 80.871 16.8519H42.45C40.3605 16.8519 38.6505 17.6252 38.6505 18.5699C38.6505 19.5161 40.3605 20.2879 42.45 20.2879H81.339ZM79.5885 12.9094C79.5015 12.7097 79.41 12.5116 79.317 12.3134C78.7545 11.6816 77.3835 11.2316 75.7905 11.2316H40.7205C40.1198 12.331 39.6179 13.4807 39.2205 14.6676H75.7905C77.88 14.6676 79.59 13.8943 79.59 12.9496C79.59 12.9362 79.59 12.9213 79.59 12.9079L79.5885 12.9094ZM77.4 9.05475C76.5076 7.80548 75.4844 6.65372 74.3475 5.6188H47.625C45.5355 5.6188 43.8255 6.39211 43.8255 7.33677C43.8255 8.28144 45.5355 9.05475 47.625 9.05475H77.4ZM65.0055 0.621331C63.5804 0.268521 62.1229 0.0603438 60.6555 0H58.827C54.9659 0.156449 51.2185 1.34336 47.979 3.43595H62.079C64.1685 3.43595 65.8785 2.66264 65.8785 1.71797C65.8785 1.30226 65.547 0.919332 64.998 0.621331H65.0055ZM38.142 22.4752C38.1951 23.631 38.3426 24.7806 38.583 25.9126H76.284C78.375 25.9126 80.085 25.1393 80.085 24.1932C80.085 23.2485 78.375 22.4752 76.284 22.4752H38.142Z" fill="#183884"/>
<path fill-rule="evenodd" clip-rule="evenodd" d="M0.260986 47.0974H119.22V49.0866H0.260986V47.0974Z" fill="#183884"/>
<path d="M4.083 61.1423H8.2005L6.1665 55.9049L4.083 61.1423ZM75.021 73.2471V86.006H73.485V73.2471H75.021ZM79.4715 86.006L75.183 79.6541L79.665 73.2471H81.5175L76.9665 79.6168L81.405 86.006H79.4715ZM75.102 79.6541L75.0855 79.6898V79.6183L75.102 79.6541ZM62.271 75.6817L62.421 85.9985H60.651V73.2471H62.511L69.27 83.2599L69.1605 73.2471H70.8915V86.006H69.1905L62.271 75.6892V75.6817ZM51.396 80.5764H55.38L53.412 75.339L51.396 80.5779V80.5764ZM55.9995 82.2243H50.775L49.305 85.9985H47.4465L52.5465 73.2396H54.2775L59.361 85.9985H57.423L55.9995 82.2243ZM40.4565 74.8175V78.6811H41.2185C43.1845 78.6811 44.168 78.0136 44.169 76.6785C44.169 75.4389 43.3315 74.8185 41.6565 74.8175H40.4565ZM40.4565 80.0325V84.4221H42.132C44.01 84.4221 44.949 83.7312 44.949 82.3495C44.949 80.8019 44.01 80.0281 42.132 80.0281L40.4565 80.0325ZM38.667 86.0045V73.2471H41.5605C44.5185 73.2471 45.997 74.4048 45.996 76.7203C45.996 77.7722 45.4505 78.5872 44.3595 79.1653C45.9845 79.6143 46.7965 80.6077 46.7955 82.1453C46.7955 84.7221 45.1265 86.0099 41.7885 86.0089L38.667 86.0045ZM45.0645 61.1467H49.2525L47.184 55.9094L45.0645 61.1467ZM49.9035 62.7947H44.412L42.867 66.5689H40.917L46.2795 53.81H48.099L53.442 66.5689H51.4005L49.9005 62.7947H49.9035ZM60.561 64.9567V66.5689H54.2145V53.8055H56.0145V64.9522L60.561 64.9567ZM68.511 64.9567V66.5689H62.172V53.8055H63.972V64.9522L68.511 64.9567ZM71.922 53.81V66.5689H70.149V53.8055L71.922 53.81ZM76.722 61.1467H80.91L78.8415 55.9094L76.722 61.1467ZM81.561 62.7947H76.0725L74.529 66.5689H72.579L77.9415 53.81H79.755L85.098 66.5689H83.061L81.561 62.7947ZM87.5385 56.2521L87.6885 66.5689H85.875V53.8055H87.789L94.743 63.8183L94.629 53.8055H96.4095V66.5644H94.6605L87.543 56.2476L87.5385 56.2521ZM108.912 63.5203H111.185C110.038 65.7156 108.027 66.8132 105.15 66.8132C103.191 66.8132 101.546 66.1576 100.214 64.8464C99.5708 64.2364 99.0616 63.5014 98.7175 62.6872C98.3735 61.873 98.2021 60.9971 98.214 60.1142C98.214 58.3262 98.8995 56.7865 100.271 55.4952C100.921 54.8664 101.691 54.3717 102.534 54.0392C103.378 53.7068 104.28 53.5433 105.188 53.5582C106.434 53.5329 107.667 53.8253 108.768 54.4075C109.837 54.979 110.688 55.8815 111.194 56.9777H109.034C108.111 55.8205 106.816 55.2419 105.15 55.2419C104.489 55.2341 103.834 55.3602 103.224 55.6122C102.613 55.8643 102.061 56.2371 101.601 56.708C100.601 57.6884 100.101 58.8223 100.101 60.1097C100.096 60.7574 100.22 61.3998 100.467 61.9992C100.715 62.5986 101.08 63.143 101.541 63.6008C101.997 64.0958 102.554 64.4892 103.175 64.755C103.795 65.0208 104.465 65.153 105.141 65.1429C106.807 65.1429 108.064 64.5991 108.912 63.5114V63.5203ZM120 64.9522V66.5644H112.989V53.8055H120V55.3298H114.809V59.4049H120V60.8949H114.809V64.9537L120 64.9522ZM8.8395 62.7902H3.4395L1.92 66.5644H0L5.2725 53.8055H7.0605L12.3105 66.5644H10.3125L8.8395 62.7902ZM12.315 63.0033H13.992C13.9776 63.5944 14.1924 64.1683 14.592 64.6065C14.7899 64.8246 15.0334 64.9971 15.3055 65.1119C15.5775 65.2267 15.8716 65.281 16.167 65.2711C16.875 65.2711 17.443 65.0466 17.871 64.5976C18.0845 64.3728 18.2512 64.1083 18.3616 63.8194C18.472 63.5305 18.524 63.2228 18.5145 62.9139C18.5145 62.0636 18.0175 61.4139 17.0235 60.965C16.0915 60.5746 15.16 60.1907 14.229 59.8132C13.243 59.2331 12.75 58.3649 12.75 57.2087C12.75 56.1329 13.082 55.2553 13.746 54.5758C14.41 53.8964 15.301 53.5572 16.419 53.5582C17.463 53.5582 18.289 53.8502 18.897 54.4343C19.505 55.0184 19.8405 55.813 19.9035 56.8183H18.264C18.2575 56.5829 18.2029 56.3512 18.1037 56.1374C18.0044 55.9235 17.8625 55.7319 17.6865 55.5741C17.3288 55.2458 16.8564 55.0689 16.3695 55.0809C15.8577 55.0597 15.3577 55.2377 14.976 55.5771C14.7974 55.7458 14.657 55.9504 14.5644 56.1773C14.4718 56.4042 14.4291 56.6481 14.439 56.8928C14.439 57.6482 14.964 58.271 16.0155 58.7553C16.4655 58.9564 16.9695 59.1576 17.541 59.3513C19.36 59.9771 20.2695 61.101 20.2695 62.7232C20.2695 63.944 19.9095 64.9313 19.1895 65.6853C18.4695 66.4392 17.476 66.8187 16.209 66.8237C15.054 66.8237 14.116 66.4601 13.395 65.733C12.674 65.0058 12.314 64.0935 12.315 62.9958V63.0033ZM23.7345 53.8055V66.5644H21.984V53.8055H23.7345ZM28.452 61.1423H32.5695L30.5355 55.9049L28.452 61.1423ZM33.2085 62.7902H27.8085L26.2905 66.5644H24.369L29.6415 53.8055H31.4295L36.6795 66.5644H34.68L33.2085 62.7902Z" fill="#183884"/>
</g>
<defs>
<clipPath id="clip0_48_211">
<rect width="120" height="86" fill="white"/>
</clipPath>
</defs>
</svg>
