<svg width="181" height="25" viewBox="0 0 181 25" fill="none" xmlns="http://www.w3.org/2000/svg">
<path fill-rule="evenodd" clip-rule="evenodd" d="M107.57 19.1669V8.8809L113.808 8.8349C114.675 8.8289 115.45 8.8639 116.13 8.9119C116.602 8.94176 117.071 9.01507 117.53 9.1309C117.904 9.22236 118.267 9.35657 118.61 9.5309C118.883 9.67335 119.135 9.85233 119.359 10.0629C119.564 10.2603 119.731 10.4939 119.852 10.7519C119.976 11.0181 120.05 11.3049 120.069 11.5979C120.095 11.9174 120.059 12.2389 119.963 12.5449C119.862 12.8524 119.696 13.1348 119.477 13.3729C119.227 13.65 118.926 13.8776 118.592 14.0439C118.097 14.2831 117.581 14.4759 117.051 14.6199L120.138 19.0759H115.898L112.353 13.3959C112.743 13.4394 113.134 13.4591 113.526 13.4549C114.007 13.4763 114.488 13.438 114.959 13.3409C115.25 13.2515 115.497 13.0554 115.65 12.7919C115.828 12.5919 115.921 12.3296 115.907 12.0619C115.892 11.8443 115.795 11.6406 115.634 11.4929C115.417 11.3043 115.152 11.1781 114.869 11.1279C114.356 11.0327 113.835 10.9921 113.314 11.0069C113.075 11.0069 112.832 11.0069 112.576 11.0179L111.795 11.0379L111.895 19.1689L107.57 19.1669Z" fill="#006430"/>
<path fill-rule="evenodd" clip-rule="evenodd" d="M59.255 9.00098H64.772L66.902 15.219L69.019 9.00098H74.519V19.219H71.094V11.428L68.437 19.219H65.337L62.69 11.428V19.219H59.255V9.00098Z" fill="#006430"/>
<path fill-rule="evenodd" clip-rule="evenodd" d="M52.0261 15.324L50.5261 11.65L49.0351 15.324H52.0261ZM52.9041 17.535H48.1271L47.4701 19.219H43.1851L48.2851 8.99805H52.8571L57.9591 19.219H53.5701L52.9041 17.535Z" fill="#006430"/>
<path fill-rule="evenodd" clip-rule="evenodd" d="M28.782 9.00098H32.975V12.578H37.559V9.00098H41.769V19.219H37.559V15.089H32.975V19.219H28.782V9.00098Z" fill="#006430"/>
<path fill-rule="evenodd" clip-rule="evenodd" d="M81.599 13.794C82.979 12.213 84.399 10.643 85.663 9.00295C87.221 9.01595 88.774 9.01395 90.332 9.00295L85.886 13.756L90.931 19.146C89.291 19.135 87.653 19.132 86.012 19.146C85.1134 17.9406 83.6424 16.1566 81.599 13.794ZM77.186 19.146H81.438V9.00195H77.186V19.146Z" fill="#006430"/>
<path fill-rule="evenodd" clip-rule="evenodd" d="M95.318 8.81H101.604C102.594 8.75623 103.565 9.09456 104.307 9.75172C105.049 10.4089 105.503 11.332 105.569 12.321V15.655C105.502 16.6439 105.049 17.5667 104.307 18.2236C103.565 18.8806 102.594 19.2188 101.604 19.165H95.318C94.3284 19.2188 93.3574 18.8806 92.6153 18.2236C91.8731 17.5667 91.4197 16.6439 91.353 15.655V12.32C91.4197 11.3311 91.8731 10.4083 92.6153 9.75136C93.3574 9.09442 94.3284 8.75622 95.318 8.81ZM96.85 11.334H100.072C100.579 11.3066 101.077 11.4801 101.457 11.817C101.838 12.1539 102.07 12.6271 102.104 13.134V14.843C102.07 15.35 101.838 15.8231 101.457 16.16C101.077 16.4969 100.579 16.6704 100.072 16.643H96.849C96.3417 16.6704 95.844 16.4969 95.4636 16.16C95.0833 15.8231 94.851 15.35 94.817 14.843V13.133C94.851 12.6261 95.0833 12.1529 95.4636 11.816C95.844 11.4791 96.3417 11.3056 96.849 11.333L96.85 11.334Z" fill="#006430"/>
<path fill-rule="evenodd" clip-rule="evenodd" d="M151.438 9.00098H155.356L160.465 14.655V9.00098H164.417V19.219H160.465L155.381 13.608V19.219H151.438V9.00098Z" fill="#55AE24"/>
<path fill-rule="evenodd" clip-rule="evenodd" d="M144.137 15.324L142.637 11.65L141.146 15.324H144.137ZM145.015 17.535H140.238L139.581 19.222H135.297L140.397 9.00098H144.969L150.069 19.222H145.68L145.015 17.535Z" fill="#55AE24"/>
<path fill-rule="evenodd" clip-rule="evenodd" d="M126.486 17.0259H128.625C129.15 17.0681 129.677 16.9686 130.151 16.7379C130.287 16.6591 130.401 16.5454 130.479 16.4085C130.557 16.2717 130.597 16.1165 130.596 15.9589C130.596 15.8092 130.555 15.6624 130.477 15.5342C130.4 15.406 130.289 15.3012 130.157 15.2309C129.675 15.0084 129.144 14.9134 128.615 14.9549H126.486V17.0259ZM126.486 13.0119H128.309C128.78 13.0512 129.252 12.9631 129.677 12.7569C129.8 12.679 129.9 12.5699 129.967 12.4409C130.034 12.3118 130.066 12.1673 130.06 12.0219C130.064 11.8817 130.031 11.7429 129.964 11.6199C129.896 11.4968 129.797 11.394 129.677 11.3219C129.261 11.1198 128.799 11.0328 128.338 11.0699H126.486V13.0119ZM122.255 9.00194H130.107C131.162 8.93667 132.211 9.19221 133.118 9.73494C133.433 9.9224 133.695 10.1871 133.879 10.5039C134.063 10.8208 134.164 11.1795 134.171 11.5459C134.171 11.8449 134.104 12.14 133.974 12.4094C133.844 12.6787 133.656 12.9154 133.422 13.1019C132.992 13.4368 132.492 13.6699 131.959 13.7839C132.747 13.8788 133.493 14.1938 134.111 14.6929C134.335 14.8989 134.513 15.1507 134.631 15.4313C134.75 15.7118 134.807 16.0145 134.798 16.3189C134.802 16.8374 134.629 17.3418 134.308 17.7489C133.953 18.1914 133.491 18.5356 132.965 18.7489C132.453 18.9373 131.917 19.0494 131.373 19.0819C130.428 19.1739 129.803 19.2219 129.493 19.2219H122.255V9.00194Z" fill="#55AE24"/>
<path fill-rule="evenodd" clip-rule="evenodd" d="M171.165 13.794C172.545 12.213 173.965 10.643 175.228 9.00295C176.786 9.01595 178.339 9.01395 179.897 9.00295L175.451 13.756L180.496 19.146C178.856 19.135 177.218 19.132 175.577 19.146C174.678 17.9406 173.208 16.1566 171.165 13.794ZM166.751 19.146H171.002V9.00195H166.751V19.146Z" fill="#55AE24"/>
<path fill-rule="evenodd" clip-rule="evenodd" d="M8.195 5.05908H15.343L7.149 24.8691H0L8.195 5.05908Z" fill="#55AE24"/>
<path fill-rule="evenodd" clip-rule="evenodd" d="M18.376 0H25.524L17.325 19.81H10.176L18.376 0Z" fill="#55AE24"/>
</svg>
