<svg width="123" height="58" viewBox="0 0 123 58" fill="none" xmlns="http://www.w3.org/2000/svg">
<g clip-path="url(#clip0_48_215)">
<path d="M74.064 41.7188V48.6271H75.0365V45.0485C76.3485 44.4125 76.8225 44.7232 76.8143 45.5365V48.6271H77.7868V45.4812C77.7868 44.3897 77.326 43.8545 76.4027 43.8545C76.0501 43.8545 75.5974 43.9847 75.0365 44.2563V41.7188H74.064ZM103.73 41.7188V48.4417C104.395 48.6414 105.085 48.7508 105.78 48.767C107.42 48.767 108.04 47.8708 108.04 46.3108C108.04 44.6305 107.468 43.8562 106.206 43.8562C105.707 43.8815 105.221 44.0189 104.783 44.258V41.7188H103.73ZM106.959 46.3027C106.959 47.386 106.597 47.9 105.752 47.9C105.425 47.8996 105.1 47.8586 104.783 47.778V45.0436C105.125 44.8508 105.506 44.7358 105.898 44.7069C106.669 44.7069 106.959 45.1835 106.959 46.3027ZM108.747 47.3031C108.747 48.2075 109.209 48.767 110.19 48.767C110.667 48.7526 111.134 48.6243 111.551 48.3929V48.6353H112.568V45.5479C112.568 44.4743 112.087 43.848 110.734 43.848C110.168 43.8698 109.606 43.9577 109.06 44.1099L109.214 45.0241C109.672 44.8417 110.155 44.7319 110.648 44.6988C111.274 44.6988 111.51 44.9509 111.51 45.5577V45.8651C111.066 45.8195 110.738 45.7919 110.539 45.7919C109.337 45.7919 108.735 46.2929 108.735 47.2949L108.747 47.3031ZM110.68 46.6394C110.96 46.649 111.238 46.6739 111.515 46.7142V47.6577C111.223 47.8116 110.901 47.9004 110.57 47.9179C110.054 47.9179 109.8 47.713 109.8 47.2933C109.8 46.8736 110.09 46.6426 110.68 46.6426V46.6394ZM117.685 45.4812C117.685 44.3897 117.193 43.8545 116.187 43.8545C115.797 43.8545 115.29 43.9944 114.672 44.2742V43.9847H113.652V48.6337H114.705V45.055C116.128 44.419 116.637 44.7297 116.629 45.543V48.6337H117.68V45.4812H117.685ZM118.774 41.7188V48.6271H119.827V41.7188H118.774ZM122.767 43.9782H121.542L120.035 46.2002L121.768 48.702L122.949 48.5247L121.216 46.1075L122.767 43.9782ZM79.7647 43.9782H78.7921V48.6271H79.7647V43.9782ZM79.7647 41.7188H78.7921V43.0201H79.7647V41.7188ZM83.3727 45.7154H80.8897V46.6491H83.3792V45.7154H83.3727ZM84.7978 43.9782H84.2107V44.837H84.7978V46.9094C84.7978 47.5601 84.9159 48.0399 85.1422 48.3295C85.3685 48.619 85.7982 48.7589 86.4001 48.7589C86.7528 48.7478 87.1037 48.7037 87.4481 48.6271L87.3644 47.7976C87.1201 47.858 86.8699 47.8924 86.6182 47.9C85.9393 47.9 85.7703 47.6105 85.7703 46.8915V44.837H87.2972V43.9782H85.772V42.6524H84.8044V43.9782H84.7978ZM90.2229 47.9C89.2586 47.9 88.9487 47.4608 88.8896 46.5987H91.9335V46.3092C91.9335 45.5251 91.7908 44.9184 91.4972 44.4987C91.2037 44.079 90.7018 43.848 89.972 43.848C88.5797 43.848 87.8843 44.6695 87.8843 46.3027C87.8843 47.9749 88.5715 48.7589 90.1065 48.7589C90.7059 48.7551 91.3017 48.6669 91.8761 48.497L91.7121 47.6381C91.2355 47.8067 90.7338 47.8952 90.2279 47.9H90.2229ZM89.9638 44.7069C90.6592 44.7069 90.9019 45.1266 90.9478 45.761H88.9142C88.9979 45.0615 89.3488 44.7069 89.9704 44.7069H89.9638ZM94.8264 47.9C93.9556 47.9 93.6194 47.386 93.6194 46.3027C93.6194 45.2193 93.9556 44.7069 94.8264 44.7069C95.1953 44.7263 95.5571 44.8151 95.8924 44.9688L96.0564 44.0351C95.6271 43.9263 95.1873 43.8636 94.7444 43.848C93.3029 43.848 92.6239 44.6223 92.6239 46.3027C92.6239 47.983 93.3029 48.7589 94.7444 48.7589C95.1873 48.7434 95.6271 48.6807 96.0564 48.5718L95.8924 47.6381C95.5571 47.7918 95.1953 47.8807 94.8264 47.9ZM96.8978 41.7188V48.6271H97.8703V45.0485C99.1823 44.4125 99.6562 44.7232 99.648 45.5365V48.6271H100.621V45.4812C100.621 44.3897 100.16 43.8545 99.238 43.8545C98.8854 43.8545 98.4328 43.9847 97.8703 44.2563V41.7188H96.8978Z" fill="#04144B"/>
<path d="M74.1493 11.9201V37.1088H78.0427V23.8858C83.3136 21.545 85.1931 22.7146 85.1603 25.6751V37.1072H89.052V25.5043C89.052 21.4751 87.2053 19.4857 83.5137 19.4857C82.1033 19.4857 80.2911 19.9737 78.041 20.9659V11.9201H74.1493ZM107.054 11.8127V36.4208C109.908 37.213 112.466 37.592 114.641 37.592C120.684 37.592 123.005 34.285 123.005 28.5348C123.005 22.3372 120.837 18.8838 116.169 18.8838C114.693 18.8838 113.001 19.1603 110.954 20.1591V11.8144L107.054 11.8127ZM119.005 28.5331C119.005 32.5282 117.662 34.76 114.541 34.76C113.393 34.76 112.191 34.7909 110.949 34.4818L110.902 23.7117C112.579 22.8854 113.985 22.3697 115.059 22.3697C117.913 22.3697 119.005 24.4014 119.005 28.5331ZM94.8494 19.1424H92.0515V22.6658H94.8494V30.773C94.8494 33.1837 95.2627 35.1373 96.1778 36.1979C97.0929 37.2585 98.8018 37.7807 101.214 37.7807C101.951 37.7807 102.826 37.618 103.838 37.4228V34.2768C103.275 34.3676 102.706 34.4166 102.136 34.4233C99.4168 34.4233 99.1396 33.3562 99.1396 30.7047V22.6658H103.51V19.1424H99.138V13.6476H94.8494V19.1424Z" fill="#04144B"/>
<path fill-rule="evenodd" clip-rule="evenodd" d="M25.3642 2.9558C27.9376 3.80133 30.3879 4.97824 32.6524 6.45636L32.7311 6.50841C33.5052 7.01593 34.2541 7.55815 34.9779 8.13507C35.7771 7.93553 36.5884 7.76744 37.4117 7.6308C37.9474 7.5408 38.4875 7.46543 39.032 7.4047C38.376 6.63475 37.6888 5.89733 36.9705 5.19245L36.8688 5.09485C35.1936 3.47985 33.3414 2.05581 31.347 0.84928C30.8582 0.555398 30.3602 0.273443 29.8529 0.00341797C28.2737 0.858629 26.7719 1.84752 25.3642 2.95905V2.9558ZM27.6602 8.85405L28.044 8.99231C28.7317 9.24065 29.4074 9.51176 30.071 9.80564C31.1435 9.33761 32.2419 8.93029 33.3609 8.58565C32.7049 8.08139 32.0232 7.60478 31.3158 7.15582L31.1682 7.06148C29.0315 5.7068 26.7346 4.6185 24.3294 3.82118C23.0836 4.89573 21.926 6.06681 20.8674 7.32336C21.1954 7.36078 21.5234 7.40145 21.8514 7.44862C23.8278 7.73059 25.7721 8.20181 27.657 8.85567L27.6602 8.85405ZM14.3762 9.31114C12.2127 9.61159 10.0874 10.1389 8.036 10.8841C7.47293 11.0891 6.91807 11.3092 6.3714 11.5445C6.2074 11.6129 6.05488 11.6812 5.89744 11.7527C5.86956 11.9154 5.84168 12.0927 5.81544 12.2619C5.71595 12.9299 5.63668 13.605 5.57764 14.2871C5.50876 15.1102 5.47323 15.9419 5.47104 16.7824C6.027 16.4278 6.59772 16.091 7.17828 15.7706C8.94069 14.8028 10.7939 14.0074 12.7116 13.3957L12.8937 13.3387C13.671 13.0958 14.4621 12.8833 15.2668 12.7011C15.5062 12.1426 15.7604 11.5933 16.0294 11.0533C16.3705 10.3701 16.7351 9.70262 17.1232 9.05087C16.2016 9.09804 15.2897 9.18426 14.3762 9.31114ZM12.464 14.9621L12.2114 15.0435C10.4309 15.6313 8.70784 16.3783 7.06348 17.2752C6.52884 17.568 6.00349 17.8755 5.48744 18.1976C5.55691 19.8652 5.76313 21.5244 6.10408 23.1588C6.46816 22.7815 6.84153 22.4144 7.2242 22.0576C8.5391 20.8269 9.9592 19.7117 11.4685 18.7246L11.8785 18.4611C12.4689 18.0891 13.0703 17.7367 13.6825 17.4037C13.9368 16.3742 14.2444 15.3584 14.6042 14.3603C13.8804 14.536 13.167 14.7366 12.464 14.9621ZM34.8533 56.328L34.9418 56.3572C36.9886 57.0282 39.1003 57.4856 41.2427 57.722C41.9261 57.7968 42.6154 57.8511 43.3108 57.8847C43.8771 57.1256 44.4074 56.341 44.9016 55.5309C45.2919 54.89 45.6598 54.2339 46.0053 53.5627C45.3755 53.6375 44.7403 53.6917 44.0996 53.7253C43.4917 53.7611 42.8783 53.779 42.2595 53.779C40.8637 53.779 39.4693 53.6871 38.0857 53.5041L37.7577 53.4585C36.9508 53.3425 36.1543 53.1961 35.3682 53.0193C34.9648 53.3544 34.5537 53.6798 34.135 53.9953C33.515 54.4606 32.8776 54.9025 32.2227 55.3211C33.0777 55.6941 33.9524 56.0292 34.8467 56.3263L34.8533 56.328ZM49.2 17.0085C49.2 16.9353 49.1885 16.8604 49.1836 16.7872C49.0886 15.5902 48.9232 14.3996 48.6883 13.2216C48.5112 12.3367 48.2947 11.4632 48.0422 10.6076C48.0422 10.5929 48.0323 10.5767 48.029 10.562C47.9383 10.2573 47.8432 9.95529 47.7437 9.65599C46.0886 9.38528 44.4142 9.24711 42.7368 9.24282C42.8302 9.38597 42.9204 9.52911 43.0106 9.67551C43.1008 9.82191 43.1664 9.92764 43.2435 10.0545C43.8039 10.9879 44.3141 11.9501 44.772 12.937C45.1525 13.7514 45.4963 14.5853 45.8036 15.4387L45.8183 15.4778C46.0851 16.2228 46.3245 16.9819 46.5366 17.7551C47.482 18.2454 48.4011 18.784 49.2902 19.3687V19.289C49.2902 18.5299 49.2623 17.7708 49.2066 17.0117L49.2 17.0085ZM50.0577 13.4493C50.3408 14.7907 50.5336 16.1493 50.635 17.516C50.635 17.6201 50.6498 17.7242 50.6563 17.8299C50.6979 18.4806 50.7186 19.1405 50.7186 19.8096C50.7186 19.995 50.7186 20.1804 50.7186 20.3643C51.0346 20.5985 51.3462 20.8382 51.6534 21.0832C52.5078 21.767 53.3251 22.4952 54.102 23.2646C54.2791 22.3699 54.4157 21.4628 54.512 20.5432C54.53 20.3626 54.548 20.1837 54.5644 20.0015C54.6399 19.1177 54.6781 18.2236 54.6792 17.3192C54.6803 16.4147 54.6415 15.5195 54.5628 14.6336C54.5326 14.0883 54.4712 13.5452 54.3791 13.0069C54.3562 12.8442 54.3332 12.6913 54.3086 12.5335C54.2496 12.1583 54.184 11.7853 54.1118 11.4144C52.9982 10.9755 51.8597 10.6012 50.7022 10.2936C50.1698 10.1516 49.6319 10.0242 49.0885 9.91137C49.4801 11.071 49.8053 12.2517 50.0626 13.4477L50.0577 13.4493ZM51.332 34.0038C51.016 34.4571 50.688 34.9017 50.348 35.3376C50.5845 36.4657 50.7564 37.6062 50.863 38.7536C51.3692 38.3437 51.8612 37.918 52.339 37.4767L52.7621 37.0798C54.3498 35.5644 55.7714 33.8866 57.0031 32.0745C57.1294 31.8907 57.2524 31.7053 57.3738 31.5166C56.6216 30.1065 55.7608 28.7562 54.799 27.4776L54.676 27.7899C53.9086 29.722 52.9454 31.5718 51.801 33.3108C51.6469 33.545 51.4878 33.7793 51.3271 34.0086L51.332 34.0038ZM59.0695 35.279C58.7415 34.3714 58.3561 33.4897 57.9396 32.6178C57.7996 32.8412 57.658 33.0619 57.5148 33.2799C56.2268 35.2373 54.7193 37.0435 53.0212 38.6641C52.8998 38.7812 52.7768 38.8967 52.6522 39.0106C52.111 39.5116 51.5523 39.9926 50.9761 40.4534C50.9909 40.8471 50.9991 41.244 50.9991 41.6409C50.9991 41.9858 50.9931 42.3284 50.981 42.6689C50.9646 43.1944 50.9335 43.7149 50.8908 44.2305C51.6387 43.8434 52.369 43.4275 53.0819 42.9829L53.2934 42.8495C55.369 41.5291 57.2798 39.9697 58.9859 38.2038C59.2483 37.9321 59.5074 37.6556 59.76 37.3742C59.5555 36.665 59.3254 35.9666 59.0695 35.279ZM38.704 52.354L39.0976 52.4028C40.3207 52.5454 41.5512 52.6166 42.7827 52.6159C43.4507 52.6159 44.1138 52.5953 44.772 52.5541C45.3788 52.5173 45.9801 52.463 46.576 52.3915C47.2621 50.9019 47.8269 49.3604 48.2652 47.7815C47.7448 47.9583 47.2183 48.121 46.6859 48.2695C44.9866 48.7522 43.2491 49.0906 41.492 49.2813C41.2804 49.3041 41.0705 49.3236 40.8573 49.3415C40.2494 49.3957 39.635 49.431 39.014 49.4472C38.2413 50.3432 37.4172 51.1942 36.5458 51.9962C37.2564 52.1393 37.9758 52.2586 38.704 52.354ZM12.2016 49.5383C12.2246 49.6131 12.2459 49.688 12.2688 49.7628C13.0002 52.1707 14.0269 54.4805 15.3258 56.6403C15.5587 57.0274 15.8014 57.4097 16.0507 57.7789C16.1852 57.8521 16.3213 57.9221 16.459 57.9937L16.787 57.979L17.3151 57.9481C17.7962 57.9156 18.2734 57.8727 18.7468 57.8196C19.7908 57.702 20.828 57.532 21.8546 57.3105C21.5348 56.9981 21.22 56.6777 20.9133 56.3524C19.2352 54.5736 17.7753 52.6041 16.564 50.485C16.4836 50.3435 16.4 50.2004 16.3246 50.0572C16.0917 49.6359 15.8703 49.2065 15.6571 48.7738C14.977 48.6653 14.3041 48.5336 13.6382 48.3785L13.2594 48.289C13.0495 48.2386 12.8412 48.1849 12.6329 48.1264C12.3421 48.0483 12.0524 47.967 11.7637 47.8824C11.8949 48.4387 12.0409 48.9896 12.2016 49.5351V49.5383ZM22.4008 56.1132C22.6817 56.4082 22.9687 56.6967 23.2618 56.9786C24.8717 56.5512 26.4441 55.9952 27.9636 55.3162C27.693 55.1535 27.4241 54.9909 27.16 54.8135C25.2599 53.5867 23.5002 52.1582 21.912 50.5533C21.7185 50.3581 21.5272 50.1597 21.338 49.958C21.0986 49.701 20.8624 49.4402 20.6296 49.1756C19.5124 49.1741 18.3962 49.1133 17.2856 48.9934C17.4808 49.3708 17.6858 49.7433 17.8973 50.1109C17.9908 50.2736 18.0876 50.4362 18.1843 50.5989C19.3755 52.5863 20.7876 54.4348 22.3942 56.11L22.4008 56.1132ZM5.26932 39.6743C5.14359 40.4421 5.04628 41.218 4.9774 42.002C6.33124 43.0081 7.76552 43.903 9.266 44.6779C9.16432 43.9535 9.08779 43.2215 9.0364 42.4819C8.98939 41.7846 8.96533 41.0797 8.96424 40.3672C8.96435 39.1107 9.04102 37.8554 9.19384 36.608C9.25507 36.1092 9.32832 35.6136 9.4136 35.1213C8.71851 34.2016 8.07572 33.2442 7.48824 32.2535C7.24333 32.8055 7.01428 33.365 6.80108 33.9322C6.10505 35.7911 5.59207 37.7125 5.26932 39.6694V39.6743ZM5.8466 32.6699C6.10353 32.0388 6.38179 31.4185 6.68136 30.809C6.34352 30.1583 6.02919 29.4995 5.73836 28.8326C5.51969 28.3208 5.31032 27.8002 5.11024 27.271C4.61824 27.9103 4.1574 28.5724 3.71952 29.2442C2.5618 31.0293 1.59342 32.9285 0.82984 34.9114C0.625386 35.445 0.435147 35.9872 0.25912 36.5381C0.16892 36.8195 0.082 37.1009 0 37.3856C0.19516 37.6117 0.3936 37.8362 0.59696 38.0558C0.93808 38.4277 1.28904 38.7926 1.64984 39.1505C2.31677 39.8109 3.01432 40.4415 3.74248 41.0423C3.82995 40.2214 3.94803 39.4081 4.09672 38.6023C4.47718 36.5715 5.06345 34.5839 5.8466 32.6699Z" fill="#CC2036"/>
</g>
<defs>
<clipPath id="clip0_48_215">
<rect width="123" height="58" fill="white"/>
</clipPath>
</defs>
</svg>
