<svg width="172" height="76" viewBox="0 0 172 76" fill="none" xmlns="http://www.w3.org/2000/svg">
<path d="M56.0101 13.213C39.1381 20.487 25.3781 26.453 25.4281 26.469C25.4781 26.485 40.2491 22.113 58.2491 16.755L90.9801 7.01304L110.914 16.013C121.888 20.963 130.84 25.024 130.824 25.041C130.808 25.058 30.3951 27.008 25.1011 27.084L24.1781 27.101L24.8491 27.168C25.5491 27.244 148.015 29.375 148.603 29.324C148.903 29.299 145.683 27.763 118.021 14.667C101.014 6.61304 87.0111 0.0130406 86.8941 4.05879e-05C86.7591 -0.0159594 75.7351 4.69904 56.0101 13.213Z" fill="#0C54A0"/>
<path d="M23.4651 36.925V37.303L23.9521 37.353C24.187 37.3788 24.4165 37.4412 24.6321 37.538L24.8321 37.672L24.7741 41.539C24.7151 45.466 24.6651 46.212 24.4801 46.397C24.2843 46.4846 24.0734 46.5332 23.8591 46.54L23.3391 46.582L23.3141 46.934L23.2891 47.295H24.8331C25.6801 47.295 26.8381 47.32 27.4001 47.354L28.4241 47.404L28.3991 47.035L28.3741 46.666L27.8371 46.607C27.62 46.5954 27.4068 46.5442 27.2081 46.456C27.016 43.5298 27.0494 40.5931 27.3081 37.672C27.3841 37.529 27.5181 37.487 27.9961 37.437L28.5831 37.378V36.678L26.2091 36.661C24.9091 36.653 23.7591 36.619 23.6581 36.594C23.4821 36.556 23.4651 36.581 23.4651 36.925Z" fill="#0C54A0"/>
<path d="M29.6731 37.068C29.6731 37.42 29.6731 37.42 30.3731 37.513C30.4988 37.5274 30.6225 37.5556 30.7421 37.597C30.7986 37.7396 30.8353 37.8893 30.8511 38.042C30.9768 40.8176 30.91 43.5986 30.6511 46.365C30.5671 46.55 30.4661 46.592 30.0221 46.65L29.5021 46.726V47.38H30.6631C31.2921 47.38 32.4631 47.405 33.2631 47.439L34.7061 47.489V46.809L34.2701 46.75C33.4651 46.658 33.3551 46.616 33.2701 46.398C33.1507 43.5172 33.1928 40.632 33.3961 37.756C33.5825 37.7061 33.7741 37.6779 33.9671 37.672C34.2277 37.6162 34.4973 37.6179 34.7572 37.677C35.0171 37.736 35.2609 37.8511 35.4718 38.014C35.6827 38.177 35.8554 38.384 35.9781 38.6206C36.1008 38.8572 36.1704 39.1177 36.1821 39.384C36.3331 40.777 35.4271 41.817 34.2271 41.633C33.6901 41.557 33.5731 41.683 33.7821 42.094C33.9411 42.404 33.9671 42.421 34.5121 42.48C34.9782 42.5606 35.4558 42.5449 35.9156 42.4337C36.3754 42.3225 36.8075 42.1183 37.1852 41.8336C37.563 41.5489 37.8784 41.1898 38.1119 40.7784C38.3454 40.3671 38.4922 39.9122 38.5431 39.442C38.5974 39.1421 38.5877 38.8341 38.5147 38.5383C38.4416 38.2424 38.3067 37.9653 38.119 37.7253C37.9312 37.4852 37.6948 37.2876 37.4253 37.1453C37.1558 37.0031 36.8592 36.9195 36.5551 36.9C36.2551 36.858 34.5831 36.8 32.8471 36.783L29.6761 36.741L29.6731 37.068Z" fill="#0C54A0"/>
<path d="M44.104 36.899C42.8502 37.0004 41.6743 37.5482 40.79 38.443C40.2732 38.9546 39.8729 39.5717 39.6166 40.2522C39.3603 40.9328 39.254 41.6606 39.305 42.386C39.2516 43.3349 39.4485 44.2812 39.876 45.13C40.2078 45.7468 40.6664 46.2863 41.2218 46.7129C41.7771 47.1395 42.4166 47.4436 43.098 47.605C44.4895 47.8237 45.9066 47.8237 47.298 47.605C48.0077 47.4136 48.6721 47.0828 49.2526 46.632C49.833 46.1811 50.3179 45.6192 50.679 44.979C51.0946 44.1065 51.3171 43.1546 51.3316 42.1882C51.3461 41.2218 51.1522 40.2637 50.763 39.379C50.299 38.6471 49.6733 38.0314 48.934 37.579C47.4243 36.888 45.7459 36.6517 44.104 36.899ZM46.134 37.822C46.6215 37.91 47.079 38.119 47.4646 38.4298C47.8502 38.7407 48.1516 39.1434 48.341 39.601C49.0504 41.3844 49.0468 43.3723 48.331 45.153C48.0972 45.6242 47.7517 46.031 47.3247 46.3381C46.8977 46.6452 46.4021 46.8433 45.881 46.915C45.1744 46.9675 44.4652 46.8556 43.809 46.588C43.284 46.2659 42.8375 45.8305 42.5023 45.3137C42.167 44.7969 41.9513 44.2118 41.871 43.601C41.629 42.2059 41.7672 40.7713 42.271 39.448C42.6317 38.7767 43.2115 38.2491 43.9138 37.9532C44.6162 37.6574 45.3987 37.6111 46.131 37.822H46.134Z" fill="#0C54A0"/>
<path d="M52.3021 37.1181C52.2453 37.563 52.2256 38.0119 52.2431 38.4601V39.7441H52.6211C53.0321 39.7441 52.9731 39.8531 53.1411 38.7371L53.2081 38.2761L54.1311 38.2091C54.6169 38.1707 55.1046 38.1651 55.5911 38.1921L56.1201 38.2511L56.0611 40.9021C56.0021 43.9561 55.8851 46.6161 55.8011 46.8171C55.7421 46.9851 55.2721 47.1271 54.7861 47.1271H54.4251V47.8401L56.7151 47.8571C57.9651 47.8651 59.1571 47.8991 59.3581 47.9241L59.7101 47.9741V47.2271L59.1651 47.1681C58.3341 47.0761 58.3341 47.0681 58.3011 45.8091C58.2591 44.3411 58.4351 38.3841 58.5281 38.2911C59.4352 38.2538 60.3436 38.3128 61.2381 38.4671C61.3223 38.7127 61.3649 38.9706 61.3641 39.2301L61.4141 39.9101H62.1141L62.1811 39.1301C62.2151 38.7101 62.2731 38.1571 62.3071 37.9131C62.3488 37.7367 62.3616 37.5547 62.3451 37.3741C61.6482 37.2436 60.9357 37.218 60.2311 37.2981C58.2851 37.3321 52.7811 37.1891 52.4871 37.0981C52.4567 37.0878 52.4244 37.0843 52.3924 37.0877C52.3605 37.0912 52.3297 37.1015 52.3021 37.1181Z" fill="#0C54A0"/>
<path d="M63.1501 37.6551C63.1501 37.9991 63.1671 38.0161 63.8381 38.1081C64.0176 38.1208 64.1903 38.1816 64.3381 38.2841C64.4367 38.5876 64.485 38.9051 64.4811 39.2241C64.5151 40.0711 64.3641 45.6931 64.2711 46.5991C64.2211 47.1111 64.2211 47.1111 63.8181 47.3371C63.4991 47.5051 63.4071 47.6051 63.4071 47.7651V47.9651H64.3551C64.8671 47.9651 66.5451 48.0071 68.0631 48.0571C69.5811 48.1071 70.9631 48.1331 71.1251 48.1071L71.4251 48.0481L71.5251 46.9321C71.5841 46.3201 71.6511 45.7321 71.6841 45.6321C71.7261 45.4641 71.7011 45.4471 71.3571 45.4471H70.9791L70.7791 46.2191L70.5791 46.9991L69.6481 47.0661C69.0055 47.1081 68.3608 47.1081 67.7181 47.0661L66.7181 46.9991L66.6941 45.3241C66.6771 44.4011 66.6941 43.4871 66.7191 43.2851L66.7691 42.9331L67.5411 42.9411C68.2178 42.8915 68.8977 42.9685 69.5461 43.1681C69.6378 43.371 69.6835 43.5916 69.6801 43.8141L69.7141 44.3591H70.4521V43.2011C70.4521 42.5721 70.4771 41.8011 70.5111 41.4811L70.5611 40.9191H69.7891L69.7391 41.3891C69.6471 42.1111 69.6301 42.1191 68.0951 42.0891C67.638 42.0911 67.1812 42.0658 66.7271 42.0131C66.6771 41.9631 66.8441 38.4641 66.9031 38.4051C67.3385 38.369 67.7755 38.3576 68.2121 38.3711C69.0092 38.311 69.8104 38.4078 70.5701 38.6561C70.6511 38.8558 70.6909 39.0697 70.6871 39.2851L70.7211 39.8301H71.0481C71.3421 39.8301 71.3671 39.8131 71.4091 39.5531C71.4511 39.2431 71.6271 37.9421 71.6521 37.6901C71.6691 37.5391 71.6021 37.5141 70.9141 37.4721C70.5031 37.4381 68.5821 37.3961 66.6601 37.3801L63.1531 37.3381L63.1501 37.6551Z" fill="#0C54A0"/>
<path d="M72.7981 37.789C72.7981 38.167 72.8981 38.234 73.4781 38.234C73.6393 38.2326 73.7981 38.2729 73.9391 38.351C74.0901 38.46 74.0981 38.603 74.1241 40.516C74.1617 42.6773 74.0889 44.8391 73.9061 46.993C73.8221 47.303 73.7131 47.354 73.1171 47.421L72.6301 47.471V48.134H73.8301C74.4841 48.134 75.6171 48.159 76.3471 48.193L77.6641 48.243V47.555L77.2701 47.505C77.0639 47.4823 76.8595 47.4459 76.6581 47.396L76.4481 47.337L76.4231 45.256C76.4061 43.494 76.4231 43.184 76.5231 43.184C77.6132 44.2277 78.6165 45.3584 79.5231 46.565C80.0941 47.265 80.6471 47.933 80.7651 48.058L80.9751 48.293L82.6361 48.318L84.2891 48.352V47.991C84.2891 47.672 84.2721 47.63 84.0891 47.63C83.6891 47.63 83.3891 47.437 82.8561 46.85C81.6061 45.474 79.0221 42.386 78.8121 42.034C79.9304 40.8227 81.1673 39.7266 82.5041 38.762C82.7886 38.5448 83.1363 38.4268 83.4941 38.426L84.0391 38.376V37.646L82.6551 37.629C81.8911 37.629 81.2201 37.621 81.1701 37.612C81.1031 37.604 81.0531 37.738 81.0361 37.973C81.0111 38.325 80.9521 38.393 79.6521 39.693C78.8971 40.44 77.8731 41.405 77.3701 41.841L76.4471 42.63L76.4221 42.261C76.4141 42.051 76.4301 41.137 76.4721 40.214C76.5481 38.351 76.5641 38.314 77.1521 38.314C77.7401 38.314 77.8321 38.247 77.8321 37.886V37.559H76.4641C75.7091 37.559 74.5761 37.534 73.9471 37.5L72.7981 37.45V37.789Z" fill="#0C54A0"/>
<path d="M88.79 41.1032C87.9403 43.2989 86.9378 45.4325 85.79 47.4882C85.6196 47.5353 85.4457 47.5687 85.27 47.5882L84.884 47.6472V48.3851H86.545C87.451 48.3851 88.282 48.4102 88.391 48.4352C88.559 48.4852 88.576 48.4602 88.576 48.1082V47.7292L88.14 47.6702C87.385 47.5782 87.377 47.5702 87.418 47.1702C87.5098 46.7723 87.6332 46.3824 87.787 46.0042L88.106 45.1902H89.667C90.523 45.1902 91.412 45.2152 91.655 45.2402L92.091 45.2992L92.477 46.3482C92.6358 46.7297 92.7567 47.126 92.838 47.5312C92.821 47.6312 92.662 47.6822 92.251 47.7412L91.697 47.8082L91.655 48.1182C91.6398 48.2208 91.6315 48.3244 91.63 48.4282C91.638 48.4362 92.763 48.4622 94.139 48.4872L96.631 48.5462V47.8832L96.161 47.7912L95.691 47.6912L95.372 47.0112C95.196 46.6332 94.272 44.4181 93.316 42.0862C92.36 39.7542 91.554 37.8151 91.516 37.7861C91.307 37.7194 91.0894 37.6827 90.87 37.6772L90.292 37.6292L88.79 41.1032ZM90.829 42.1772C91.148 42.9822 91.475 43.7881 91.551 43.9562L91.677 44.2752H90.233C89.7118 44.2901 89.1901 44.2677 88.672 44.2082C88.588 44.1492 88.748 43.7081 89.343 42.3622C89.5772 41.7717 89.8549 41.1994 90.174 40.6502C90.208 40.6832 90.501 41.3712 90.829 42.1772Z" fill="#0C54A0"/>
<path d="M101.405 38.309C101.405 38.628 101.413 38.636 101.766 38.695C102.521 38.804 102.588 38.838 102.681 39.056C102.781 39.333 102.715 47.203 102.605 47.589C102.527 47.7767 102.392 47.9352 102.219 48.042C102.019 48.176 101.909 48.31 101.909 48.428V48.621L104.367 48.68C105.38 48.7315 106.394 48.7171 107.405 48.637C108.003 48.5512 108.572 48.3247 109.065 47.9761C109.558 47.6276 109.961 47.1669 110.241 46.632C110.463 46.249 110.556 45.8047 110.505 45.365C110.537 45.0494 110.497 44.7307 110.388 44.4328C110.279 44.1349 110.104 43.8656 109.876 43.645C109.426 43.2088 108.84 42.9397 108.215 42.882C107.703 42.815 107.603 42.723 107.98 42.647C108.229 42.5844 108.471 42.4973 108.702 42.387C109.147 42.2354 109.534 41.95 109.81 41.57C110.087 41.19 110.239 40.7338 110.246 40.264C110.263 39.9991 110.227 39.7334 110.139 39.4829C110.052 39.2323 109.915 39.0019 109.736 38.8054C109.558 38.6089 109.341 38.4503 109.1 38.3391C108.859 38.2279 108.598 38.1663 108.333 38.158C108.056 38.116 106.387 38.058 104.625 38.032L101.405 37.99V38.309ZM107.077 39.148C107.597 39.442 107.74 39.748 107.74 40.541C107.732 41.833 107.253 42.286 105.752 42.404L105.098 42.454V41.198C105.098 40.498 105.123 39.705 105.157 39.411L105.207 38.891L105.971 38.925C106.354 38.9017 106.736 38.9786 107.08 39.148H107.077ZM106.8 43.448C107.2 43.5961 107.539 43.8741 107.763 44.2376C107.986 44.6011 108.082 45.029 108.033 45.453C108.033 47.053 107.303 47.878 105.877 47.878C105.633 47.884 105.388 47.8673 105.147 47.828C105.03 47.786 105.013 47.528 105.013 45.828C105.013 44.762 105.038 43.747 105.072 43.563L105.122 43.236L105.822 43.295C106.154 43.3206 106.482 43.3731 106.805 43.452L106.8 43.448Z" fill="#0C54A0"/>
<path d="M117.065 38.4181C116.31 40.1971 113.776 45.9101 113.365 46.7661C113.192 47.1958 112.957 47.5973 112.665 47.9571C112.502 48.0204 112.328 48.0517 112.153 48.0491H111.809V48.8491L113.655 48.8661L115.501 48.8831V48.5561C115.501 48.1951 115.509 48.1951 114.721 48.0951C114.494 48.0611 114.301 47.9951 114.276 47.9271C114.335 47.3548 114.497 46.7979 114.754 46.2831L115.006 45.6371L116.952 45.6791C117.62 45.6762 118.288 45.7096 118.952 45.7791C119.011 45.8381 119.514 47.1971 119.665 47.6921C119.765 48.0191 119.757 48.0611 119.615 48.1371C119.414 48.1979 119.204 48.2263 118.994 48.2211H118.524V48.9731H120.396C121.428 48.9731 122.561 48.9981 122.913 49.0231L123.559 49.0821V48.3271L123.131 48.2771C122.945 48.2612 122.763 48.2128 122.594 48.1341C121.587 46.0765 120.688 43.9676 119.901 41.8161L118.401 38.1501H117.801C117.182 38.1501 117.182 38.1501 117.065 38.4181ZM117.845 42.9651C118.223 43.8801 118.525 44.6651 118.525 44.7021C117.683 44.7919 116.833 44.7919 115.991 44.7021L115.429 44.6521L116.243 42.8231C116.814 41.5141 117.065 41.0361 117.107 41.1451C117.14 41.2291 117.468 42.0511 117.845 42.9661V42.9651Z" fill="#0C54A0"/>
<path d="M124.314 38.6791V39.0651L124.801 39.1241C125.556 39.2161 125.64 39.2671 125.701 39.6951C125.777 40.1951 125.592 47.4051 125.501 47.8251C125.478 47.9579 125.433 48.0857 125.367 48.2031C125.169 48.2647 124.963 48.2983 124.755 48.3031L124.193 48.3451L124.168 48.6971L124.143 49.0581H125.556C126.336 49.0581 127.209 49.0831 127.494 49.1081L128.006 49.1671V48.4121L127.486 48.3531C127.258 48.3444 127.034 48.2843 126.832 48.1771C126.723 48.0681 126.706 47.6771 126.681 45.8451C126.673 44.6371 126.689 43.0681 126.723 42.3551L126.79 41.0711L127.335 41.7711C128.446 43.2181 133.09 48.6881 133.518 49.0741C133.985 49.2995 134.493 49.4252 135.011 49.4431C135.157 48.1452 135.208 46.8384 135.162 45.5331C135.229 41.0281 135.288 39.7101 135.43 39.5171C135.506 39.4171 135.698 39.3661 136.093 39.3411L136.647 39.3071V38.5691H135.162C134.34 38.5691 133.467 38.5441 133.232 38.5191L132.787 38.4601V39.2151L133.366 39.2741C133.603 39.2799 133.836 39.3401 134.046 39.4501C134.234 40.978 134.271 42.5209 134.155 44.0561L134.088 46.1451L132.905 44.7691C131.63 43.2921 129.465 40.6491 128.383 39.2571L127.712 38.4011H126.202C125.371 38.4011 124.608 38.3761 124.507 38.3511C124.331 38.3011 124.314 38.3261 124.314 38.6791Z" fill="#0C54A0"/>
<path d="M137.57 38.955V39.299L138.132 39.349C138.354 39.3578 138.573 39.4062 138.778 39.492C138.891 40.8118 138.919 42.1376 138.862 43.461C138.854 47.237 138.803 48.193 138.577 48.42C138.377 48.5009 138.163 48.5407 137.948 48.537L137.403 48.571V49.309H139.408C140.508 49.309 141.64 49.334 141.925 49.359L142.437 49.418V48.663L141.917 48.604C141.565 48.57 141.355 48.504 141.288 48.411C141.14 47.0506 141.134 45.6785 141.271 44.317C141.405 44.233 142.907 45.917 144.988 48.495L145.718 49.401L147.388 49.435L149.066 49.477V49.141C149.066 48.847 149.041 48.805 148.839 48.763C148.705 48.738 148.512 48.687 148.394 48.654C147.861 48.2068 147.372 47.7095 146.934 47.169C145.575 45.617 143.486 43.108 143.534 43.069C143.551 43.061 144.096 42.582 144.742 42.003C145.579 41.2355 146.455 40.5129 147.368 39.838C147.628 39.6882 147.917 39.5938 148.215 39.561L148.794 39.477L148.828 39.15L148.862 38.823H148.006C147.545 38.823 146.873 38.798 146.521 38.773L145.875 38.714V39.033C145.875 39.318 145.808 39.427 145.229 40.033C143.968 41.3565 142.625 42.6005 141.21 43.758C141.202 43.741 141.218 42.835 141.252 41.736C141.302 40.108 141.344 39.714 141.445 39.613C141.639 39.5012 141.859 39.4406 142.083 39.437L142.583 39.387L142.633 39.051C142.659 38.9355 142.67 38.8173 142.667 38.699C142.65 38.682 141.501 38.657 140.1 38.64L137.566 38.615L137.57 38.955Z" fill="#0C54A0"/>
<path d="M23.0122 55.2821C22.9872 55.5251 22.9622 56.6411 22.9622 57.7571V59.7891L24.1622 59.7471C24.8162 59.7221 52.6132 59.1471 85.9302 58.4551C141.976 57.2971 149.955 57.1131 149.149 57.0551C148.897 57.0301 24.3382 54.8481 23.4152 54.8481H23.0712L23.0122 55.2821Z" fill="#0C54A0"/>
<path d="M12.7671 64.9481C12.7331 66.4081 12.7251 67.6241 12.7501 67.6481C12.7751 67.6721 154.803 65.0771 158.628 64.9771L159.428 64.9521L158.792 64.8971C158.448 64.8631 126.205 64.2851 87.1411 63.6131C48.0771 62.9411 15.3851 62.3721 14.4791 62.3471L12.8351 62.2971L12.7671 64.9481Z" fill="#0C54A0"/>
<path d="M84.6871 71.165C38.1811 71.727 0.115103 72.214 0.090103 72.23C0.040103 72.28 -5.9099 72.18 88.2531 73.816C134.153 74.621 171.734 75.242 171.776 75.209C171.818 75.176 171.852 74.009 171.868 72.625L171.893 70.116L170.567 70.124C169.838 70.133 131.193 70.603 84.6871 71.165Z" fill="#0C54A0"/>
</svg>
