<svg width="152" height="42" viewBox="0 0 152 42" fill="none" xmlns="http://www.w3.org/2000/svg">
<path d="M5.79955 26.5455L0.0753188 8.97106H3.81615L7.93358 22.5033L12.051 8.97106H15.817L10.0927 26.5455H5.79955Z" fill="#4667CD"/>
<path d="M32.1773 15.8502C33.1146 16.3356 33.851 17.0302 34.3866 17.934C34.939 18.8211 35.2151 19.8253 35.2151 20.9468C35.2151 22.5368 34.6879 23.8675 33.6334 24.9387C32.579 26.0099 31.2567 26.5455 29.6666 26.5455H21.1556H20.3271V8.97106H23.7918H27.633C29.1394 8.97106 30.378 9.42298 31.3488 10.3268C32.3363 11.2306 32.83 12.3604 32.83 13.7161C32.83 14.4526 32.6124 15.1639 32.1773 15.8502ZM27.633 12.2098H23.7918V15.1723H28.8381C29.1896 14.8208 29.3654 14.394 29.3654 13.8919C29.3654 13.3898 29.2064 12.9881 28.8883 12.6868C28.5871 12.3688 28.1686 12.2098 27.633 12.2098ZM29.2147 23.3067C30.0349 23.3067 30.6625 23.0724 31.0977 22.6038C31.5329 22.1184 31.7505 21.5075 31.7505 20.771C31.7505 20.0178 31.5329 19.4069 31.0977 18.9383C30.6625 18.4696 30.0432 18.2353 29.2398 18.2353H23.7918V23.3067H29.2147ZM42.3847 13.6408C43.8576 13.6408 45.0795 14.076 46.0502 14.9464C47.021 15.8 47.5064 17.0051 47.5064 18.5617V26.5455H44.343V25.4659C43.5564 26.4199 42.4182 26.8969 40.9286 26.8969C39.7402 26.8969 38.7359 26.5538 37.9158 25.8676C37.1124 25.1646 36.7107 24.1855 36.7107 22.9302C36.7107 21.6748 37.1124 20.7041 37.9158 20.0178C38.7359 19.3316 39.7402 18.9885 40.9286 18.9885C42.3513 18.9885 43.4894 19.3567 44.343 20.0931V18.7625C44.343 17.3566 43.6903 16.6536 42.3847 16.6536C41.7989 16.6536 41.3303 16.8042 40.9788 17.1055C40.6273 17.39 40.4515 17.775 40.4515 18.2604H37.2882C37.2882 16.8377 37.7735 15.7163 38.7443 14.8961C39.7318 14.0593 40.9453 13.6408 42.3847 13.6408ZM42.0332 24.4867C42.7362 24.4867 43.2969 24.3445 43.7154 24.0599C44.1338 23.7587 44.343 23.3821 44.343 22.9302C44.343 22.4448 44.1338 22.0682 43.7154 21.8004C43.3137 21.5158 42.753 21.3736 42.0332 21.3736C41.347 21.3736 40.8281 21.5158 40.4766 21.8004C40.1252 22.0849 39.9494 22.4615 39.9494 22.9302C39.9494 23.3988 40.1252 23.7754 40.4766 24.0599C40.8281 24.3445 41.347 24.4867 42.0332 24.4867ZM56.7904 13.6408C57.9788 13.6408 58.9496 14.076 59.7028 14.9464C60.4727 15.8167 60.8576 17.0051 60.8576 18.5114V26.5455H57.6189V18.7625C57.6189 18.0763 57.4348 17.5574 57.0666 17.2059C56.6984 16.8377 56.2214 16.6536 55.6355 16.6536C54.9493 16.6536 54.397 16.8712 53.9785 17.3063C53.5768 17.7248 53.376 18.3775 53.376 19.2646V26.5455H50.1373V13.9923H53.376V15.2727C54.0957 14.1848 55.2338 13.6408 56.7904 13.6408ZM74.8726 26.5455H71.1318L66.7382 20.8714V26.5455H63.4995V8.97106H66.7382V19.5157L70.8807 13.9923H74.6216L69.8514 20.1936L74.8726 26.5455ZM78.3718 21.5995C78.5727 22.4531 78.9744 23.1059 79.5769 23.5578C80.1962 23.993 80.9243 24.2106 81.7612 24.2106C82.3302 24.2106 82.8491 24.0934 83.3178 23.8591C83.7864 23.6248 84.1295 23.3235 84.3471 22.9553L87.5356 22.9302C87.1506 24.1855 86.4393 25.1646 85.4016 25.8676C84.3806 26.5538 83.1588 26.8969 81.7361 26.8969C79.7276 26.8969 78.104 26.2693 76.8654 25.014C75.6269 23.7587 75.0076 22.177 75.0076 20.2689C75.0076 18.3775 75.6269 16.8042 76.8654 15.5489C78.104 14.2769 79.7025 13.6408 81.6607 13.6408C83.4851 13.6408 84.9831 14.2769 86.1548 15.5489C87.3264 16.821 87.9122 18.3943 87.9122 20.2689C87.9122 20.8045 87.8704 21.248 87.7867 21.5995H78.3718ZM78.3467 19.0638H84.6735C84.4894 18.2102 84.1212 17.5825 83.5688 17.1808C83.0165 16.7624 82.3721 16.5532 81.6356 16.5532C80.782 16.5532 80.0707 16.7707 79.5016 17.2059C78.9325 17.6411 78.5476 18.2604 78.3467 19.0638ZM89.7359 26.5455V22.9553H93.301V26.5455H89.7359ZM103.534 13.9923H106.773V26.5455H103.534V25.2399C102.814 26.3446 101.676 26.8969 100.119 26.8969C98.9142 26.8969 97.9267 26.4618 97.1568 25.5914C96.4036 24.7043 96.027 23.5076 96.027 22.0012V13.9923H99.2657V21.7753C99.2657 22.4615 99.4498 22.9887 99.8181 23.357C100.186 23.7084 100.663 23.8842 101.249 23.8842C101.935 23.8842 102.488 23.675 102.906 23.2565C103.325 22.8214 103.534 22.1519 103.534 21.248V13.9923ZM113.431 23.5076H119.004V26.5455H109.087V24.3863L114.385 17.0302H109.338V13.9923H118.753V16.1515L113.431 23.5076Z" fill="#040827"/>
<line x1="0.812836" y1="41.5936" x2="152" y2="41.5936" stroke="#202440" stroke-width="0.812834"/>
</svg>
