<svg width="50" height="74" viewBox="0 0 50 74" fill="none" xmlns="http://www.w3.org/2000/svg">
<path d="M16.7772 73.054V3.606C19.2634 2.2127 21.8503 1.00734 24.5162 0C27.3477 0.918961 30.0512 2.19312 32.5622 3.792V73.054H16.7772ZM23.9302 68.854C28.1016 69.09 30.2579 67.371 30.3992 63.697C30.4409 62.8593 30.2451 62.0269 29.8345 61.2955C29.4239 60.5642 28.8151 59.9636 28.0782 59.563C28.582 59.0517 28.9683 58.4368 29.21 57.761C29.4518 57.0852 29.5434 56.3648 29.4782 55.65C29.4542 53.23 28.0172 51.8917 25.1672 51.635H19.5772C19.4436 51.6379 19.3165 51.693 19.223 51.7885C19.1295 51.884 19.0772 52.0124 19.0772 52.146V53.646C19.0772 53.7796 19.1295 53.908 19.223 54.0035C19.3165 54.099 19.4436 54.1541 19.5772 54.157H20.9652V66.341H19.5752C19.4416 66.3436 19.3142 66.3987 19.2207 66.4942C19.1272 66.5898 19.075 66.7183 19.0752 66.852V68.343C19.0755 68.4766 19.1279 68.6048 19.2213 68.7002C19.3147 68.7957 19.4417 68.8509 19.5752 68.854H21.5092C21.5252 68.854 21.5352 68.872 21.5522 68.872H23.2022C23.2192 68.872 23.2282 68.855 23.2452 68.854H23.9302ZM34.3112 73.048V4.651C40.7052 7.75033 44.3469 11.525 45.2362 15.975C48.1329 16.2843 49.5502 18.404 49.4882 22.334V73.048H34.3112ZM36.1372 52.148V53.639C36.1375 53.7726 36.1899 53.9008 36.2833 53.9962C36.3767 54.0917 36.5037 54.1469 36.6372 54.15H37.7252V64.1C37.7041 64.3732 37.7091 64.6478 37.7402 64.92C37.7959 65.4621 37.9584 65.9877 38.2183 66.4667C38.4782 66.9456 38.8304 67.3684 39.2545 67.7105C39.6786 68.0526 40.1663 68.3074 40.6894 68.4601C41.2125 68.6127 41.7607 68.6603 42.3022 68.6C42.6075 68.6344 42.9158 68.6311 43.2202 68.59C44.2464 68.4416 45.1726 67.8947 45.7981 67.0678C46.4235 66.2409 46.6977 65.2008 46.5612 64.173C46.5612 64.167 46.5672 64.163 46.5672 64.157V54.153H47.5372C47.6709 54.1501 47.798 54.095 47.8915 53.9995C47.985 53.904 48.0373 53.7756 48.0372 53.642V52.151C48.037 52.0174 47.9846 51.8892 47.8912 51.7938C47.7978 51.6983 47.6708 51.6431 47.5372 51.64H43.3232C43.1896 51.6429 43.0625 51.698 42.969 51.7935C42.8755 51.889 42.8232 52.0174 42.8232 52.151V53.642C42.8232 53.7756 42.8755 53.904 42.969 53.9995C43.0625 54.095 43.1896 54.1501 43.3232 54.153H44.0282V63.837C44.0676 65.837 43.5262 66.8103 42.4042 66.757C41.2862 66.757 40.6802 65.826 40.5512 64.027V54.153H40.8512C40.9848 54.1499 41.1118 54.0947 41.2052 53.9992C41.2986 53.9038 41.351 53.7756 41.3512 53.642V52.151C41.351 52.0174 41.2986 51.8892 41.2052 51.7938C41.1118 51.6983 40.9848 51.6431 40.8512 51.64H36.6372C36.5035 51.6429 36.3763 51.6979 36.2826 51.7934C36.189 51.8889 36.1365 52.0173 36.1362 52.151L36.1372 52.148ZM0.00224618 73.048V22.335C-0.0644205 18.4057 1.35291 16.286 4.25425 15.976C5.14491 11.5253 8.78758 7.75033 15.1822 4.651V73.051L0.00224618 73.048ZM9.94625 68.856C10.0282 68.856 10.1012 68.841 10.1792 68.834C10.1962 68.834 10.2062 68.853 10.2232 68.853H11.6822C11.8157 68.8501 11.9427 68.7952 12.0361 68.6999C12.1296 68.6045 12.182 68.4765 12.1822 68.343V54.153H13.0562C13.1899 54.1501 13.317 54.095 13.4105 53.9995C13.504 53.904 13.5563 53.7756 13.5562 53.642V52.151C13.556 52.0174 13.5036 51.8892 13.4102 51.7938C13.3168 51.6983 13.1898 51.6431 13.0562 51.64H8.84925C8.71572 51.6431 8.5887 51.6983 8.49529 51.7938C8.40188 51.8892 8.34947 52.0174 8.34925 52.151V53.642C8.34922 53.7756 8.40154 53.904 8.495 53.9995C8.58847 54.095 8.71564 54.1501 8.84925 54.153H9.72625V61.447L6.33325 52.205C6.26042 52.0412 6.14289 51.9012 5.99415 51.8011C5.8454 51.7009 5.67145 51.6448 5.49225 51.639H2.12825C1.99472 51.6421 1.8677 51.6973 1.77429 51.7928C1.68088 51.8882 1.62847 52.0164 1.62825 52.15V53.65C1.62822 53.7836 1.68054 53.912 1.774 54.0075C1.86747 54.103 1.99464 54.1581 2.12825 54.161H3.51525V66.341H2.12825C1.99472 66.3441 1.8677 66.3993 1.77429 66.4948C1.68088 66.5902 1.62847 66.7184 1.62825 66.852V68.343C1.62872 68.4765 1.68121 68.6045 1.77457 68.6999C1.86793 68.7954 1.9948 68.8506 2.12825 68.854H7.36125C7.49477 68.8509 7.62179 68.7957 7.7152 68.7002C7.80861 68.6048 7.86102 68.4766 7.86125 68.343V66.851C7.86128 66.7174 7.80895 66.589 7.71549 66.4935C7.62202 66.398 7.49486 66.3429 7.36125 66.34H5.97425V59.626L9.18525 68.319L9.14925 68.31C9.21766 68.4671 9.32904 68.6017 9.47057 68.6983C9.6121 68.7949 9.77802 68.8495 9.94925 68.856H9.94625ZM24.8112 66.342H24.8062H23.7922V60.714C25.9589 60.6473 27.0022 61.661 26.9222 63.755C26.9582 63.9269 26.9734 64.1025 26.9672 64.278C26.9533 64.8274 26.7265 65.3499 26.3347 65.7353C25.9429 66.1208 25.4168 66.339 24.8672 66.344L24.8112 66.342ZM23.7922 58.954V53.7C25.6922 53.675 26.5642 54.67 26.3812 56.7C26.4207 57.0074 26.3891 57.3198 26.2889 57.6131C26.1886 57.9064 26.0224 58.1728 25.8031 58.3918C25.5837 58.6108 25.317 58.7765 25.0235 58.8762C24.7301 58.976 24.4176 59.007 24.1102 58.967C24.0076 58.9657 23.9016 58.9613 23.7922 58.954Z" fill="#143E6E"/>
</svg>
