<svg width="532" height="63" viewBox="0 0 532 63" fill="none" xmlns="http://www.w3.org/2000/svg">
<path fill-rule="evenodd" clip-rule="evenodd" d="M117.775 20.1817C116.18 17.7955 113.925 15.9303 111.287 14.8159C106.406 12.9838 101.03 12.9838 96.1489 14.8159C93.5147 15.9357 91.2608 17.7998 89.6611 20.1817C87.4481 23.7817 86.3075 27.9429 86.3739 32.1735C86.2415 34.9466 86.6986 37.7163 87.7147 40.2983C88.9237 43.6412 91.2064 46.4845 94.2025 48.3797C97.1363 50.0175 100.437 50.8769 103.794 50.8769C107.15 50.8769 110.451 50.0175 113.385 48.3797C116.381 46.4845 118.664 43.6412 119.873 40.2983C120.829 37.7024 121.249 34.9377 121.105 32.1735C121.167 27.9375 120.011 23.7736 117.775 20.1817ZM111.72 40.9717C110.859 42.3217 109.674 43.4324 108.274 44.2018C106.873 44.9711 105.303 45.3744 103.707 45.3744C102.111 45.3744 100.541 44.9711 99.1408 44.2018C97.7406 43.4324 96.5556 42.3217 95.6947 40.9717C94.4459 38.3558 93.8097 35.4873 93.8349 32.5862C93.7716 30.4379 93.9898 28.2905 94.4837 26.1993C94.7911 24.7319 95.4473 23.361 96.3962 22.2035C97.3452 21.046 98.5587 20.1362 99.9334 19.5517C102.385 18.7411 105.03 18.7411 107.481 19.5517C108.856 20.1362 110.069 21.046 111.018 22.2035C111.967 23.361 112.623 24.7319 112.931 26.1993C113.414 28.2923 113.632 30.4383 113.579 32.5862C113.605 35.4873 112.968 38.3558 111.72 40.9717Z" fill="#404A71"/>
<path fill-rule="evenodd" clip-rule="evenodd" d="M216.714 49.2269H212.692C212.637 49.2222 212.585 49.2038 212.54 49.1734C212.494 49.143 212.457 49.1017 212.432 49.0531C211.075 45.8951 209.245 42.9645 207.004 40.3635C204.409 37.1266 201.857 33.8462 199.284 30.6093C199.184 30.5313 199.075 30.4657 198.959 30.4138V30.9786C198.959 35.519 198.959 40.0376 198.959 44.5779C198.974 45.4589 199.097 46.3346 199.327 47.1848C199.418 47.6765 199.636 48.1357 199.958 48.5168C200.281 48.8979 200.697 49.1876 201.165 49.3573H192.644C193.283 48.8945 193.783 48.2655 194.092 47.5382C194.4 46.8108 194.506 46.0127 194.396 45.2297C194.396 41.6452 194.396 38.0824 194.396 34.4979C194.396 32.0214 194.396 29.5666 194.396 27.09C194.474 25.9536 194.216 24.8194 193.654 23.8299C193.092 22.8405 192.252 22.0398 191.239 21.5286L190.871 21.2462H198.959C199.07 21.2371 199.181 21.2586 199.28 21.3084C199.379 21.3582 199.462 21.4344 199.521 21.5286C203.602 26.8728 207.703 32.2097 211.827 37.5393L212.065 37.8217V37.4742C212.065 33.39 212.065 29.3276 212.065 25.2435C212.068 24.4043 211.891 23.5743 211.546 22.8104C211.26 22.1227 210.716 21.5762 210.032 21.2897H218.444C217.867 21.6716 217.398 22.1956 217.08 22.8116C216.762 23.4277 216.606 24.1153 216.628 24.809C216.595 25.3154 216.595 25.8233 216.628 26.3297V49.2269H216.714Z" fill="#404A71"/>
<path fill-rule="evenodd" clip-rule="evenodd" d="M153.264 21.0724H162.93C162.261 21.5227 161.731 22.1518 161.398 22.8887C161.066 23.6257 160.945 24.4412 161.049 25.2434C161.049 28.7193 161.049 32.1952 161.049 35.671C161.049 38.669 161.049 41.6669 161.049 44.6648C161.056 45.2976 161.106 45.9291 161.2 46.5548C161.24 47.1026 161.417 47.6313 161.716 48.0911C162.015 48.551 162.426 48.9269 162.909 49.1835H153.35C153.894 48.8914 154.349 48.456 154.665 47.924C154.981 47.3919 155.147 46.7834 155.145 46.1638C155.188 45.5925 155.188 45.0188 155.145 44.4476C155.145 38.2345 155.145 32.0214 155.145 25.8083C155.139 25.1611 155.088 24.5151 154.994 23.8748C154.957 23.3008 154.78 22.7448 154.478 22.256C154.176 21.7671 153.759 21.3606 153.264 21.0724Z" fill="#404A71"/>
<path fill-rule="evenodd" clip-rule="evenodd" d="M168.683 21.0724H186.913V28.35C186.675 27.8503 186.481 27.3724 186.221 26.9379C185.895 26.3427 185.416 25.8457 184.834 25.4983C184.252 25.1508 183.589 24.9653 182.913 24.961C180.945 24.961 178.977 24.961 177.009 24.961H176.879V32.999C178.695 32.999 180.512 32.999 182.329 32.999C182.761 33.0061 183.189 32.8996 183.568 32.6901C183.947 32.4805 184.265 32.1751 184.491 31.8041V38.1693C184.213 37.7796 183.841 37.4675 183.41 37.2623C182.978 37.057 182.502 36.9655 182.026 36.9962C180.317 36.9962 178.587 36.9962 176.836 36.9962V45.3166C178.998 45.3166 181.161 45.3166 183.194 45.3166C184.269 45.3104 185.319 44.9911 186.218 44.3973C187.116 43.8035 187.823 42.9607 188.254 41.971C188.325 41.8315 188.429 41.712 188.557 41.6234C188.146 44.1434 187.714 46.6634 187.303 49.2269H169.137C169.723 48.8322 170.199 48.294 170.521 47.6631C170.843 47.0321 170.999 46.3292 170.975 45.6207C171.018 44.8175 171.018 44.0125 170.975 43.2093C170.975 37.4162 170.975 31.681 170.975 26.0038C170.998 25.2988 170.955 24.5932 170.845 23.8966C170.768 23.2751 170.526 22.6857 170.146 22.1893C169.766 21.6928 169.261 21.3073 168.683 21.0724Z" fill="#404A71"/>
<path fill-rule="evenodd" clip-rule="evenodd" d="M136.958 34.3241C135.855 34.3241 134.795 34.3241 133.606 34.3241V24.9176C135.215 24.8124 136.832 24.9367 138.407 25.2869C139.282 25.608 140.03 26.2044 140.541 26.9872C141.051 27.7701 141.296 28.6976 141.24 29.6317C141.287 30.2272 141.212 30.8261 141.019 31.3911C140.826 31.9561 140.519 32.4749 140.117 32.9153C139.715 33.3557 139.227 33.7081 138.684 33.9505C138.14 34.1929 137.553 34.3201 136.958 34.3241ZM146.517 46.7069C145.176 44.5345 143.9 42.1014 142.624 39.7986C142.134 38.797 141.442 37.9091 140.591 37.1917C142.292 36.9594 143.863 36.1497 145.043 34.8971C146.223 33.6445 146.942 32.0242 147.079 30.3052C147.224 28.7892 146.939 27.2629 146.258 25.9023C145.577 24.5417 144.527 23.4021 143.229 22.6148C141.492 21.6456 139.529 21.1583 137.542 21.2027H125.799C126.32 21.4607 126.772 21.8396 127.118 22.3081C127.464 22.7765 127.694 23.321 127.788 23.8965C127.934 24.6118 128.014 25.339 128.026 26.069C128.026 32.0069 128.026 37.9231 128.026 43.8176C128.026 44.491 128.026 45.1862 128.026 45.8379C128.03 46.4979 127.862 47.1475 127.54 47.7227C127.217 48.2979 126.752 48.7788 126.188 49.1183H135.595C135.224 48.9466 134.895 48.6936 134.633 48.3779C134.371 48.0622 134.183 47.6917 134.082 47.2934C133.891 46.6648 133.775 46.0158 133.736 45.36C133.736 43.0138 133.736 40.6676 133.736 38.3431C133.736 38.3431 133.736 38.1693 133.736 38.1041C134.197 37.9856 134.685 38.0236 135.123 38.2121C135.561 38.4007 135.925 38.7293 136.158 39.1469C136.373 39.4525 136.568 39.7718 136.742 40.1027C138.284 42.9993 139.798 45.8958 141.283 48.7924C141.326 48.9028 141.405 48.9953 141.507 49.0545C141.609 49.1138 141.729 49.1362 141.845 49.1183H149.22C148.075 48.641 147.124 47.7919 146.517 46.7069Z" fill="#404A71"/>
<path fill-rule="evenodd" clip-rule="evenodd" d="M222.358 28.5672C222.575 26.0255 222.791 23.5707 223.007 21.0724H246.147C246.342 23.549 246.536 26.0255 246.731 28.5672C246.471 28.0241 246.234 27.5245 245.974 27.0683C245.662 26.4407 245.189 25.9083 244.603 25.5263C244.018 25.1444 243.341 24.9267 242.644 24.8959C240.935 24.8959 239.227 24.8959 237.518 24.8959V44.1869C237.462 45.3827 237.639 46.578 238.037 47.7062C238.287 48.3427 238.766 48.862 239.378 49.1617H229.776C230.352 48.7629 230.816 48.2214 231.123 47.5896C231.43 46.9579 231.569 46.2572 231.528 45.5555C231.56 45.0491 231.56 44.5412 231.528 44.0348V24.9176H226.251C225.629 24.9172 225.019 25.0895 224.489 25.4153C223.959 25.7412 223.528 26.208 223.245 26.7641C222.964 27.329 222.748 27.9155 222.358 28.5672Z" fill="#404A71"/>
<path fill-rule="evenodd" clip-rule="evenodd" d="M331.246 37.9738L334.944 28.111C336.198 31.4348 337.453 34.6283 338.707 37.9738H331.246ZM340.199 47.7931H350.342C349.82 47.3964 349.341 46.9448 348.915 46.4462C348.242 45.5251 347.67 44.5346 347.206 43.4917C345.8 40.1679 344.481 36.8007 343.14 33.4552L338.296 21.42C338.27 21.305 338.203 21.2036 338.107 21.1354C338.011 21.0672 337.894 21.0371 337.777 21.0507H333.841C333.56 21.0507 333.409 21.0507 333.322 21.3983C333.236 21.7459 332.955 22.3541 332.76 22.8321C330.28 29.3203 327.779 35.8376 325.256 42.3838C324.649 44.5073 323.411 46.3943 321.709 47.7931H330.057C329.585 47.6046 329.194 47.2553 328.953 46.8065C328.712 46.3577 328.635 45.8379 328.737 45.3383C329.062 44.0348 329.494 42.7531 329.884 41.4714H339.853C339.853 41.4714 340.091 41.6234 340.134 41.7321C340.502 42.7097 340.891 43.6872 341.216 44.6866C341.364 45.1361 341.452 45.6038 341.475 46.0769C341.484 46.465 341.363 46.8449 341.132 47.1559C340.9 47.467 340.572 47.6913 340.199 47.7931Z" fill="#404A71"/>
<path fill-rule="evenodd" clip-rule="evenodd" d="M300.45 29.9141V30.4138C300.45 34.7586 300.45 39.1034 300.45 43.4483C300.486 44.313 300.61 45.1719 300.818 46.0117C300.923 46.4624 301.141 46.8787 301.452 47.2209C301.762 47.563 302.154 47.8199 302.591 47.9669H294.244C294.736 47.697 295.148 47.3022 295.44 46.8218C295.733 46.3414 295.894 45.7924 295.909 45.2297C295.952 44.5641 295.952 43.8965 295.909 43.231C295.909 37.6697 295.909 32.1083 295.909 26.5252C295.985 25.588 295.808 24.6476 295.397 23.8028C294.986 22.958 294.356 22.24 293.573 21.7241C293.249 21.5069 292.903 21.2897 292.514 21.0724H300.602C300.712 21.0656 300.822 21.0882 300.921 21.1377C301.019 21.1873 301.103 21.2622 301.164 21.3548L310.29 32.8903C311.285 34.1503 312.28 35.3886 313.253 36.6486L313.426 36.8876V36.4531C313.426 32.6079 313.426 28.7628 313.426 24.9176C313.385 24.1231 313.224 23.3395 312.95 22.5931C312.823 22.2472 312.621 21.9336 312.359 21.6746C312.098 21.4156 311.783 21.2174 311.436 21.0941H319.698C319.183 21.3664 318.748 21.7674 318.434 22.2584C318.119 22.7494 317.936 23.3137 317.903 23.8965C317.805 24.5362 317.762 25.183 317.773 25.83V47.7931H313.945C313.87 47.7923 313.795 47.7743 313.728 47.7404C313.661 47.7065 313.602 47.6577 313.556 47.5976C312.613 45.2443 311.323 43.0472 309.728 41.0803C306.722 37.3221 303.673 33.6072 300.645 29.8707L300.45 29.9141Z" fill="#404A71"/>
<path fill-rule="evenodd" clip-rule="evenodd" d="M278.803 21.0724H288.34C287.689 21.4974 287.169 22.0972 286.841 22.8038C286.512 23.5103 286.387 24.2953 286.48 25.0697C286.48 28.35 286.48 31.5869 286.48 34.9107V43.7741C286.495 44.393 286.553 45.01 286.653 45.6207C286.702 46.1462 286.882 46.6509 287.177 47.0877C287.472 47.5246 287.872 47.8793 288.34 48.119H278.976C279.511 47.8348 279.958 47.4096 280.271 46.8891C280.583 46.3685 280.749 45.7723 280.749 45.1645C280.781 44.5566 280.781 43.9475 280.749 43.3397V25.6345C280.746 25.0078 280.688 24.3827 280.576 23.7662C280.527 23.2044 280.339 22.6639 280.029 22.1935C279.72 21.7231 279.298 21.3378 278.803 21.0724Z" fill="#404A71"/>
<path fill-rule="evenodd" clip-rule="evenodd" d="M271.277 35.4972C270.967 34.9838 270.528 34.5611 270.004 34.2714C269.481 33.9817 268.89 33.8351 268.293 33.8462C266.13 33.8462 263.967 33.8462 261.805 33.8462H261.675V34.3893C261.675 37.3221 261.675 40.2548 261.675 43.079C261.71 44.2057 261.855 45.3262 262.108 46.4245C262.203 46.9528 262.426 47.4494 262.758 47.87C263.09 48.2907 263.52 48.6225 264.011 48.8358H251.727C252.421 48.4851 253.008 47.953 253.427 47.2955C253.846 46.638 254.08 45.8793 254.106 45.0993C254.21 44.2925 254.261 43.4797 254.257 42.6662V20.3555C254.258 19.6655 254.215 18.9762 254.128 18.2917C254.076 17.4342 253.787 16.6082 253.295 15.906C252.802 15.2039 252.124 14.6534 251.338 14.3162H274.413V23.2665L274.024 22.4627C273.627 21.4778 272.949 20.6326 272.076 20.0334C271.202 19.4343 270.172 19.108 269.114 19.0955C266.692 18.9652 264.249 19.0955 261.805 19.0955H261.675V29.1103H262.086C263.816 29.1103 265.546 29.1103 267.276 29.1103C267.893 29.0809 268.507 29.0083 269.114 28.8931C269.562 28.8166 269.987 28.6429 270.361 28.3839C270.734 28.125 271.047 27.7872 271.277 27.3941V35.4972Z" fill="#404A71"/>
<path fill-rule="evenodd" clip-rule="evenodd" d="M361.976 48.1407H353.477C354.009 47.822 354.45 47.3705 354.757 46.8299C355.064 46.2893 355.227 45.6782 355.229 45.0559C355.262 44.4263 355.262 43.7954 355.229 43.1658C355.229 37.5827 355.229 31.9996 355.229 26.4165C355.276 25.4889 355.076 24.5654 354.651 23.7407C354.225 22.9161 353.589 22.2201 352.807 21.7241C352.504 21.5069 352.136 21.2896 351.747 21.0507H359.857C359.958 21.0449 360.06 21.0659 360.151 21.1117C360.242 21.1574 360.319 21.2262 360.376 21.3114C364.427 26.4383 368.478 31.5724 372.53 36.7138L372.789 37.0179V36.7138C372.789 32.76 372.789 28.8279 372.789 24.8741C372.731 24.1335 372.578 23.4034 372.335 22.7017C372.208 22.3419 372.005 22.0139 371.74 21.7402C371.475 21.4664 371.154 21.2535 370.8 21.1159H379.104C378.633 21.3793 378.232 21.7546 377.938 22.2089C377.644 22.6633 377.465 23.183 377.417 23.7227C377.312 24.442 377.261 25.1682 377.266 25.8952V48.1407H373.2C372.548 46.7788 371.826 45.4518 371.038 44.1652C369.87 42.4272 368.594 40.7762 367.296 39.1469C364.896 36.149 362.452 33.1728 360.03 30.1965L359.878 30.0227C359.87 30.1674 359.87 30.3125 359.878 30.4572C359.878 34.8021 359.878 39.1903 359.878 43.6221C359.882 44.2415 359.94 44.8593 360.051 45.4686C360.102 46.0471 360.308 46.601 360.647 47.0715C360.986 47.5419 361.445 47.9114 361.976 48.1407Z" fill="#404A71"/>
<path fill-rule="evenodd" clip-rule="evenodd" d="M401.963 29.1972C401.442 28.5372 400.886 27.9063 400.297 27.3072C399.118 26.1452 397.605 25.3852 395.972 25.1348C394.977 24.9683 393.956 25.0657 393.01 25.4172C392.528 25.5625 392.096 25.8387 391.761 26.2154C391.426 26.592 391.201 27.0544 391.112 27.5514C391.022 28.0483 391.071 28.5605 391.254 29.0312C391.436 29.5019 391.744 29.9127 392.144 30.2183C392.889 30.8145 393.694 31.3314 394.545 31.7607C395.951 32.4993 397.4 33.151 398.87 33.9331C400.029 34.5291 401.075 35.323 401.963 36.2793C402.737 37.1244 403.302 38.1417 403.61 39.248C403.918 40.3543 403.962 41.5182 403.736 42.6445C403.511 44.0463 402.893 45.3547 401.955 46.4166C401.017 47.4785 399.797 48.2498 398.438 48.6404C395.956 49.4672 393.305 49.6392 390.739 49.14C389.068 48.8908 387.456 48.3387 385.981 47.5107C385.92 47.4716 385.868 47.4207 385.827 47.3611C385.786 47.3014 385.758 47.2341 385.743 47.1631C385.743 44.73 385.743 42.2969 385.743 39.8421L386.003 40.3417C386.831 42.231 388.293 43.7685 390.133 44.6866C392.002 45.5796 394.143 45.7043 396.102 45.0341C396.778 44.8783 397.372 44.4771 397.771 43.9077C398.171 43.3384 398.346 42.6409 398.265 41.9493C398.22 41.4725 398.065 41.0126 397.814 40.6056C397.563 40.1986 397.221 39.8555 396.816 39.6031C395.803 38.9263 394.757 38.3027 393.68 37.7348C392.296 36.9528 390.847 36.2793 389.506 35.4321C387.871 34.5454 386.651 33.0464 386.111 31.261C385.587 29.4811 385.74 27.5693 386.539 25.8957C387.338 24.2222 388.726 22.9061 390.436 22.2021C393.073 21.0922 396.004 20.901 398.762 21.659C399.821 21.8933 400.831 22.3124 401.746 22.8972C401.814 22.9409 401.872 22.9982 401.917 23.0655C401.962 23.1328 401.992 23.2087 402.006 23.2883L401.963 29.1972Z" fill="#404A71"/>
<path fill-rule="evenodd" clip-rule="evenodd" d="M512.104 35.4538V35.8014C512.104 38.7124 512.104 41.6234 512.104 44.491C512.144 45.2322 512.289 45.9638 512.536 46.6634C512.645 47.0028 512.827 47.3135 513.07 47.5728C513.313 47.8322 513.611 48.0336 513.942 48.1624H504.297C504.892 47.7971 505.379 47.2777 505.706 46.6586C506.034 46.0394 506.189 45.3433 506.157 44.6431C506.178 44.2234 506.178 43.8028 506.157 43.3831C506.157 37.561 506.157 31.739 506.157 26.0038C506.226 25.083 506.19 24.1572 506.049 23.2448C505.974 22.7718 505.782 22.3252 505.491 21.9457C505.2 21.5663 504.819 21.266 504.383 21.0724H514.007C513.428 21.4268 512.959 21.9349 512.65 22.5406C512.34 23.1463 512.204 23.8261 512.255 24.5048C512.255 27.2638 512.255 30.0445 512.255 32.8034V33.0641L513.964 31.1958C515.824 29.1321 517.727 27.09 519.543 24.9827C520.091 24.3221 520.549 23.5916 520.906 22.8103C521.338 21.9196 521.165 21.5286 520.322 20.9855H530.464L529.88 21.2245C528.468 21.8774 527.186 22.7828 526.096 23.8965C524.236 25.7865 522.441 27.7417 520.624 29.6752C519.543 30.8265 518.462 31.9996 517.402 33.1945L519.327 35.671C521.49 38.5169 523.782 41.3845 526.074 44.1869C527.35 45.8004 528.912 47.163 530.681 48.2058H522.311C522.201 48.2126 522.091 48.1901 521.992 48.1405C521.894 48.0909 521.81 48.0161 521.749 47.9234L512.536 35.8883L512.104 35.4538Z" fill="#404A71"/>
<path fill-rule="evenodd" clip-rule="evenodd" d="M479.751 29.9793V43.5786C479.75 44.2137 479.816 44.8471 479.946 45.4686C480.002 46.0574 480.219 46.619 480.575 47.0908C480.93 47.5626 481.408 47.9261 481.957 48.1407H473.307C473.841 47.8305 474.285 47.3838 474.593 46.8459C474.9 46.308 475.061 45.6979 475.058 45.0776C475.101 44.4411 475.101 43.8024 475.058 43.1658C475.058 37.5827 475.058 31.9996 475.058 26.4165C475.11 25.5001 474.924 24.5858 474.518 23.7633C474.113 22.9407 473.501 22.2381 472.744 21.7241C472.441 21.5069 472.074 21.2896 471.685 21.0507H479.816C479.921 21.0432 480.026 21.0634 480.121 21.1091C480.215 21.1548 480.297 21.2245 480.357 21.3114L492.597 36.7138L492.856 36.9962V36.7138C492.856 32.76 492.856 28.8279 492.856 24.8741C492.8 24.1312 492.64 23.3999 492.381 22.7017C492.262 22.3375 492.062 22.0053 491.795 21.7305C491.529 21.4557 491.204 21.2455 490.845 21.1159H499.214C498.737 21.3716 498.332 21.7449 498.037 22.2009C497.742 22.6568 497.566 23.1804 497.528 23.7227C497.404 24.4401 497.346 25.1672 497.355 25.8952V48.1407H493.267C492.615 46.7788 491.894 45.4518 491.105 44.1652C489.937 42.4272 488.639 40.7762 487.32 39.1469C484.92 36.149 482.476 33.1728 480.032 30.1965L479.751 29.9793Z" fill="#404A71"/>
<path fill-rule="evenodd" clip-rule="evenodd" d="M450.686 38.1693C451.94 34.8672 453.173 31.6521 454.427 28.1979L458.277 38.1693H450.686ZM459.92 48.119H470.301C469.412 47.6332 468.667 46.9215 468.138 46.0552C467.333 44.6736 466.66 43.2189 466.127 41.7103C463.388 34.889 460.634 28.0748 457.866 21.2679C457.85 21.1836 457.804 21.108 457.736 21.0559C457.668 21.0037 457.583 20.9787 457.498 20.9855H453.173C453.088 20.9787 453.003 21.0037 452.935 21.0559C452.867 21.108 452.821 21.1836 452.805 21.2679C452.524 22.0283 452.221 22.7886 451.919 23.549C449.482 29.8345 447.046 36.1055 444.609 42.3621C444.002 44.597 442.717 46.5865 440.933 48.0538H449.432C448.934 47.8668 448.521 47.5021 448.274 47.0292C448.027 46.5563 447.961 46.0085 448.091 45.4903C448.415 44.2086 448.848 42.9269 449.237 41.6452H459.228C459.423 41.6452 459.596 41.6452 459.682 41.8624C460.072 43.0572 460.547 44.2303 460.893 45.4252C461.019 45.6638 461.094 45.9262 461.112 46.1955C461.131 46.4648 461.093 46.735 461.001 46.9888C460.91 47.2425 460.766 47.4742 460.58 47.6689C460.394 47.8635 460.169 48.0168 459.92 48.119Z" fill="#404A71"/>
<path fill-rule="evenodd" clip-rule="evenodd" d="M429.103 42.2969C428.717 42.7962 428.226 43.2045 427.665 43.4934C427.105 43.7824 426.489 43.9449 425.859 43.9697C423.697 43.9697 421.534 43.9697 419.372 43.9697V33.4117H419.545C421.426 33.4117 423.308 33.4117 425.167 33.4117C426.402 33.4304 427.585 33.914 428.482 34.7668C429.379 35.6197 429.925 36.7796 430.012 38.0172C430.161 38.755 430.158 39.5158 430.002 40.2522C429.845 40.9886 429.54 41.6846 429.103 42.2969ZM419.328 19.0303H420.518C421.729 19.0303 422.962 19.0303 424.173 19.0303C425.196 18.9742 426.204 19.3003 427.003 19.9461C427.801 20.5918 428.334 21.5114 428.498 22.5279C428.731 23.4349 428.715 24.3884 428.452 25.2871C428.19 26.1859 427.69 26.9965 427.006 27.6331C426.249 28.3062 425.269 28.6704 424.259 28.6541H419.328V19.0303ZM435.548 33.4769C434.149 32.0127 432.338 31.0123 430.358 30.6093L430.985 30.3703C431.215 30.3023 431.439 30.2151 431.655 30.1096C432.917 29.5166 434.003 28.6038 434.807 27.4611C435.611 26.3183 436.105 24.9851 436.24 23.5924C436.433 22.1941 436.237 20.7693 435.672 19.4767C435.106 18.1841 434.195 17.0744 433.039 16.2714C431.139 14.9506 428.86 14.2941 426.552 14.4031C420.929 14.4031 415.328 14.4031 409.705 14.4031H409.294C409.83 14.6584 410.302 15.0309 410.676 15.4932C411.051 15.9555 411.317 16.496 411.457 17.0752C411.714 17.9813 411.867 18.9144 411.911 19.8559C411.911 22.4845 411.911 25.0914 411.911 27.6983C411.911 32.9772 411.911 38.2562 411.911 43.5134C412.049 44.5474 411.907 45.5995 411.499 46.5592C411.092 47.5188 410.435 48.3503 409.597 48.9662H427.352C429.831 49.0118 432.259 48.2496 434.272 46.7938C435.274 46.0379 436.108 45.0805 436.721 43.9828C437.334 42.885 437.713 41.6709 437.833 40.418C437.953 39.165 437.812 37.9007 437.419 36.7056C437.025 35.5105 436.388 34.4109 435.548 33.4769Z" fill="#404A71"/>
<path fill-rule="evenodd" clip-rule="evenodd" d="M59.061 30.24C58.1988 29.1372 57.4727 27.9336 56.8984 26.6555C56.3014 25.3349 55.5771 24.0761 54.7358 22.8972C54.3898 22.4628 54.0438 22.0717 53.6761 21.6807C53.6761 21.1593 53.6761 20.6162 53.6761 20.0514C53.5573 18.5384 53.2966 17.04 52.8976 15.5762C52.4713 14.1648 52.2243 12.705 52.1623 11.2314C52.1623 10.6231 52.1623 10.0148 52.1623 9.42828H50.389C48.9211 9.37477 47.4668 9.12641 46.0638 8.68966C44.6066 8.28884 43.115 8.02699 41.6088 7.90759C41.0466 7.90759 40.5059 7.90759 39.9869 7.90759C39.5976 7.53828 39.2083 7.19069 38.7758 6.84311C37.6076 5.9898 36.3537 5.2617 35.0345 4.67069C33.767 4.08478 32.5698 3.35596 31.4662 2.49828L30.2768 1.36862L29.0657 2.41138C27.9686 3.27854 26.7704 4.00806 25.4975 4.5838C24.1783 5.1748 22.9244 5.90291 21.7561 6.75621C21.3453 7.1038 20.9344 7.45138 20.5667 7.82069C20.0261 7.82069 19.4854 7.82069 18.9231 7.82069C17.4238 7.9382 15.9393 8.20009 14.4898 8.60276C13.0864 9.03779 11.6323 9.28611 10.1646 9.34138H8.39127C8.39127 9.92793 8.39127 10.5362 8.39127 11.1445C8.33774 12.6173 8.09793 14.0773 7.67761 15.4893C7.27861 16.9531 7.01794 18.4515 6.89908 19.9645C6.89908 20.5293 6.89908 21.0724 6.89908 21.5938C6.53021 21.9791 6.18362 22.3852 5.86103 22.8103C4.97468 23.9794 4.21357 25.2392 3.5903 26.5686C3.01602 27.8467 2.28988 29.0503 1.4277 30.1531L0.389648 31.3479L1.4277 32.5645C2.29879 33.6611 3.02564 34.8658 3.5903 36.149C4.21357 37.4784 4.97468 38.7382 5.86103 39.9072C6.18376 40.3253 6.53036 40.7243 6.89908 41.1021C6.89908 41.6452 6.89908 42.1883 6.89908 42.7531C7.01606 44.2592 7.27676 45.7505 7.67761 47.2066C8.09369 48.6196 8.33341 50.079 8.39127 51.5514C8.39127 52.1597 8.39127 52.7462 8.39127 53.3328H10.1646C11.6303 53.3909 13.0832 53.6317 14.4898 54.0497C15.9393 54.4523 17.4238 54.7142 18.9231 54.8317C19.4854 54.8317 20.0261 54.8317 20.5667 54.8317C20.9428 55.2021 21.3399 55.5503 21.7561 55.8745C22.9199 56.7649 24.174 57.5294 25.4975 58.1555C26.7748 58.7227 27.9741 59.4529 29.0657 60.3279L30.2768 61.3707L31.4662 60.3279C32.5641 59.4618 33.7622 58.7324 35.0345 58.1555C36.358 57.5294 37.612 56.7649 38.7758 55.8745C39.199 55.5504 39.6034 55.2023 39.9869 54.8317C40.5059 54.8317 41.0466 54.8317 41.6088 54.8317C43.115 54.7123 44.6066 54.4505 46.0638 54.0497C47.47 53.6299 48.9231 53.3891 50.389 53.3328H52.1623C52.1623 52.7462 52.1623 52.1597 52.1623 51.5514C52.2277 50.0781 52.4746 48.6187 52.8976 47.2066C53.2985 45.7505 53.5592 44.2592 53.6761 42.7531C53.6761 42.1883 53.6761 41.6452 53.6761 41.1021C54.0438 40.7328 54.3898 40.32 54.7358 39.9072C55.5771 38.7284 56.3014 37.4696 56.8984 36.149C57.4631 34.8658 58.1899 33.6611 59.061 32.5645L60.0991 31.3479L59.061 30.1531V30.24ZM43.4254 31.8693C45.1808 32.4876 46.7527 33.5401 47.9963 34.9298C49.2398 36.3194 50.1147 38.0014 50.5404 39.8204C48.9682 40.8327 47.1619 41.4189 45.2973 41.5217C43.4327 41.6245 41.5733 41.2404 39.9004 40.4069L37.9108 39.1469L39.1867 41.1455C40.0125 42.8233 40.3926 44.687 40.2903 46.5559C40.188 48.4247 39.6067 50.2353 38.6028 51.8121C36.7879 51.3939 35.1089 50.5183 33.7241 49.2679C32.3393 48.0174 31.2943 46.4333 30.6877 44.6648L30.2768 42.449L29.7578 44.7517C29.1458 46.5171 28.0991 48.0982 26.7152 49.3479C25.3313 50.5975 23.6551 51.4751 21.8427 51.899C20.8294 50.3368 20.2335 48.539 20.1123 46.6784C19.9911 44.8179 20.3486 42.9573 21.1506 41.2759L22.4049 39.2772L20.4153 40.5372C18.7451 41.3668 16.8898 41.7486 15.0294 41.6459C13.169 41.5431 11.3666 40.9592 9.79697 39.9507C10.2189 38.1301 11.0925 36.4462 12.3366 35.056C13.5806 33.6658 15.1545 32.6144 16.9119 31.9997L19.2043 31.4783L16.9119 30.9569C15.1515 30.3475 13.5745 29.2978 12.3297 27.9067C11.0849 26.5157 10.2132 24.829 9.79697 23.0059C11.3666 21.9974 13.169 21.4135 15.0294 21.3107C16.8898 21.2079 18.7451 21.5898 20.4153 22.4193L22.4049 23.701L21.1506 21.7241C20.3209 20.0436 19.9386 18.1758 20.0409 16.3027C20.1432 14.4297 20.7267 12.6151 21.7345 11.0359C23.5453 11.4634 25.2196 12.3424 26.603 13.5915C27.9864 14.8407 29.0342 16.4198 29.6496 18.1831L30.2768 20.4207L30.7958 18.1179C31.406 16.3516 32.4521 14.7694 33.8363 13.5195C35.2206 12.2696 36.8977 11.3926 38.7109 10.9707C39.7135 12.5671 40.2847 14.3984 40.3681 16.284C40.4515 18.1697 40.0444 20.0447 39.1867 21.7241C38.7542 22.3759 38.3433 23.0493 37.9108 23.7228L39.9004 22.441C41.5733 21.6075 43.4327 21.2235 45.2973 21.3263C47.1619 21.4291 48.9682 22.0152 50.5404 23.0276C50.1203 24.8491 49.2474 26.5338 48.0031 27.9243C46.7588 29.3148 45.1838 30.3657 43.4254 30.9786L41.0898 31.4348L43.3822 31.9562L43.4254 31.8693ZM49.1347 12.4045C49.3006 13.6358 49.5462 14.8549 49.87 16.0541C50.1818 17.1989 50.4344 18.359 50.6269 19.53L50.4106 19.3997C48.2624 18.2579 45.8109 17.8246 43.4038 18.1614C43.739 15.7434 43.3077 13.2807 42.1711 11.1228L42.0413 10.9055C43.2094 11.0959 44.3649 11.3571 45.5015 11.6876C46.6981 11.9955 47.9111 12.2348 49.1347 12.4045ZM27.0762 6.84311C28.1799 6.26236 29.2487 5.61676 30.2768 4.90966C31.2531 5.58474 32.2637 6.20835 33.3044 6.77794C34.3471 7.30448 35.358 7.89204 36.3321 8.53759H36.0726C33.7617 9.26565 31.7353 10.7012 30.2768 12.6435C28.7589 10.7487 26.6978 9.36839 24.3729 8.68966H24.1134C25.0771 8.03953 26.0812 7.45179 27.1194 6.93L27.0762 6.84311ZM11.1594 12.4914C12.3759 12.3217 13.5817 12.0823 14.7709 11.7745C15.9114 11.3976 17.0743 11.0929 18.2527 10.8621L18.123 11.0793C16.9864 13.2372 16.5551 15.6999 16.8903 18.1179C14.4832 17.7797 12.0312 18.213 9.88347 19.3562L9.64558 19.4866C9.84547 18.3153 10.1053 17.1551 10.4241 16.0107C10.7375 14.809 10.983 13.5905 11.1594 12.361V12.4914ZM3.76331 31.4566C4.43587 30.4805 5.04971 29.4649 5.60152 28.4152C6.134 27.3724 6.71865 26.3573 7.35322 25.3738V25.6345C8.07793 27.9444 9.48918 29.9761 11.3973 31.4566C9.49816 32.9456 8.08903 34.9742 7.35322 37.2786V37.5393C6.71395 36.5662 6.12914 35.5581 5.60152 34.5197C5.05464 33.4602 4.44064 32.437 3.76331 31.4566ZM11.1594 50.5521C10.983 49.3297 10.7375 48.1185 10.4241 46.9241C10.1037 45.7801 9.84385 44.6199 9.64558 43.4483L9.88347 43.5786C12.0312 44.7218 14.4832 45.1551 16.8903 44.8169C16.5536 47.235 16.985 49.6981 18.123 51.8555L18.2527 52.0945C17.0791 51.8961 15.9169 51.635 14.7709 51.3124C13.5383 51.03 12.3488 50.7259 11.1594 50.5738V50.5521ZM33.1963 56.1569C32.1513 56.7112 31.1403 57.3278 30.1687 58.0035C29.1926 57.323 28.1741 56.7063 27.1194 56.1569C26.0864 55.5938 25.0831 54.9775 24.1134 54.3103H24.3729C26.7091 53.5849 28.7689 52.1599 30.2768 50.2262C31.7188 52.1331 33.7016 53.5569 35.9644 54.3103H36.224C35.2449 54.9478 34.2344 55.5351 33.1963 56.07V56.1569ZM49.1779 50.4869C47.9885 50.639 46.7775 50.9431 45.5448 51.2255C44.4055 51.5458 43.2506 51.8068 42.0846 52.0076L42.2144 51.7686C43.3524 49.6112 43.7838 47.1481 43.447 44.73C45.8587 45.0535 48.3105 44.605 50.4539 43.4483L50.6701 43.3179C50.48 44.4965 50.2273 45.664 49.9132 46.8155C49.5894 48.0074 49.3438 49.2193 49.1779 50.4435V50.4869ZM54.7142 34.411C54.1948 35.454 53.6097 36.4626 52.9625 37.4307C52.9723 37.3441 52.9723 37.2566 52.9625 37.17C52.2436 34.8629 50.8402 32.8315 48.9401 31.3479C50.8494 29.8732 52.2551 27.8386 52.9625 25.5259C52.9723 25.4392 52.9723 25.3518 52.9625 25.2652C53.6051 26.2437 54.19 27.2592 54.7142 28.3066C55.2763 29.3549 55.8972 30.3703 56.574 31.3479C55.8973 32.3331 55.2763 33.3557 54.7142 34.411Z" fill="#D0A839"/>
</svg>
