<svg width="140" height="58" viewBox="0 0 140 58" fill="none" xmlns="http://www.w3.org/2000/svg">
<path fill-rule="evenodd" clip-rule="evenodd" d="M87.865 18.3681C86.5734 16.4763 84.7663 14.9947 82.658 14.0991C80.7357 13.3334 78.6798 12.9595 76.611 12.9991C74.5407 12.9406 72.4811 13.3153 70.564 14.0991C68.4439 14.9751 66.6317 16.4609 65.357 18.3681C63.5793 21.2053 62.6585 24.4953 62.705 27.8431C62.6012 30.0394 62.9648 32.2328 63.772 34.2781C64.7429 36.9241 66.5621 39.1744 68.946 40.6781C71.2625 42.0478 73.9201 42.732 76.61 42.6511C79.3008 42.7401 81.9607 42.0553 84.274 40.6781C86.6647 39.1821 88.4861 36.9291 89.448 34.2781C90.2524 32.232 90.616 30.0393 90.515 27.8431C90.5621 24.4955 89.6419 21.2055 87.865 18.3681ZM83.014 34.7961C82.3241 35.8674 81.3764 36.7484 80.2577 37.3585C79.1391 37.9687 77.8852 38.2884 76.611 38.2884C75.3368 38.2884 74.0829 37.9687 72.9643 37.3585C71.8456 36.7484 70.898 35.8674 70.208 34.7961C69.2001 32.7216 68.6905 30.4403 68.72 28.1341C68.6737 26.4372 68.8474 24.7414 69.237 23.0891C69.484 21.9228 70.0103 20.8339 70.7707 19.9158C71.5312 18.9977 72.5031 18.2779 73.603 17.8181C75.5781 17.1712 77.708 17.1712 79.683 17.8181C80.7795 18.2831 81.7484 19.0045 82.5081 19.9217C83.2679 20.839 83.7963 21.9252 84.049 23.0891C84.4386 24.7414 84.6124 26.4372 84.566 28.1341C84.5446 30.4418 84.0147 32.7165 83.014 34.7961Z" fill="#404A71"/>
<path fill-rule="evenodd" clip-rule="evenodd" d="M110.211 30.496C109.963 30.0873 109.61 29.752 109.19 29.5246C108.769 29.2972 108.296 29.1858 107.818 29.202C106.104 29.137 104.358 29.17 102.611 29.17H102.449V29.623C102.449 31.951 102.417 34.247 102.449 36.576C102.477 37.4679 102.585 38.3555 102.772 39.228C102.851 39.6462 103.031 40.0389 103.296 40.3721C103.561 40.7052 103.903 40.9688 104.293 41.14H94.493C95.0503 40.8629 95.522 40.4399 95.858 39.9161C96.194 39.3922 96.3816 38.787 96.401 38.165C96.4922 37.5224 96.5353 36.874 96.53 36.225V18.531C96.5289 17.9798 96.4955 17.4292 96.43 16.882C96.3923 16.2019 96.1634 15.5462 95.7696 14.9904C95.3758 14.4345 94.8331 14.0011 94.204 13.74H112.704V20.855C112.592 20.6463 112.495 20.4301 112.413 20.208C112.089 19.4271 111.542 18.759 110.84 18.2873C110.139 17.8156 109.313 17.5612 108.468 17.556C106.528 17.456 104.555 17.524 102.615 17.491H102.515V25.414H107.015C107.504 25.408 107.992 25.3538 108.47 25.252C108.835 25.2029 109.183 25.0688 109.486 24.8603C109.789 24.6518 110.04 24.3749 110.216 24.052L110.211 30.496Z" fill="#404A71"/>
<path fill-rule="evenodd" clip-rule="evenodd" d="M132.591 35.8639C132.284 36.2621 131.893 36.5875 131.445 36.8167C130.998 37.046 130.505 37.1734 130.003 37.1899C128.289 37.2549 126.543 37.2219 124.764 37.2219V28.8139H124.99C126.478 28.8459 127.998 28.7819 129.49 28.9139C130.479 28.9203 131.428 29.3006 132.148 29.9784C132.868 30.6562 133.305 31.5813 133.371 32.5679C133.464 33.1416 133.444 33.7281 133.31 34.2937C133.176 34.8593 132.932 35.393 132.591 35.8639ZM124.733 17.4639H125.671C126.641 17.4639 127.611 17.4639 128.614 17.4959C129.422 17.4686 130.211 17.7356 130.837 18.2471C131.462 18.7587 131.881 19.48 132.014 20.2769C132.204 20.9959 132.193 21.7533 131.981 22.4663C131.769 23.1792 131.366 23.8201 130.814 24.3189C130.199 24.8394 129.42 25.1256 128.614 25.1269C127.32 25.1589 126.059 25.1269 124.733 25.1269V17.4639ZM137.733 28.8799C136.593 27.7119 135.131 26.911 133.533 26.5799C133.689 26.5115 133.852 26.4573 134.018 26.4179C134.207 26.3565 134.391 26.281 134.568 26.1919C135.591 25.7224 136.471 24.9902 137.118 24.0699C137.766 23.1496 138.158 22.0741 138.255 20.9529C138.407 19.846 138.249 18.7186 137.798 17.6964C137.347 16.6743 136.62 15.7975 135.7 15.1639C134.186 14.1115 132.367 13.5884 130.526 13.6759H116.68C117.121 13.8702 117.511 14.1639 117.82 14.5341C118.129 14.9044 118.347 15.341 118.459 15.8099C118.669 16.5267 118.799 17.2645 118.847 18.0099C118.912 20.0799 118.879 22.1489 118.879 24.2189C118.879 28.3909 118.911 32.5619 118.847 36.7339C118.815 38.3509 118.653 39.9999 117.004 41.0339H131.204C133.187 41.0923 135.136 40.5144 136.766 39.3849C137.563 38.7896 138.226 38.0335 138.712 37.1656C139.198 36.2977 139.496 35.3374 139.587 34.3469C139.678 33.3564 139.56 32.3578 139.24 31.4158C138.921 30.4739 138.407 29.6096 137.732 28.8789L137.733 28.8799Z" fill="#404A71"/>
<path fill-rule="evenodd" clip-rule="evenodd" d="M45.1781 28.62C47.0099 29.9125 48.4259 31.7103 49.2531 33.794C49.4811 34.4191 49.6753 35.056 49.8351 35.702C50.0615 36.7424 50.1592 37.8067 50.1261 38.871C50.0691 40.2475 49.8633 41.6138 49.5121 42.946C49.1422 44.2932 48.9787 45.6887 49.0271 47.085L49.1891 48.864L47.4101 48.702C46.0052 48.6587 44.601 48.8111 43.2381 49.155C41.8914 49.4881 40.5163 49.6936 39.1311 49.769C38.0583 49.7952 36.9857 49.7084 35.9311 49.51C35.2852 49.3502 34.6483 49.1559 34.0231 48.928C31.9319 48.1145 30.1227 46.7101 28.8161 44.886C27.5167 46.717 25.7052 48.1232 23.6091 48.928C22.984 49.1559 22.3471 49.3502 21.7011 49.51C20.6512 49.7417 19.5746 49.8288 18.5011 49.769C17.1141 49.7119 15.7372 49.5061 14.3941 49.155C13.0371 48.7794 11.6281 48.6265 10.2221 48.702L8.44311 48.864L8.60511 47.085C8.65468 45.6878 8.49011 44.2913 8.11711 42.944C7.78403 41.6081 7.57844 40.2437 7.50311 38.869C7.47001 37.8047 7.56775 36.7404 7.79411 35.7C7.95387 35.054 8.14815 34.4171 8.37611 33.792C9.19215 31.7018 10.6104 29.9011 12.4511 28.618C10.6193 27.3333 9.21181 25.532 8.40811 23.444C8.18015 22.8188 7.98587 22.1819 7.82611 21.536C7.59975 20.4955 7.50201 19.4312 7.53511 18.367C7.5921 16.9904 7.79796 15.6242 8.14911 14.292C8.51926 12.9451 8.68312 11.5499 8.63511 10.154L8.47311 8.37596L10.2521 8.53796C11.6571 8.58123 13.0612 8.42877 14.4241 8.08496C15.7708 7.75184 17.1459 7.54627 18.5311 7.47096C19.6039 7.44471 20.6765 7.53152 21.7311 7.72996C22.3771 7.88972 23.014 8.084 23.6391 8.31196C25.7303 9.1254 27.5395 10.5298 28.8461 12.354C30.1467 10.5218 31.9601 9.11515 34.0581 8.31096C34.6806 8.08327 35.3149 7.88899 35.9581 7.72896C37.008 7.49725 38.0846 7.41011 39.1581 7.46996C40.5449 7.52936 41.9216 7.73517 43.2651 8.08396C44.6222 8.45947 46.0311 8.61245 47.4371 8.53696L49.2161 8.37496L49.0581 10.154C49.0078 11.5503 49.1713 12.9461 49.5431 14.293C49.8762 15.6288 50.0818 16.9933 50.1571 18.368C50.1903 19.4322 50.0925 20.4965 49.8661 21.537C49.7063 22.1829 49.5121 22.8198 49.2841 23.445C48.4339 25.5244 47.0098 27.3192 45.1781 28.62ZM46.0511 45.727C46.1331 44.5837 46.2952 43.4476 46.5361 42.327C46.8823 41.0585 47.0991 39.7582 47.1831 38.446C47.1821 37.6501 47.0843 36.8573 46.8921 36.085C46.1161 33.142 43.1731 29.685 40.1331 29.035L38.0961 28.582L40.1331 28.129C43.2051 27.45 46.1161 23.99 46.8921 21.079C47.0863 20.307 47.184 19.514 47.1831 18.718C47.0991 17.4058 46.8823 16.1054 46.5361 14.837C46.2794 13.7192 46.1172 12.5819 46.0511 11.437C44.8984 11.357 43.7528 11.1949 42.6231 10.952C41.3438 10.6057 40.0328 10.389 38.7101 10.305C37.9141 10.304 37.1211 10.4018 36.3491 10.596C33.4061 11.372 29.9141 14.283 29.2341 17.323L28.7811 19.328L28.3281 17.323C27.6491 14.283 24.1891 11.373 21.2131 10.596C20.4426 10.406 19.6516 10.3119 18.8581 10.316C17.5354 10.4 16.2245 10.6167 14.9451 10.963C13.8169 11.2206 12.6687 11.3815 11.5131 11.444C11.4311 12.5872 11.269 13.7233 11.0281 14.844C10.6819 16.1124 10.4651 17.4128 10.3811 18.725C10.3822 19.5208 10.4799 20.3136 10.6721 21.086C11.4481 24.029 14.3911 27.486 17.4311 28.136L19.4681 28.589L17.4311 29.042C14.3591 29.721 11.4481 33.181 10.6721 36.092C10.4779 36.8639 10.3802 37.657 10.3811 38.453C10.4651 39.7652 10.6819 41.0655 11.0281 42.334C11.2848 43.4517 11.4471 44.589 11.5131 45.734C12.6659 45.8139 13.8114 45.976 14.9411 46.219C16.2205 46.5652 17.5314 46.782 18.8541 46.866C19.6501 46.8669 20.4432 46.7691 21.2151 46.575C24.1581 45.799 27.6501 42.888 28.3301 39.848L28.7831 37.843L29.2361 39.848C29.9151 42.888 33.3751 45.798 36.3511 46.575C37.1231 46.7691 37.9161 46.8669 38.7121 46.866C40.0348 46.782 41.3458 46.5652 42.6251 46.219C43.7579 45.994 44.9024 45.8321 46.0531 45.734L46.0511 45.727Z" fill="#D1AA3B"/>
<path fill-rule="evenodd" clip-rule="evenodd" d="M40.392 17.14C42.612 16.7504 44.8977 17.0317 46.957 17.948C48.5597 18.6358 50.0021 19.6489 51.193 20.923C52.1323 21.9473 52.9665 23.0632 53.683 24.254C54.3806 25.4721 55.2635 26.5743 56.3 27.521L57.691 28.653L56.3 29.784C55.2629 30.7302 54.3793 31.8321 53.681 33.05C52.9645 34.2408 52.1303 35.3567 51.191 36.381C50.0001 37.6551 48.5577 38.6682 46.955 39.356C44.8915 40.2568 42.6104 40.5375 40.39 40.164C40.7796 42.3626 40.4981 44.6277 39.582 46.664C39.3211 47.2723 39.0072 47.8566 38.644 48.41C38.0609 49.3038 37.3652 50.1188 36.574 50.835C35.5491 51.7642 34.4331 52.5877 33.243 53.293C32.0212 53.9876 30.9091 54.8594 29.943 55.88L28.814 57.24L27.682 55.882C26.7159 54.8614 25.6038 53.9896 24.382 53.295C23.1919 52.5897 22.0759 51.7662 21.051 50.837C20.2674 50.1135 19.5725 49.2995 18.981 48.412C18.6178 47.8586 18.3039 47.2743 18.043 46.666C17.1269 44.6297 16.8454 42.3646 17.235 40.166C15.015 40.5556 12.7293 40.2743 10.67 39.358C10.0543 39.0904 9.45962 38.7769 8.891 38.42C7.99399 37.8406 7.16889 37.1568 6.433 36.383C5.49371 35.3587 4.65953 34.2428 3.943 33.052C3.24469 31.8341 2.36112 30.7322 1.324 29.786L0 28.62L1.391 27.488C2.42812 26.5418 3.31169 25.4399 4.01 24.222C4.72653 23.0312 5.56071 21.9153 6.5 20.891C7.23589 20.1172 8.06099 19.4334 8.958 18.854C9.5337 18.5096 10.1276 18.1965 10.737 17.916C12.8005 17.0152 15.0816 16.7345 17.302 17.108C16.9124 14.9094 17.1939 12.6443 18.11 10.608C18.3709 9.99966 18.6848 9.41542 19.048 8.862C19.6311 7.96822 20.3268 7.15319 21.118 6.437C22.1429 5.50783 23.2589 4.68433 24.449 3.979C25.6708 3.28444 26.7829 2.41264 27.749 1.392L28.814 0L29.946 1.358C30.9121 2.37864 32.0242 3.25044 33.246 3.945C34.4356 4.64944 35.5513 5.47193 36.576 6.4C37.3596 7.1235 38.0545 7.93754 38.646 8.825C39.0092 9.37842 39.323 9.96266 39.584 10.571C40.497 12.6326 40.7782 14.9186 40.392 17.14ZM53.2 28.62C52.4463 27.7534 51.7545 26.8348 51.13 25.871C50.4785 24.7261 49.7075 23.6535 48.83 22.671C48.2708 22.1063 47.6401 21.6171 46.954 21.216C44.335 19.696 39.775 19.308 37.154 20.99L35.408 22.09L36.54 20.376C38.222 17.757 37.834 13.261 36.314 10.642C35.8941 9.96875 35.4066 9.34015 34.859 8.766C33.8647 7.88797 32.7807 7.11705 31.625 6.466C30.6573 5.86094 29.7391 5.18015 28.879 4.43C28.012 5.17345 27.0933 5.85449 26.13 6.468C24.9743 7.11905 23.8903 7.88997 22.896 8.768C22.3217 9.31867 21.8315 9.95076 21.441 10.644C19.889 13.263 19.501 17.759 21.215 20.378L22.347 22.092L20.601 20.992C17.949 19.31 13.422 19.698 10.801 21.218C10.1226 21.6288 9.4935 22.116 8.926 22.67C8.05586 23.6583 7.28545 24.7302 6.626 25.87C6.01339 26.8414 5.32243 27.7611 4.56 28.62C5.31374 29.4866 6.00545 30.4052 6.63 31.369C7.28151 32.5139 8.05248 33.5865 8.93 34.569C9.48723 35.134 10.1159 35.6238 10.8 36.026C13.419 37.546 17.979 37.934 20.6 36.252L22.346 35.152L21.214 36.866C19.532 39.485 19.92 43.981 21.44 46.6C21.8614 47.2735 22.3506 47.9021 22.9 48.476C23.8943 49.354 24.9783 50.1249 26.134 50.776C27.1028 51.3812 28.022 52.0624 28.883 52.813C29.75 52.0699 30.6687 51.3892 31.632 50.776C32.7877 50.1249 33.8717 49.354 34.866 48.476C35.4389 47.9251 35.9278 47.293 36.317 46.6C37.869 43.981 38.257 39.485 36.543 36.866L35.411 35.152L37.157 36.252C39.809 37.934 44.336 37.546 46.957 36.026C47.6359 35.6143 48.2654 35.1261 48.833 34.571C49.7031 33.5826 50.4735 32.5108 51.133 31.371C51.7485 30.401 52.4397 29.4812 53.2 28.62Z" fill="#D1AA3B"/>
</svg>
