<svg width="72" height="36" viewBox="0 0 72 36" fill="none" xmlns="http://www.w3.org/2000/svg">
<ellipse cx="35.9993" cy="17.9995" rx="36" ry="18" fill="#244CCB"/>
<path d="M25.2993 23.9495C24.0993 22.3495 23.4993 20.1162 23.4993 17.2495C23.4993 14.3828 24.0993 12.1495 25.2993 10.5495C26.5159 8.94951 28.0659 8.14951 29.9493 8.14951C31.8326 8.14951 33.3743 8.94951 34.5743 10.5495C35.7909 12.1495 36.3993 14.3828 36.3993 17.2495C36.3993 20.1162 35.7909 22.3495 34.5743 23.9495C33.3743 25.5495 31.8326 26.3495 29.9493 26.3495C28.0659 26.3495 26.5159 25.5495 25.2993 23.9495ZM27.3493 12.4745C26.7159 13.5912 26.3993 15.1828 26.3993 17.2495C26.3993 19.3162 26.7159 20.9078 27.3493 22.0245C27.9826 23.1412 28.8493 23.6995 29.9493 23.6995C31.0659 23.6995 31.9326 23.1495 32.5493 22.0495C33.1826 20.9328 33.4993 19.3328 33.4993 17.2495C33.4993 15.1662 33.1826 13.5745 32.5493 12.4745C31.9326 11.3578 31.0659 10.7995 29.9493 10.7995C28.8493 10.7995 27.9826 11.3578 27.3493 12.4745ZM42.8678 8.49951H45.1178V25.9995H42.3428V12.7495C41.4595 13.3995 40.3512 13.7245 39.0178 13.7245V11.1245C40.0345 11.1245 40.9012 10.8912 41.6178 10.4245C42.3345 9.94118 42.7512 9.29951 42.8678 8.49951Z" fill="white"/>
</svg>
