<svg width="180" height="43" viewBox="0 0 180 43" fill="none" xmlns="http://www.w3.org/2000/svg">
<path fill-rule="evenodd" clip-rule="evenodd" d="M158.009 21.621L166.23 29.3421L164.843 30.5598L156.65 22.8647L156.492 23.0092L155.775 22.0434L155.291 21.5882L155.606 21.3116L178.891 0L180 1.49424L158.009 21.621ZM152.914 28.9951L152.865 28.9519H152.858V28.9451L139.668 17.3258V28.9554H138.377V16.1889L138.375 16.1875V13.9985L152.858 26.9183V14.2032H154.147V28.9519H152.963L152.914 28.9951ZM135.784 28.9492H134.493V22.988H128.512L127.896 23.5752C128.458 24.6759 128.785 26.2092 128.001 27.342C127.368 28.2558 125.872 28.7835 125.385 28.9362V28.9451H125.356L125.216 28.9875L125.201 28.9451H122.262L108.165 42.3816L107.021 41.1366L119.954 28.9451H116.915V28.9033H116.91V15.2464H116.886V13.9383H123.824V13.9143L123.917 13.9383H124.077V13.9855C124.614 14.1532 125.883 14.6474 126.567 15.7399C127.361 17.0117 127.338 19.0569 126.367 19.9433C125.397 20.8298 124.877 20.9831 125.046 21.0255C125.2 21.0639 126.134 21.5211 126.975 22.3281L127.534 21.801V21.7223H127.617L135.746 14.0601L135.784 14.015V14.0245L135.794 14.015L135.796 16.0452L135.784 16.0561V28.9492ZM125.429 22.7641C124.12 21.7121 122.329 21.0118 122.329 21.0118C122.329 21.0118 125.764 19.9817 125.764 17.7783C125.764 15.705 123.829 15.2648 123.829 15.2648V15.2464H118.212V27.6795H121.297L125.972 23.2727C125.803 23.0911 125.621 22.9212 125.429 22.7641ZM126.881 24.5431L123.59 27.6795H124.934C125.502 27.5337 127.225 26.9525 127.126 25.2837C127.116 25.103 127.029 24.8409 126.881 24.5431ZM134.493 17.2868L129.84 21.7223H134.493V17.2868ZM111.629 29.3017L105.553 22.4246L105.439 22.1967L105.406 22.1734L105.423 22.1652L105.402 22.1228L105.544 22.1036C106.165 21.7798 108.662 20.3602 108.662 18.4751C108.662 16.1232 107.156 15.4503 106.382 15.2587H100.617V28.9451H99.3512V14.1354H99.3929V13.9513H105.769L105.765 13.9178C105.765 13.9178 105.93 13.9198 106.197 13.9513H106.693V14.03C108.025 14.2929 110.322 15.1759 110.322 18.1418C110.322 20.4519 108.738 21.8517 107.659 22.5403L112.764 28.3284L111.629 29.3017ZM95.4126 16.4121L90.2139 21.4485H93.7815V23.0242H93.6617C92.8656 26.4549 89.3343 29.0437 85.0891 29.0437C84.2513 29.0437 83.4415 28.941 82.6749 28.7521L68.2876 42.6904L67.1219 41.3323L80.8323 28.0915C80.0002 27.6955 79.2358 27.1706 78.5673 26.5364L79.6118 25.4918C80.2463 26.1298 81.0397 26.6514 81.9391 27.023L86.0796 23.0242H83.2615V21.4485H87.7114L95.4126 14.0109V13.965H96.7631V28.9314H95.4126V16.4121ZM83.9166 27.5494C84.2992 27.6021 84.6887 27.6391 85.0891 27.6391C88.4746 27.6391 91.3023 25.6657 92.0237 23.0242H88.5876L83.9166 27.5494ZM85.0891 15.7652C83.0534 15.7652 81.2217 16.4819 79.9246 17.625L78.7651 16.4004C80.3579 14.9726 82.5996 14.0786 85.0891 14.0786C87.2987 14.0786 89.3111 14.785 90.8512 15.9404L89.6472 17.1438C88.4123 16.284 86.8243 15.7652 85.0891 15.7652ZM70.9681 29.0437C68.6469 29.0437 66.5264 28.3653 64.8898 27.2475L65.8556 26.0955C67.2082 27.0518 68.9981 27.6391 70.9681 27.6391C75.1777 27.6391 78.5899 24.9812 78.5899 21.7018C78.5899 18.4231 75.1777 15.7652 70.9681 15.7652C69.224 15.7652 67.6209 16.2266 66.3361 16.9952L65.3039 15.6119C66.8782 14.6543 68.8366 14.0786 70.9681 14.0786C76.1414 14.0786 80.3353 17.4292 80.3353 21.5615C80.3353 25.6938 76.1414 29.0437 70.9681 29.0437ZM38.5464 27.4686H38.543V13.9493H39.8367V25.5692L66.4285 0.507893L67.7824 1.79063L38.5369 29.0416L38.5464 27.4686ZM35.4279 22.9941H29.1771L29.8034 22.2549L29.0115 23.029C29.0259 22.8565 29.0437 22.6875 29.0519 22.5074C29.082 21.8079 28.928 21.1816 28.6706 20.6114L35.4224 13.9554L35.4272 16.7502L30.3688 21.7004H35.4279V13.9486H36.7319V28.9471H35.4279V22.9941ZM20.3178 31.5379L9.47267 42.153L8.09411 40.8936L17.4901 31.6317H18.1157C18.1157 31.6317 19.0261 31.6961 20.3178 31.5379ZM20.3178 31.5379L29.0115 23.029C28.4707 29.568 23.3439 31.169 20.3178 31.5379ZM0 31.6317V27.6377H15.2436V27.5809C16.2081 27.4933 17.8817 27.2927 18.7318 26.906C19.9693 26.3433 21.6012 24.7122 21.6573 23.4739C21.7134 22.2364 20.8133 19.6483 18.3943 17.9049C15.9753 16.1602 12.5994 14.0786 12.3181 13.3476C12.0368 12.6165 11.7958 12.5734 12.7521 12.2921C13.7083 12.0108 15.0191 12.1662 15.0191 12.1662L17.0158 12.1395C18.3368 12.1395 19.4067 11.0395 19.4067 9.71909C19.4067 8.39871 18.3368 7.2385 17.0158 7.2385H10.4337C9.26664 7.32816 7.79157 7.96543 7.7546 7.98665C6.57317 8.66155 5.005 10.3659 5.06113 12.4475C5.11726 14.529 7.53625 16.104 9.89911 18.0172C12.262 19.9296 13.9794 21.224 14.0923 22.3493C14.2046 23.4739 12.8808 23.4972 12.8808 23.4972H0V2.71469H18.1157C18.1157 2.71469 24.0332 2.71195 25.7225 8.18652C26.8416 11.8136 23.0667 16.4415 23.0667 16.4415C23.0667 16.4415 27.3605 17.7146 28.6706 20.6114L17.4901 31.6317H0ZM49.449 20.3239H50.6873V27.5809H56.4254V27.6261C56.528 27.6309 56.63 27.6391 56.7347 27.6391C60.6658 27.6391 63.8528 24.9812 63.8528 21.7018C63.8528 18.4231 60.6658 15.7652 56.7347 15.7652C56.5356 15.7652 56.3391 15.7768 56.144 15.7898V14.1046C56.3405 14.093 56.5356 14.0786 56.7347 14.0786C61.5666 14.0786 65.4832 17.4292 65.4832 21.5615C65.4832 25.6938 61.5666 29.0437 56.7347 29.0437C56.6307 29.0437 56.528 29.0402 56.4254 29.0348V29.0437H49.3929V27.5809H49.449V20.3239Z" fill="#26995F"/>
<path d="M158.009 21.621L166.23 29.3421L164.843 30.5598L156.65 22.8647L156.492 23.0092L155.775 22.0434L155.291 21.5882L155.606 21.3116L178.891 0L180 1.49424L158.009 21.621ZM152.914 28.9951L152.865 28.9519H152.858V28.9451L139.668 17.3258V28.9554H138.377V16.1889L138.375 16.1875V13.9985L152.858 26.9183V14.2032H154.147V28.9519H152.963L152.914 28.9951ZM135.784 28.9492H134.493V22.988H128.512L127.896 23.5752C128.458 24.6759 128.785 26.2092 128.001 27.342C127.368 28.2558 125.872 28.7835 125.385 28.9362V28.9451H125.356L125.216 28.9875L125.201 28.9451H122.262L108.165 42.3816L107.021 41.1366L119.954 28.9451H116.915V28.9033H116.91V15.2464H116.886V13.9383H123.824V13.9143L123.917 13.9383H124.077V13.9855C124.614 14.1532 125.883 14.6474 126.567 15.7399C127.361 17.0117 127.338 19.0569 126.367 19.9433C125.397 20.8298 124.877 20.9831 125.046 21.0255C125.2 21.0639 126.134 21.5211 126.975 22.3281L127.534 21.801V21.7223H127.617L135.746 14.0601L135.784 14.015V14.0245L135.794 14.015L135.796 16.0452L135.784 16.0561V28.9492ZM125.429 22.7641C124.12 21.7121 122.329 21.0118 122.329 21.0118C122.329 21.0118 125.764 19.9817 125.764 17.7783C125.764 15.705 123.829 15.2648 123.829 15.2648V15.2464H118.212V27.6795H121.297L125.972 23.2727C125.803 23.0911 125.621 22.9212 125.429 22.7641ZM126.881 24.5431L123.59 27.6795H124.934C125.502 27.5337 127.225 26.9525 127.126 25.2837C127.116 25.103 127.029 24.8409 126.881 24.5431ZM134.493 17.2868L129.84 21.7223H134.493V17.2868ZM111.629 29.3017L105.553 22.4246L105.439 22.1967L105.406 22.1734L105.423 22.1652L105.402 22.1228L105.544 22.1036C106.165 21.7798 108.662 20.3602 108.662 18.4751C108.662 16.1232 107.156 15.4503 106.382 15.2587H100.617V28.9451H99.3512V14.1354H99.3929V13.9513H105.769L105.765 13.9178C105.765 13.9178 105.93 13.9198 106.197 13.9513H106.693V14.03C108.025 14.2929 110.322 15.1759 110.322 18.1418C110.322 20.4519 108.738 21.8517 107.659 22.5403L112.764 28.3284L111.629 29.3017ZM95.4126 16.4121L90.2139 21.4485H93.7815V23.0242H93.6617C92.8656 26.4549 89.3343 29.0437 85.0891 29.0437C84.2513 29.0437 83.4415 28.941 82.6749 28.7521L68.2876 42.6904L67.1219 41.3323L80.8323 28.0915C80.0002 27.6955 79.2358 27.1706 78.5673 26.5364L79.6118 25.4918C80.2463 26.1298 81.0397 26.6514 81.9391 27.023L86.0796 23.0242H83.2615V21.4485H87.7114L95.4126 14.0109V13.965H96.7631V28.9314H95.4126V16.4121ZM83.9166 27.5494C84.2992 27.6021 84.6887 27.6391 85.0891 27.6391C88.4746 27.6391 91.3023 25.6657 92.0237 23.0242H88.5876L83.9166 27.5494ZM85.0891 15.7652C83.0534 15.7652 81.2217 16.4819 79.9246 17.625L78.7651 16.4004C80.3579 14.9726 82.5996 14.0786 85.0891 14.0786C87.2987 14.0786 89.3111 14.785 90.8512 15.9404L89.6472 17.1438C88.4123 16.284 86.8243 15.7652 85.0891 15.7652ZM70.9681 29.0437C68.6469 29.0437 66.5264 28.3653 64.8898 27.2475L65.8556 26.0955C67.2082 27.0518 68.9981 27.6391 70.9681 27.6391C75.1777 27.6391 78.5899 24.9812 78.5899 21.7018C78.5899 18.4231 75.1777 15.7652 70.9681 15.7652C69.224 15.7652 67.6209 16.2266 66.3361 16.9952L65.3039 15.6119C66.8782 14.6543 68.8366 14.0786 70.9681 14.0786C76.1414 14.0786 80.3353 17.4292 80.3353 21.5615C80.3353 25.6938 76.1414 29.0437 70.9681 29.0437ZM38.5464 27.4686H38.543V13.9493H39.8367V25.5692L66.4285 0.507893L67.7824 1.79063L38.5369 29.0416L38.5464 27.4686ZM35.4279 22.9941H29.1771L29.8034 22.2549L29.0115 23.029C29.0259 22.8565 29.0437 22.6875 29.0519 22.5074C29.082 21.8079 28.928 21.1816 28.6706 20.6114L35.4224 13.9554L35.4272 16.7502L30.3688 21.7004H35.4279V13.9486H36.7319V28.9471H35.4279V22.9941ZM20.3178 31.5379L9.47267 42.153L8.09411 40.8936L17.4901 31.6317H18.1157C18.1157 31.6317 19.0261 31.6961 20.3178 31.5379ZM20.3178 31.5379L29.0115 23.029C28.4707 29.568 23.3439 31.169 20.3178 31.5379ZM0 31.6317V27.6377H15.2436V27.5809C16.2081 27.4933 17.8817 27.2927 18.7318 26.906C19.9693 26.3433 21.6012 24.7122 21.6573 23.4739C21.7134 22.2364 20.8133 19.6483 18.3943 17.9049C15.9753 16.1602 12.5994 14.0786 12.3181 13.3476C12.0368 12.6165 11.7958 12.5734 12.7521 12.2921C13.7083 12.0108 15.0191 12.1662 15.0191 12.1662L17.0158 12.1395C18.3368 12.1395 19.4067 11.0395 19.4067 9.71909C19.4067 8.39871 18.3368 7.2385 17.0158 7.2385H10.4337C9.26664 7.32816 7.79157 7.96543 7.7546 7.98665C6.57317 8.66155 5.005 10.3659 5.06113 12.4475C5.11726 14.529 7.53625 16.104 9.89911 18.0172C12.262 19.9296 13.9794 21.224 14.0923 22.3493C14.2046 23.4739 12.8808 23.4972 12.8808 23.4972H0V2.71469H18.1157C18.1157 2.71469 24.0332 2.71195 25.7225 8.18652C26.8416 11.8136 23.0667 16.4415 23.0667 16.4415C23.0667 16.4415 27.3605 17.7146 28.6706 20.6114L17.4901 31.6317H0ZM49.449 20.3239H50.6873V27.5809H56.4254V27.6261C56.528 27.6309 56.63 27.6391 56.7347 27.6391C60.6658 27.6391 63.8528 24.9812 63.8528 21.7018C63.8528 18.4231 60.6658 15.7652 56.7347 15.7652C56.5356 15.7652 56.3391 15.7768 56.144 15.7898V14.1046C56.3405 14.093 56.5356 14.0786 56.7347 14.0786C61.5666 14.0786 65.4832 17.4292 65.4832 21.5615C65.4832 25.6938 61.5666 29.0437 56.7347 29.0437C56.6307 29.0437 56.528 29.0402 56.4254 29.0348V29.0437H49.3929V27.5809H49.449V20.3239Z" fill="url(#paint0_linear_48_178)"/>
<defs>
<linearGradient id="paint0_linear_48_178" x1="0" y1="42.6904" x2="0" y2="0" gradientUnits="userSpaceOnUse">
<stop stop-color="#070808" stop-opacity="0.14"/>
<stop offset="1" stop-color="white" stop-opacity="0.14"/>
</linearGradient>
</defs>
</svg>
