<svg width="44" height="44" viewBox="0 0 44 44" fill="none" xmlns="http://www.w3.org/2000/svg">
<g clip-path="url(#clip0_159_524)">
<g clip-path="url(#clip1_159_524)">
<path fill-rule="evenodd" clip-rule="evenodd" d="M39.2296 23.3056C39.2087 23.7744 38.9197 24.1893 38.487 24.3712L8.51024 36.9779C8.01412 37.1865 7.43986 37.0438 7.09914 36.6272C6.75843 36.2105 6.73251 35.6194 7.03546 35.1745L15.9934 22.021L7.95817 8.50786C7.67994 8.03995 7.74702 7.44405 8.12233 7.04971C8.49764 6.65537 9.08949 6.55891 9.57059 6.81368L38.5846 22.1782C38.9993 22.3978 39.2505 22.8367 39.2296 23.3056ZM12.2577 10.9855L18.4768 21.4444C18.718 21.8501 18.7024 22.3588 18.4367 22.7489L11.3563 33.1457L35.1827 23.1255L12.2577 10.9855Z" fill="#244CCB"/>
<path fill-rule="evenodd" clip-rule="evenodd" d="M25.1169 22.5146C25.0782 23.1843 24.5039 23.6958 23.8342 23.657L17.3671 23.2828C16.6974 23.2441 16.1859 22.6697 16.2247 22C16.2634 21.3304 16.8377 20.8189 17.5074 20.8576L23.9745 21.2319C24.6442 21.2706 25.1557 21.8449 25.1169 22.5146Z" fill="#244CCB"/>
</g>
</g>
<defs>
<clipPath id="clip0_159_524">
<rect width="44" height="44" fill="white"/>
</clipPath>
<clipPath id="clip1_159_524">
<rect width="38.8678" height="38.8678" fill="white" transform="translate(19.0256 -5.37704) rotate(48.3119)"/>
</clipPath>
</defs>
</svg>
