<svg width="131" height="47" viewBox="0 0 131 47" fill="none" xmlns="http://www.w3.org/2000/svg">
<path fill-rule="evenodd" clip-rule="evenodd" d="M42.8435 11.065C40.7806 7.68298 37.8822 4.88863 34.427 2.95078C30.9718 1.01293 27.076 -0.00323408 23.1145 3.84621e-05C18.9938 -0.00749634 14.9467 1.09216 11.3965 3.18404C8.12151 5.11595 5.37072 7.8221 3.3855 11.065C5.16124 11.6829 6.77868 12.6851 8.12234 14.0003C9.46599 15.3154 10.5027 16.911 11.1585 18.673C12.0653 16.234 13.6966 14.1308 15.8333 12.6456C17.97 11.1605 20.5099 10.3645 23.112 10.3645C25.7141 10.3645 28.254 11.1605 30.3907 12.6456C32.5274 14.1308 34.1586 16.234 35.0655 18.673C35.7214 16.9102 36.7588 15.3141 38.1034 13.9989C39.448 12.6837 41.0666 11.6819 42.8435 11.065Z" fill="#B1B3B3"/>
<path fill-rule="evenodd" clip-rule="evenodd" d="M34.2716 29.2871C32.9023 31.76 30.7503 33.7078 28.1536 34.8246C25.557 35.9413 22.6629 36.1637 19.9261 35.4567C17.1893 34.7497 14.765 33.1535 13.0341 30.9188C11.3032 28.6842 10.3638 25.9378 10.3636 23.1111C10.3636 20.7428 9.61051 18.4358 8.21326 16.5235C6.816 14.6113 4.84691 13.1928 2.59056 12.4731C0.765261 15.9968 -0.122224 19.931 0.0135338 23.897C0.149292 27.863 1.30372 31.7273 3.36569 35.1179C5.42766 38.5084 8.32774 41.3111 11.7867 43.2561C15.2458 45.2011 19.1472 46.2229 23.1156 46.2231C24.5813 46.2256 26.0331 45.9389 27.3879 45.3793C28.7426 44.8197 29.9736 43.9983 31.0103 42.9622C32.047 41.926 32.8691 40.6954 33.4294 39.341C33.9897 37.9866 34.2773 36.5349 34.2756 35.0691V29.2871H34.2716Z" fill="#003D64"/>
<path fill-rule="evenodd" clip-rule="evenodd" d="M46.2265 23.1109C46.2291 21.1576 45.9845 19.2118 45.4985 17.3199C45.0646 15.6387 44.4409 14.0122 43.6395 12.4719C41.3884 13.1908 39.4232 14.6047 38.026 16.5105C36.6289 18.4163 35.8718 20.7159 35.8635 23.0789V35.0649C35.8701 36.877 35.4877 38.6694 34.7423 40.321C33.9969 41.9726 32.9057 43.4451 31.5425 44.6389C35.8697 42.9413 39.5851 39.9794 42.2044 36.1394C44.8236 32.2993 46.2252 27.7592 46.2265 23.1109Z" fill="#D52023"/>
<path fill-rule="evenodd" clip-rule="evenodd" d="M65.9756 35.953C68.5487 36.0722 71.087 35.3207 73.1806 33.82C74.0765 33.1617 74.7993 32.2958 75.2869 31.2968C75.7746 30.2977 76.0127 29.1953 75.9806 28.084C76.0335 27.1703 75.882 26.2564 75.5371 25.4087C75.1921 24.5611 74.6624 23.801 73.9866 23.184C72.3524 21.8645 70.4748 20.8792 68.4606 20.284C67.4466 19.969 65.8376 19.549 65.1036 19.305L63.9846 18.92C63.2496 18.605 62.9706 18.255 62.9706 17.801C62.9706 16.717 64.0546 16.192 66.1886 16.192C67.6608 16.2105 69.1223 16.4464 70.5256 16.892C71.8861 17.284 73.191 17.8482 74.4086 18.571V12.52C71.857 11.162 69.0059 10.4648 66.1156 10.492C60.2396 10.492 56.4976 13.115 56.4976 17.837C56.5046 19.0888 56.8042 20.3216 57.3726 21.437C58.031 22.3138 58.8354 23.0709 59.7506 23.675C60.263 23.9786 60.8015 24.236 61.3596 24.444L62.9686 25.074L64.7526 25.599L66.9526 26.264C67.5028 26.4036 68.032 26.6154 68.5266 26.894C69.0856 27.279 69.4706 27.594 69.4706 28.328C69.4706 29.622 68.2116 30.252 65.7276 30.252C64.0039 30.2293 62.2982 29.8978 60.6916 29.273C59.1504 28.7607 57.7238 27.953 56.4916 26.895V33.33C59.3071 35.1558 62.616 36.0715 65.9696 35.953H65.9756Z" fill="#003D64"/>
<path fill-rule="evenodd" clip-rule="evenodd" d="M121.254 35.471C123.524 35.5915 125.765 34.9106 127.585 33.547C128.359 32.9451 128.981 32.1691 129.401 31.2821C129.82 30.395 130.024 29.4218 129.998 28.441C130.056 26.8594 129.547 25.3089 128.564 24.069C127.76 23.0172 126.627 22.266 125.346 21.936C126.229 21.5007 126.968 20.8211 127.477 19.9779C127.985 19.1347 128.241 18.1633 128.214 17.179C128.214 13.157 125.066 10.989 120.59 10.989H108.664V35.471H121.255H121.254ZM114.954 25.014H120.032C121.886 25.014 123.11 25.993 123.11 27.637C123.11 29.281 121.956 30.225 120.032 30.225H114.961L114.954 25.014ZM114.954 16.095H119.641C121.18 16.095 122.159 16.895 122.159 18.263C122.159 19.557 121.18 20.363 119.641 20.363H114.954V16.095Z" fill="#003D64"/>
<path fill-rule="evenodd" clip-rule="evenodd" d="M99.6496 41.7951C101.006 41.8061 102.349 41.5304 103.592 40.9861V35.7401C102.698 36.2348 101.692 36.4895 100.671 36.4791C100.034 36.5019 99.4013 36.3772 98.8212 36.1147C98.2411 35.8523 97.7295 35.4592 97.3266 34.9661C99.5575 33.9774 101.444 32.3477 102.747 30.2841C104.084 28.2078 104.782 25.784 104.754 23.3141C104.771 21.6119 104.445 19.9236 103.796 18.3498C103.148 16.776 102.189 15.3489 100.977 14.1535C99.7645 12.9581 98.3243 12.0188 96.7417 11.3917C95.1591 10.7646 93.4664 10.4624 91.7646 10.5031C90.0628 10.4625 88.3703 10.7648 86.7878 11.392C85.2053 12.0192 83.7652 12.9585 82.5533 14.1538C81.3414 15.3492 80.3825 16.7763 79.7337 18.35C79.0848 19.9238 78.7593 21.612 78.7766 23.3141C78.7276 26.5407 79.9205 29.6627 82.1086 32.0344C84.2967 34.4062 87.3126 35.8464 90.5326 36.0571C93.9476 40.2811 96.6926 41.7951 99.6496 41.7951ZM87.1186 28.3141C85.8745 26.9532 85.2169 25.1567 85.2886 23.3141C85.2168 21.4716 85.8744 19.675 87.1186 18.3141C87.7092 17.6752 88.4288 17.1691 89.2298 16.8293C90.0307 16.4895 90.8948 16.3238 91.7646 16.3431C92.6293 16.3239 93.4881 16.4898 94.2833 16.8298C95.0786 17.1697 95.792 17.6758 96.3756 18.3141C97.6306 19.6707 98.301 21.467 98.2416 23.3141C98.301 25.1613 97.6306 26.9575 96.3756 28.3141C95.792 28.9525 95.0786 29.4586 94.2833 29.7985C93.4881 30.1385 92.6293 30.3044 91.7646 30.2851C90.8948 30.3045 90.0307 30.1388 89.2298 29.799C88.4288 29.4592 87.7092 28.9531 87.1186 28.3141Z" fill="#003D64"/>
</svg>
