<svg width="180" height="47" viewBox="0 0 180 47" fill="none" xmlns="http://www.w3.org/2000/svg">
<g clip-path="url(#clip0_48_161)">
<path d="M70.2469 23.6682V38.4532H66.0589V23.6682H61.3632V20.1782H75.0061V23.6682H70.2469Z" fill="#706F6F"/>
<path d="M85.4101 35.09C85.7908 34.9631 86.0446 34.7094 86.1716 34.3921C86.2984 34.0748 86.4253 33.5672 86.4253 32.9325C86.4253 32.298 86.3619 31.7904 86.1716 31.4731C86.0446 31.1559 85.7274 30.9021 85.4101 30.7752C85.0293 30.6483 84.4583 30.5847 83.7602 30.5847H81.5393V35.3439H83.7602C84.5217 35.2804 85.0293 35.217 85.4101 35.09ZM84.9659 27.412C85.2832 27.2851 85.4735 27.0948 85.6004 26.7775C85.7274 26.4602 85.7908 26.016 85.7908 25.445C85.7908 24.8739 85.7274 24.3663 85.6004 24.1124C85.4735 23.7951 85.2832 23.6048 84.9659 23.4779C84.6486 23.3509 84.2044 23.2875 83.6333 23.2875H81.5393V27.6024H83.5699C84.2044 27.6024 84.712 27.539 84.9659 27.412ZM84.0775 20.1782C87.8849 20.1782 89.7885 21.8281 89.7885 25.0642C89.7885 26.2065 89.5346 27.1583 88.9635 27.7928C88.4559 28.4274 87.6944 28.808 86.6792 28.8716C87.8849 28.935 88.8367 29.3156 89.5346 30.0771C90.2327 30.8386 90.55 31.854 90.55 33.123C90.55 36.613 88.3925 38.3897 84.141 38.3897H77.4782V20.1782H84.0775Z" fill="#706F6F"/>
<path d="M94.7384 36.3593C93.3423 34.8364 92.6444 32.4886 92.6444 29.3159C92.6444 23.0339 95.4363 19.9246 100.957 19.9246C102.353 19.9246 103.685 20.1149 104.828 20.4957L104.066 23.8587C103.305 23.4145 102.353 23.2242 101.274 23.2242C100.069 23.2242 99.1801 23.4145 98.6091 23.7318C97.9746 24.0491 97.5938 24.6836 97.3401 25.5086C97.0862 26.3969 96.9593 27.6026 96.9593 29.2525C96.9593 30.9022 97.0862 32.1079 97.3401 32.9328C97.5938 33.7576 98.038 34.3288 98.6091 34.7094C99.2437 35.0267 100.069 35.2172 101.274 35.2172C102.543 35.2172 103.685 34.9633 104.574 34.4557L105.335 37.8823C104.13 38.3899 102.734 38.5802 101.147 38.5802C98.2283 38.7072 96.1344 37.8823 94.7384 36.3593Z" fill="#706F6F"/>
<path d="M30.3355 28.5547C28.3049 27.6029 27.2262 27.1587 26.5282 24.6205C25.7668 22.0188 24.9419 16.181 24.9419 10.597C24.9419 8.24918 25.0687 5.20334 25.4495 3.0459C25.7668 1.45952 26.211 0.19043 27.4801 0.19043C28.3049 0.19043 28.7491 0.698067 29.1933 1.14225C32.3026 4.82262 37.1886 13.1986 40.3613 18.6558C40.6786 19.2268 40.9959 19.7979 41.3767 20.3691C46.1991 28.6816 51.7832 39.342 52.5447 41.2456C52.6716 41.4995 52.735 41.9437 52.4177 42.134C52.1638 42.261 51.9101 42.134 51.7198 42.0071C51.7198 42.0071 51.4659 41.7532 51.4025 41.6898C45.1839 35.7885 37.9501 31.8543 30.3355 28.5547Z" fill="#00A2B7"/>
<path d="M23.355 26.017C23.5453 28.2379 23.6722 29.38 21.8955 31.2838C20.0553 33.2508 15.3597 36.8677 10.5371 39.6598C8.50654 40.8019 5.77799 42.2615 3.74743 42.9594C2.22452 43.5305 0.891966 43.7209 0.257417 42.6421C-0.186765 41.8806 0.00359842 41.2461 0.257417 40.6751C1.90725 36.1698 6.72981 27.7303 9.83909 22.2098C10.1564 21.6386 10.4736 21.0675 10.8544 20.4965C15.6769 12.1839 22.0225 2.03112 23.2916 0.381297C23.4819 0.127478 23.7992 -0.126341 24.1164 0.064023C24.3703 0.190932 24.3703 0.508206 24.3068 0.698571C24.3068 0.762025 24.2434 1.01584 24.1798 1.14275C22.1493 9.58223 22.4031 17.7679 23.355 26.017Z" fill="#00A2B7"/>
<path d="M24.6229 33.3771C26.4631 32.108 27.3515 31.41 29.8897 32.0445C32.4912 32.679 38.0119 34.9001 42.7709 37.692C44.8015 38.8342 47.3396 40.484 49.0529 41.9436C50.322 43.0221 51.147 43.974 50.5125 45.1162C50.0683 45.8142 49.4338 46.0045 48.7992 46.0681C44.04 46.8929 34.3314 46.9565 28.0494 46.9565C27.4149 46.9565 26.717 46.9565 26.0823 46.9565C16.5006 46.9565 4.50772 46.5123 2.47717 46.195C2.1599 46.1314 1.77917 46.0045 1.77917 45.6238C1.77917 45.3066 2.03299 45.1796 2.22335 45.1162C2.22335 45.1796 2.54064 45.0527 2.66755 45.0527C10.9801 42.6415 17.9602 38.3265 24.6229 33.3771Z" fill="#00A2B7"/>
<path d="M120.312 20.179C124.12 20.179 126.023 21.8287 126.023 25.0649C126.023 26.2071 125.769 27.1589 125.198 27.7936C124.691 28.4281 123.929 28.8088 122.914 28.8722C124.12 28.9357 125.135 29.3164 125.769 30.0779C126.467 30.8393 126.785 31.8545 126.785 33.1238C126.785 36.6137 124.627 38.3904 120.376 38.3904H113.713V20.179H120.312ZM121.201 27.4128C121.518 27.2858 121.708 27.0955 121.835 26.7782C121.962 26.461 122.025 26.0167 122.025 25.4458C122.025 24.8746 121.962 24.367 121.835 24.1131C121.708 23.7959 121.518 23.6055 121.201 23.4786C120.883 23.3516 120.439 23.2883 119.805 23.2883H117.711V27.6666H119.741C120.439 27.6031 120.883 27.5397 121.201 27.4128ZM121.645 35.0908C122.025 34.9638 122.279 34.7101 122.406 34.3928C122.533 34.0756 122.66 33.5678 122.66 32.9333C122.66 32.2987 122.597 31.7911 122.406 31.4739C122.279 31.1566 121.962 30.9027 121.645 30.7759C121.327 30.649 120.693 30.5855 119.995 30.5855H117.774V35.3447H119.995C120.693 35.2811 121.264 35.2177 121.645 35.0908Z" fill="#706F6F"/>
<path d="M133.003 34.9004L132.051 38.3903H127.673L133.955 20.1155H138.079L144.298 38.3903H139.792L138.777 34.9004H133.003ZM135.922 24.7476L133.891 31.9814H137.952L135.922 24.7476Z" fill="#706F6F"/>
<path d="M149.632 20.179L156.929 30.9027V20.179H160.928V38.454H157.627L150.33 27.73V38.454H146.332V20.179H149.632Z" fill="#706F6F"/>
<path d="M168.286 29.5067V38.454H164.161V20.179H168.286V28.6818L173.362 20.179H178.057L172.348 29.0627L178.629 38.454H173.744L168.286 29.5067Z" fill="#706F6F"/>
</g>
<defs>
<clipPath id="clip0_48_161">
<rect width="180" height="46.9565" fill="white"/>
</clipPath>
</defs>
</svg>
