<svg width="72" height="36" viewBox="0 0 72 36" fill="none" xmlns="http://www.w3.org/2000/svg">
<ellipse cx="35.9999" cy="18.0006" rx="36" ry="18" fill="#244CCB"/>
<path d="M25.2999 23.9506C24.0999 22.3506 23.4999 20.1173 23.4999 17.2506C23.4999 14.3839 24.0999 12.1506 25.2999 10.5506C26.5165 8.95061 28.0665 8.15061 29.9499 8.15061C31.8332 8.15061 33.3749 8.95061 34.5749 10.5506C35.7915 12.1506 36.3999 14.3839 36.3999 17.2506C36.3999 20.1173 35.7915 22.3506 34.5749 23.9506C33.3749 25.5506 31.8332 26.3506 29.9499 26.3506C28.0665 26.3506 26.5165 25.5506 25.2999 23.9506ZM27.3499 12.4756C26.7165 13.5923 26.3999 15.1839 26.3999 17.2506C26.3999 19.3173 26.7165 20.9089 27.3499 22.0256C27.9832 23.1423 28.8499 23.7006 29.9499 23.7006C31.0665 23.7006 31.9332 23.1506 32.5499 22.0506C33.1832 20.9339 33.4999 19.3339 33.4999 17.2506C33.4999 15.1673 33.1832 13.5756 32.5499 12.4756C31.9332 11.3589 31.0665 10.8006 29.9499 10.8006C28.8499 10.8006 27.9832 11.3589 27.3499 12.4756ZM46.2225 16.6006C47.1725 17.0173 47.9059 17.6256 48.4225 18.4256C48.9392 19.2256 49.1975 20.1589 49.1975 21.2256C49.1975 22.7756 48.6559 24.0173 47.5725 24.9506C46.4892 25.8839 45.0225 26.3506 43.1725 26.3506C41.2892 26.3506 39.7642 25.8423 38.5975 24.8256V21.5006H38.9725C39.9725 23.0673 41.3059 23.8506 42.9725 23.8506C44.0225 23.8506 44.8559 23.5923 45.4725 23.0756C46.0892 22.5589 46.3975 21.8589 46.3975 20.9756C46.3975 20.0589 46.0559 19.3506 45.3725 18.8506C44.7059 18.3339 43.7559 18.0756 42.5225 18.0756H41.4225V15.6506H42.4475C44.6642 15.6506 45.7725 14.8256 45.7725 13.1756C45.7725 12.3923 45.5225 11.7756 45.0225 11.3256C44.5392 10.8756 43.8475 10.6506 42.9475 10.6506C41.6309 10.6506 40.5059 11.1923 39.5725 12.2756H39.2475V9.40061C40.3309 8.56728 41.6392 8.15061 43.1725 8.15061C44.8059 8.15061 46.1142 8.58394 47.0975 9.45061C48.0809 10.3006 48.5725 11.4256 48.5725 12.8256C48.5725 14.6256 47.7892 15.8839 46.2225 16.6006Z" fill="white"/>
</svg>
