<svg width="146" height="64" viewBox="0 0 146 64" fill="none" xmlns="http://www.w3.org/2000/svg">
<g clip-path="url(#clip0_48_173)">
<path d="M88.9084 56.4961C89.036 55.3023 89.1201 54.3636 89.1635 53.6807C89.2226 52.7478 89.2819 51.4678 89.3409 49.8436C89.3972 48.2165 89.428 47.0699 89.428 46.4006C89.428 46.162 89.4251 45.826 89.4188 45.3929C90.2279 45.4095 90.8689 45.4179 91.3419 45.4179C92.0048 45.4179 92.7766 45.404 93.6574 45.3818C94.5377 45.3568 95.2943 45.343 95.9258 45.343C96.6884 45.343 97.2267 45.3626 97.5501 45.4013C97.9765 45.4485 98.3469 45.5375 98.6674 45.6624C98.9847 45.7873 99.2526 45.9401 99.4641 46.126C99.7005 46.3426 99.8873 46.6009 100.021 46.9061C100.174 47.2533 100.248 47.6227 100.248 48.0196C100.248 48.3277 100.205 48.6248 100.118 48.9053C100.027 49.1887 99.9031 49.4386 99.7411 49.6579C99.5824 49.8772 99.4019 50.0605 99.1999 50.2077C99.0005 50.3548 98.8045 50.4687 98.6117 50.549C98.4217 50.6296 98.1635 50.7102 97.843 50.7937C98.1636 50.8407 98.4218 50.8964 98.6178 50.9602C98.8106 51.0213 99.0194 51.1211 99.2404 51.2599C99.4642 51.3988 99.6605 51.5764 99.8378 51.793C100.015 52.0097 100.146 52.2539 100.236 52.5206C100.323 52.7899 100.367 53.0731 100.367 53.373C100.367 53.784 100.292 54.1727 100.14 54.5363C99.9869 54.9001 99.7754 55.2111 99.5014 55.4721C99.2713 55.6941 98.9694 55.8829 98.5991 56.0412C98.2287 56.1994 97.8491 56.3076 97.4602 56.3661C97.1426 56.4104 96.5669 56.4409 95.733 56.4632C94.8958 56.4855 94.0089 56.4965 93.0753 56.4965L90.676 56.4882L88.9084 56.4961ZM15.1455 52.7827C24.0254 39.1465 44.8161 29.6339 58.0547 33.3894C59.5198 33.9587 60.5218 32.1576 59.5167 31.267C48.307 21.3475 20.8769 35.8005 15.1455 52.7827ZM56.4089 35.0973C55.5932 34.8226 55.4444 35.4835 56.0893 35.8176C62.9093 40.0436 70.0271 33.0927 76.1943 33.7007C79.1216 33.9893 83.0495 34.7514 85.7191 35.1823C86.3786 35.2684 86.6893 34.6545 85.6143 34.3166C81.778 33.1667 77.6891 29.9165 73.2999 29.9128C68.1457 29.9083 62.1206 37.5813 56.4089 35.0973ZM92.9728 49.7186H94.2674C94.6938 49.7186 94.9958 49.7102 95.1731 49.6908C95.3535 49.6714 95.5279 49.6381 95.6989 49.588C95.87 49.5409 96.0165 49.4578 96.1409 49.3437C96.2654 49.2299 96.3525 49.1022 96.4054 48.9633C96.4582 48.8217 96.4833 48.68 96.4833 48.5384C96.4833 48.3386 96.4302 48.1609 96.3244 48.0027C96.2188 47.8444 96.0445 47.7279 95.8079 47.6528C95.5715 47.5777 95.2104 47.5391 94.7251 47.5391H93.0849L92.9728 49.7186ZM92.7643 54.2665H94.5131C94.9768 54.2665 95.3161 54.2415 95.5339 54.1944C95.8014 54.1333 96.0068 54.0555 96.1468 53.9584C96.2837 53.8583 96.3958 53.728 96.4767 53.5586C96.5608 53.3893 96.6013 53.2031 96.6013 52.9976C96.6013 52.8173 96.5669 52.6616 96.5015 52.5256C96.4329 52.3897 96.3335 52.2757 96.1998 52.1842C96.0659 52.0926 95.9041 52.0259 95.708 51.9842C95.5152 51.9427 95.21 51.9232 94.7963 51.9232H92.8761L92.7643 54.2665ZM100.488 56.4961L101.244 55.3243L105.959 47.4029L106.46 46.5144C106.606 46.2563 106.808 45.8812 107.07 45.3927C108.14 45.4037 108.921 45.4093 109.413 45.4093C110.272 45.4093 111.062 45.4037 111.794 45.3927L113.126 48.7855L115.833 55.3076L116.362 56.4958C115.31 56.4848 114.672 56.4792 114.448 56.4792C113.938 56.4792 113.188 56.4848 112.195 56.4958C111.928 55.6017 111.542 54.5495 111.038 53.3417H106.441C105.912 54.2969 105.364 55.3464 104.798 56.4958C103.668 56.4848 102.978 56.4792 102.722 56.4792C102.258 56.4792 101.515 56.4851 100.488 56.4961ZM107.546 50.9736H110.381C109.675 49.0605 109.289 48.0053 109.223 47.8111C108.822 48.608 108.48 49.2606 108.203 49.7712L107.546 50.9736ZM117.327 56.4961L117.51 54.7886L117.865 48.9967L117.965 46.6616V45.3927C118.908 45.4037 119.739 45.4093 120.46 45.4093C120.977 45.4093 121.702 45.4037 122.639 45.3927L126.545 51.7063L127.083 52.6336C127.148 51.7231 127.217 50.4458 127.285 48.802C127.353 47.1581 127.388 46.0227 127.388 45.3925C128.138 45.4035 128.735 45.4091 129.187 45.4091C129.392 45.4091 129.986 45.4035 130.973 45.3925L130.755 47.8164L130.347 54.5523L130.291 56.4958C129.501 56.4848 128.763 56.4792 128.075 56.4792C127.506 56.4792 126.715 56.4848 125.707 56.4958C125.39 55.9655 125.156 55.5795 125.004 55.3406L123.47 53.0223C122.966 52.2616 122.502 51.5369 122.076 50.8428C121.795 50.4013 121.506 49.9209 121.21 49.3933L121.021 53.25L120.927 56.4957C120.174 56.4847 119.601 56.4791 119.206 56.4791C118.87 56.4791 118.245 56.4851 117.327 56.4961ZM132.635 56.4961C132.75 55.4827 132.834 54.6413 132.88 53.9749C132.974 52.792 133.07 51.1735 133.173 49.1188C133.248 47.6862 133.282 46.6782 133.282 46.0924V45.3928C134.296 45.4038 134.997 45.4094 135.379 45.4094C135.635 45.4094 136.291 45.4038 137.349 45.3928L136.92 51.4678L136.702 56.4961L134.723 56.4795C134.443 56.4795 133.746 56.4851 132.635 56.4961ZM137.203 50.6377L139.244 48.1581L140.894 46.0924L141.407 45.3928C142.537 45.4038 143.302 45.4094 143.704 45.4094C143.813 45.4094 144.538 45.4038 145.882 45.3928L142.036 49.7268L141.314 50.5959L141.989 51.5566L145.802 56.4961L143.558 56.4795C143.072 56.4795 142.248 56.4851 141.087 56.4961C140.303 55.1774 139.008 53.2255 137.203 50.6377Z" fill="#0049DD"/>
<path d="M94.4322 32.172C94.0446 31.7959 94.2233 31.5491 94.1472 31.0177C91.8067 14.6961 64.8101 10.3279 52.0743 10.4387C48.7364 10.3577 47.2174 8.85452 44.267 6.68466C41.3163 4.51493 36.3696 1.82426 34.5048 1.29202C30.8017 0.234365 33.7599 5.11444 34.5215 6.04398C34.3054 2.22979 43.3894 9.66294 44.5503 10.5077C47.1474 12.3972 48.969 13.2695 51.9062 13.3421C62.6684 13.2563 73.0275 15.8984 79.5799 19.5443C86.1324 23.1896 88.2244 25.8036 88.897 30.4253C88.965 30.8876 88.8081 31.102 89.1494 31.4302C89.6995 31.9306 94.4314 36.3037 91.7878 36.7598C95.4253 38.2225 97.8445 38.4104 98.3025 37.5997C98.8212 36.6809 96.9801 34.5168 94.4322 32.172ZM36.1132 7.5881C37.1619 9.66531 37.3917 12.1128 34.5377 14.106C21.5943 22.4739 9.30173 33.6602 7.52441 49.8214C7.44225 50.6211 7.40872 51.1497 6.74074 51.6665C3.40726 54.2467 1.2942 57.7886 0.0985138 61.7775C-0.358916 63.424 0.900622 62.2408 1.33919 61.7815C3.68711 59.2315 6.42722 61.5015 8.4394 58.444C9.81155 59.4674 12.0522 57.743 13.047 59.5934C13.2934 60.0509 13.6192 60.1154 13.9713 59.7279C15.491 58.0562 14.7669 56.2754 14.2133 54.5209C13.9589 54.4832 13.7179 54.4006 13.5014 54.2412C11.7336 56.9009 9.32059 54.9235 7.25615 57.1414C6.87026 57.541 5.76343 58.57 6.16497 57.1371C7.2148 53.667 9.60435 50.7509 12.5363 48.5075C13.1237 48.0583 13.1527 47.5983 13.2247 46.9023C14.7794 32.8421 26.1052 23.6674 37.4883 16.3934C41.2775 13.7779 37.8345 9.54041 36.1132 7.5881ZM29.3356 56.4961C29.6406 53.8612 29.8209 50.9596 29.8834 47.7915L25.9996 47.8804L26.0432 46.9779C26.0679 46.4949 26.0868 45.9673 26.0993 45.3926C27.8262 45.4036 29.8367 45.4091 32.1332 45.4091L34.3863 45.4007H36.5738L37.7596 45.3926L37.7034 46.1896C37.6784 46.6172 37.6629 46.9697 37.6537 47.2473C37.6443 47.5276 37.6413 47.7387 37.6413 47.8801C36.3404 47.8218 35.2669 47.7915 34.4236 47.7915H33.7857C33.6951 48.7493 33.6237 49.6352 33.5771 50.4457C33.5085 51.609 33.4557 52.739 33.4214 53.8358C33.3841 54.9327 33.3655 55.8182 33.3655 56.4958C32.3695 56.4847 31.7254 56.4791 31.4328 56.4791C31.1714 56.4791 30.4715 56.485 29.3356 56.4961ZM38.3978 56.4961C38.5129 55.5408 38.6063 54.6829 38.6718 53.9165C38.7401 53.1532 38.7991 52.2674 38.8459 51.2568C38.8959 50.2488 38.9331 49.1853 38.9581 48.0635C38.9797 46.9447 38.9923 46.0534 38.9923 45.3927C39.7517 45.4093 40.3677 45.4177 40.8345 45.4177C41.3201 45.4177 41.9145 45.4038 42.6114 45.3815C43.3116 45.3565 43.9901 45.3428 44.653 45.3428C45.4308 45.3428 46.1251 45.3706 46.7319 45.4262C47.1893 45.4622 47.603 45.5428 47.9764 45.6622C48.3499 45.7817 48.6641 45.926 48.9192 46.0954C49.1745 46.2676 49.3892 46.4588 49.5572 46.6699C49.7286 46.8809 49.8591 47.1283 49.9558 47.4143C50.049 47.6973 50.0957 48.0028 50.0957 48.3275C50.0957 48.6913 50.0428 49.0328 49.9403 49.3493C49.8375 49.6659 49.6758 49.9658 49.4516 50.2435C49.2304 50.5238 48.9504 50.7656 48.6144 50.9682C48.2782 51.1707 47.8053 51.3792 47.1954 51.59L47.6716 52.623C47.8053 52.9117 47.9484 53.2034 48.1009 53.5031L49.3209 55.8855C49.3771 55.9882 49.4735 56.1936 49.6135 56.4963C48.6113 56.4852 47.9359 56.4796 47.5905 56.4796C47.1518 56.4796 46.4361 56.4852 45.4402 56.4963C45.3407 56.213 45.1665 55.691 44.9081 54.9276C44.8053 54.6056 44.7184 54.3612 44.6437 54.1864C44.4975 53.8002 44.2828 53.2617 43.9964 52.5676L43.0566 50.2658C43.3865 50.3186 43.707 50.3464 44.0244 50.3464C44.4665 50.3464 44.871 50.2878 45.232 50.1684C45.5929 50.049 45.8667 49.8631 46.0534 49.6133C46.2373 49.3633 46.3306 49.1024 46.3306 48.8247C46.3306 48.5914 46.262 48.386 46.122 48.2111C45.982 48.0335 45.7611 47.903 45.459 47.8168C45.1603 47.7307 44.6968 47.6864 44.0711 47.6864C43.8564 47.6864 43.6385 47.6889 43.4082 47.6973C43.1811 47.7057 42.9166 47.7141 42.6115 47.7197C42.5337 48.8302 42.4623 50.1852 42.403 51.7873C42.3409 53.3867 42.3002 54.9556 42.2816 56.4963C41.2672 56.4852 40.6076 56.4796 40.3055 56.4796C39.9508 56.4796 39.3159 56.485 38.3978 56.4961ZM49.8685 56.4961L50.6246 55.3242L55.3395 47.4028L55.8405 46.5143C55.9866 46.2563 56.1889 45.8812 56.4503 45.3926C57.5208 45.4036 58.302 45.4091 58.7935 45.4091C59.6524 45.4091 60.4429 45.4036 61.1741 45.3926L62.5062 48.7854L65.2136 55.3074L65.7427 56.4958C64.6908 56.4847 64.0528 56.4791 63.8289 56.4791C63.3185 56.4791 62.5685 56.4847 61.5758 56.4958C61.3083 55.6017 60.9224 54.5495 60.4183 53.3417H55.8218C55.2929 54.2969 54.7453 55.3462 54.1787 56.4958C53.049 56.4847 52.3582 56.4791 52.1029 56.4791C51.6394 56.4791 50.8955 56.485 49.8685 56.4961ZM56.9264 50.9734H59.7615C59.0549 49.0603 58.669 48.0053 58.6036 47.811C58.2024 48.608 57.8601 49.2604 57.583 49.771L56.9264 50.9734ZM66.5891 56.3237C66.5082 55.1688 66.4179 54.2444 66.3154 53.55C66.9969 53.8223 67.6036 54.0111 68.1359 54.1166C68.665 54.222 69.1318 54.2747 69.5331 54.2747C70.0621 54.2747 70.4855 54.2053 70.7965 54.0665C71.111 53.9306 71.2665 53.725 71.2665 53.4529C71.2665 53.3615 71.251 53.2724 71.2198 53.1893C71.1918 53.1058 71.1328 53.0116 71.0484 52.9033C70.9616 52.7976 70.8402 52.6839 70.6844 52.5588L68.9699 51.2262C68.5686 50.9207 68.2885 50.7011 68.1299 50.5653C67.8092 50.2905 67.5572 50.0322 67.3797 49.7933C67.1992 49.5546 67.0686 49.3131 66.9877 49.066C66.9036 48.8187 66.8632 48.5579 66.8632 48.2803C66.8632 47.9499 66.9285 47.6248 67.0591 47.3083C67.1899 46.9917 67.3859 46.6948 67.6473 46.4171C67.909 46.1423 68.2544 45.9035 68.6868 45.7009C69.1163 45.5009 69.5798 45.3648 70.0716 45.2927C70.5632 45.2176 71.0706 45.1815 71.5934 45.1815C72.6204 45.1815 73.7376 45.2871 74.948 45.498C74.9669 45.8729 74.9885 46.2146 75.0102 46.5283C75.0352 46.839 75.0943 47.3864 75.1845 48.1664C74.6244 47.9664 74.1171 47.8276 73.6534 47.7471C73.1929 47.6696 72.7946 47.6306 72.4615 47.6306C71.9886 47.6306 71.5934 47.7084 71.2822 47.8665C70.9679 48.0221 70.8123 48.2192 70.8123 48.4524C70.8123 48.5607 70.837 48.6663 70.8837 48.7689C70.9337 48.8717 71.0237 48.9911 71.1577 49.1297C71.2915 49.2686 71.4688 49.4213 71.6868 49.585C71.9046 49.7516 72.25 49.9961 72.7168 50.3208L73.3733 50.7845C73.5661 50.9259 73.7748 51.0982 74.002 51.2981C74.226 51.4981 74.419 51.695 74.5839 51.8923C74.7489 52.0864 74.8734 52.267 74.9635 52.4282C75.0507 52.5919 75.1161 52.756 75.1597 52.9197C75.2001 53.0863 75.2219 53.2641 75.2219 53.4527C75.2219 53.9413 75.0912 54.405 74.8298 54.8492C74.5684 55.2908 74.198 55.6545 73.7189 55.9376C73.2364 56.2237 72.7105 56.4209 72.1348 56.5345C71.5621 56.6483 70.9552 56.7067 70.3174 56.7067C69.3341 56.7067 68.0891 56.5792 66.5891 56.3237ZM79.79 56.4961C80.095 53.8612 80.2754 50.9596 80.3377 47.7915L76.454 47.8804L76.4976 46.9779C76.5226 46.4949 76.5412 45.9673 76.5538 45.3926C78.2809 45.4036 80.291 45.4091 82.5877 45.4091L84.8407 45.4007H87.0285L88.2142 45.3926L88.158 46.1896C88.133 46.6172 88.1175 46.9697 88.1083 47.2473C88.0989 47.5276 88.0958 47.7387 88.0958 47.8801C86.7952 47.8218 85.7214 47.7915 84.878 47.7915H84.2401C84.15 48.7493 84.0782 49.6352 84.0315 50.4457C83.9633 51.609 83.9105 52.739 83.8761 53.8358C83.8387 54.9327 83.82 55.8182 83.82 56.4958C82.8241 56.4847 82.18 56.4791 81.8874 56.4791C81.6261 56.4791 80.9262 56.485 79.79 56.4961Z" fill="#0049DD"/>
</g>
<defs>
<clipPath id="clip0_48_173">
<rect width="146" height="64" fill="white"/>
</clipPath>
</defs>
</svg>
