<svg width="167" height="66" viewBox="0 0 167 66" fill="none" xmlns="http://www.w3.org/2000/svg">
<g clip-path="url(#clip0_163_485)">
<path fill-rule="evenodd" clip-rule="evenodd" d="M31.877 0L0 32.7902L31.4583 66L50.7524 47.506C49.1492 47.3721 47.1178 46.8097 44.658 45.8188C39.3407 41.8888 28.4479 40.8756 18.6684 41.4157C27.7532 36.7961 35.787 35.6133 41.5251 38.2579C48.3699 41.1933 53.5432 41.894 57.045 40.3601L65.0187 32.7902C59.9909 35.7985 55.5197 37.8272 51.6097 38.0414C47.0806 38.1842 37.0027 27.7444 17.8334 32.3751C24.9008 28.4116 31.6387 25.9456 39.8507 28.1662L53.273 32.3684C56.3488 33.2075 59.7029 33.2075 63.3353 32.3684L58.5124 26.9008C55.228 27.7756 51.9437 28.126 48.6594 27.3248C38.2274 22.1428 29.3029 23.031 17.6263 23.7541C25.0032 19.2104 32.9012 16.76 41.9482 18.9225L54.108 22.2879L31.877 0.00892867V0ZM84.2348 45.9215C86.1208 46.4058 87.4457 47.0039 88.205 47.7068C89.3005 48.6977 89.8475 49.9809 89.846 51.5565C89.8657 52.3347 89.7148 53.1077 89.404 53.8211C89.0931 54.5345 88.6298 55.1708 88.0469 55.6851C86.5698 57.0063 84.4256 57.6661 81.614 57.6646H71.5161V57.0621C72.4357 57.0621 73.0569 56.9684 73.3865 56.772C73.69 56.607 73.9309 56.3467 74.0723 56.031C74.2059 55.7253 74.2727 54.9777 74.2727 53.7815V39.4072C74.2727 38.2088 74.2059 37.4567 74.0723 37.1443C73.931 36.8249 73.6851 36.5635 73.3754 36.4033C73.0458 36.2136 72.4268 36.1244 71.5161 36.1244V35.5174H81.0507C83.3263 35.5174 84.9384 35.7442 85.887 36.198C86.8179 36.6333 87.5979 37.3374 88.127 38.2199C88.6636 39.0788 88.9476 40.072 88.9464 41.0854C88.9523 42.1316 88.5788 43.1444 87.8954 43.9353C87.2052 44.7655 85.985 45.4268 84.2348 45.9193V45.9215ZM78.9019 45.4752C80.2891 45.4752 81.309 45.3033 81.9681 44.9574C82.6115 44.6293 83.1443 44.1186 83.5 43.4889C83.8771 42.7403 84.0579 41.9078 84.0255 41.0698C84.054 40.235 83.8733 39.4064 83.5 38.6596C83.1575 38.046 82.6373 37.5511 82.0081 37.2402C81.3639 36.9114 80.3285 36.7537 78.9019 36.7671V45.4707V45.4752ZM78.9019 46.7517V53.8507L78.8886 54.6697C78.8886 55.2566 79.0177 55.7007 79.2894 56.0087C79.4449 56.1643 79.6319 56.2847 79.8378 56.3617C80.0437 56.4387 80.2637 56.4705 80.4829 56.4551C81.2428 56.4625 81.9904 56.2619 82.645 55.8748C83.3105 55.4835 83.8393 54.8959 84.1591 54.1921C84.5221 53.4257 84.7035 52.5856 84.689 51.7373C84.7059 50.7693 84.4849 49.812 84.0455 48.9499C83.6709 48.1846 83.0407 47.575 82.2642 47.227C81.5138 46.899 80.3894 46.7427 78.8975 46.7539L78.9019 46.7517ZM106.087 51.3557H99.0689L98.2339 53.5115C97.9933 54.0777 97.8546 54.6821 97.8242 55.2968C97.8041 55.5644 97.8553 55.8325 97.9727 56.0737C98.0901 56.3149 98.2694 56.5205 98.4922 56.6693C98.7527 56.8478 99.4029 56.9751 100.438 57.0643V57.6669H93.8384V57.0643C94.5238 56.9583 95.1474 56.6061 95.593 56.0734C96.054 55.5378 96.624 54.4242 97.2942 52.7259L104.402 35.0598H104.682L111.843 53.2169C112.529 54.9375 113.088 56.0199 113.529 56.464C113.912 56.8251 114.413 57.0351 114.938 57.0554V57.6579H105.321V57.0554H105.718C106.488 57.0554 107.031 56.9326 107.343 56.6939C107.452 56.6028 107.539 56.4873 107.595 56.3567C107.652 56.226 107.677 56.0839 107.668 55.9418C107.667 55.7376 107.636 55.5347 107.577 55.3392C107.559 55.2388 107.412 54.8326 107.132 54.114L106.076 51.3557H106.087ZM105.586 50.1461L102.629 42.5226L99.5788 50.1461H105.586ZM125.448 35.5174L135.246 49.2489V39.7308C135.246 38.4051 135.076 37.508 134.736 37.0394C134.266 36.41 133.48 36.1021 132.375 36.1244V35.5174H138.944V36.1244C138.105 36.2426 137.543 36.3989 137.254 36.5886C136.937 36.8184 136.703 37.1448 136.586 37.5192C136.426 37.9477 136.345 38.6886 136.345 39.7308V58.1645H135.827L122.393 39.7308V53.806C122.393 55.0781 122.654 55.9366 123.177 56.3814C123.669 56.8161 124.303 57.0544 124.958 57.0509H125.43V57.6535H118.401V57.0509C119.496 57.0509 120.256 56.7898 120.685 56.2989C121.115 55.8079 121.331 54.9777 121.331 53.8016V38.1798L120.908 37.5906C120.617 37.1347 120.238 36.7411 119.795 36.4323C119.362 36.2213 118.886 36.1158 118.405 36.1244V35.5174H125.448ZM154.84 43.9978L161.827 53.7436C162.819 55.1168 163.669 56.0474 164.377 56.5354C164.859 56.8711 165.431 57.0538 166.018 57.0599V57.6624H155.682V57.0599C156.337 56.9929 156.758 56.8776 156.947 56.7139C157.038 56.6435 157.113 56.5526 157.163 56.4483C157.214 56.3441 157.24 56.2295 157.238 56.1136C157.238 55.6673 156.793 54.7925 155.887 53.5316L151.331 47.1467L150.596 47.8318V53.873C150.596 55.026 150.656 55.7446 150.774 56.0288C150.913 56.3366 151.147 56.5911 151.442 56.7541C151.776 56.9594 152.306 57.0599 153.041 57.0599V57.6624H143.021V57.0599H143.689C144.177 57.0829 144.66 56.9627 145.081 56.7139C145.362 56.529 145.569 56.2509 145.666 55.9284C145.775 55.674 145.827 54.9866 145.827 53.873V39.3068C145.827 38.1753 145.775 37.4678 145.666 37.1844C145.536 36.8729 145.308 36.6127 145.016 36.4435C144.611 36.2108 144.147 36.1 143.68 36.1244H143.012V35.5174H152.901V36.1244C152.233 36.1244 151.714 36.2315 151.364 36.448C151.086 36.6322 150.875 36.9025 150.763 37.2179C150.646 37.4902 150.587 38.1865 150.585 39.3068V46.1938L157.955 39.5522C158.982 38.6283 159.496 37.8852 159.496 37.3339C159.495 37.1275 159.435 36.9258 159.323 36.7523C159.212 36.5788 159.053 36.4407 158.866 36.3542C158.643 36.2315 158.116 36.1578 157.265 36.1311V35.524H165.018V36.1244C164.452 36.1445 163.896 36.2853 163.388 36.5372C162.988 36.7604 162.077 37.5192 160.652 38.8002L154.836 43.9933L154.84 43.9978ZM85.3192 8.93122V13.8811H84.8538C84.5755 12.7363 84.2704 11.9172 83.932 11.4262C83.581 10.913 83.1009 10.5019 82.5403 10.2345C82.213 10.0694 81.6363 9.99127 80.8169 9.99127H79.5031V24.0732C79.5031 25.0083 79.5521 25.5908 79.6501 25.8251C79.7769 26.0857 79.9816 26.3002 80.2357 26.4388C80.6 26.6336 81.0102 26.7254 81.4225 26.7044H82.0081V27.2021H72.7897V26.7044H73.3731C73.8026 26.7237 74.2292 26.6249 74.6067 26.4187C74.8531 26.2708 75.041 26.0422 75.1389 25.7716C75.2354 25.5603 75.2836 24.9942 75.2836 24.0732V9.98458H74.0077C72.8231 9.98458 71.9592 10.2412 71.4226 10.7657C70.67 11.4932 70.1942 12.5347 69.9953 13.89H69.5032V8.93122H85.3192ZM87.5058 8.93122H96.5928V9.43112H96.1475C95.4646 9.43112 94.9948 9.50551 94.738 9.65429C94.4916 9.79052 94.2992 10.0071 94.1925 10.268C94.0856 10.5291 94.0277 11.183 94.0277 12.223V21.172C94.0277 22.8101 94.1479 23.8902 94.3862 24.4236C94.641 24.9696 95.0497 25.4289 95.5619 25.7448C96.1858 26.1157 96.9034 26.2978 97.6282 26.2692C98.488 26.2953 99.3359 26.0621 100.062 25.5997C100.736 25.1511 101.261 24.5107 101.569 23.7608C101.902 22.9767 102.069 21.6147 102.07 19.6746V12.2207C102.07 11.4017 101.986 10.817 101.821 10.4666C101.698 10.1633 101.48 9.90805 101.2 9.73909C100.681 9.50758 100.115 9.40207 99.5476 9.43112V8.93122H105.638V9.43112H105.275C104.843 9.41547 104.415 9.52221 104.041 9.73909C103.704 9.95788 103.452 10.2866 103.328 10.6697C103.189 11.1742 103.132 11.698 103.159 12.2207V19.1635C103.159 21.3119 103.023 22.8622 102.752 23.8144C102.48 24.7666 101.812 25.6429 100.748 26.4433C99.6968 27.2422 98.2494 27.6439 96.4147 27.6439C94.8961 27.6439 93.716 27.4208 92.8832 27.0079C91.752 26.4336 90.9512 25.6972 90.4806 24.7985C90.01 23.8999 89.7792 22.6911 89.7881 21.172V12.223C89.7881 11.1741 89.7347 10.5202 89.6211 10.2613C89.5014 9.99638 89.2947 9.78056 89.0355 9.64983C88.7594 9.49361 88.2495 9.42666 87.5058 9.42666V8.92676V8.93122ZM113.751 18.8779V24.0108C113.751 25.0001 113.809 25.6213 113.925 25.8742C114.055 26.1436 114.273 26.3608 114.542 26.4902C114.838 26.6419 115.388 26.7133 116.194 26.7133V27.211H107.178V26.7133C107.993 26.7133 108.543 26.6352 108.835 26.4745C109.1 26.3427 109.315 26.1281 109.447 25.8631C109.563 25.6086 109.621 24.9927 109.621 24.0041V12.1426C109.621 11.1532 109.563 10.5306 109.447 10.2747C109.317 10.0053 109.098 9.78879 108.828 9.66099C108.534 9.50477 107.984 9.43782 107.178 9.43782V8.93792H115.361C117.492 8.93792 119.049 9.09413 120.037 9.39764C121.003 9.68795 121.849 10.2809 122.453 11.0893C123.079 11.9206 123.408 12.9382 123.389 13.9793C123.405 14.6054 123.289 15.2278 123.047 15.8051C122.804 16.3824 122.442 16.9012 121.983 17.3268C121.385 17.8848 120.552 18.3021 119.478 18.5788L123.709 24.7673C124.051 25.3045 124.446 25.8054 124.889 26.2625C125.243 26.542 125.675 26.7029 126.125 26.7223V27.2199H120.581L114.907 18.8868L113.751 18.8779ZM113.751 9.9154V17.9205H114.493C115.693 17.9205 116.593 17.8111 117.192 17.5813C117.794 17.3481 118.294 16.9074 118.601 16.3382C118.975 15.6181 119.156 14.813 119.127 14.0016C119.127 12.6068 118.813 11.5802 118.183 10.913C117.552 10.2457 116.546 9.9154 115.15 9.9154H113.751ZM136.762 8.67458C139.567 8.56448 141.848 9.41252 143.602 11.2187C145.357 13.0249 146.233 15.2856 146.232 18.0008C146.27 20.2018 145.581 22.3536 144.27 24.1201C142.538 26.4589 140.089 27.6276 136.922 27.6261C133.756 27.6246 131.307 26.5088 129.574 24.2786C128.21 22.5155 127.526 20.4259 127.523 18.0097C127.523 15.296 128.414 13.0338 130.195 11.2232C131.977 9.41253 134.166 8.56299 136.762 8.67458ZM136.922 9.53601C135.308 9.53601 134.085 10.3907 133.244 12.098C132.561 13.4965 132.219 15.505 132.219 18.1236C132.219 21.2479 132.746 23.554 133.8 25.0418C134.142 25.5438 134.605 25.9505 135.147 26.2237C135.688 26.497 136.29 26.6278 136.895 26.604C137.691 26.6312 138.473 26.396 139.122 25.9345C139.881 25.3587 140.474 24.4385 140.903 23.1739C141.332 21.9092 141.545 20.2637 141.54 18.2374C141.54 15.8167 141.324 14.0083 140.89 12.8121C140.445 11.6115 139.906 10.7634 139.231 10.268C138.562 9.77439 137.749 9.51416 136.918 9.52709L136.922 9.53601ZM154.402 8.92899L163.086 20.266V12.4082C163.086 11.3147 162.936 10.5737 162.64 10.1765C162.224 9.65429 161.527 9.40211 160.549 9.41996V8.92007H166.365V9.41996C165.619 9.51816 165.123 9.64313 164.867 9.80381C164.588 9.98663 164.378 10.2565 164.268 10.5715C164.125 10.9264 164.045 11.5378 164.045 12.397V27.6172H163.6L151.694 12.397V24.0197C151.694 25.0686 151.926 25.7775 152.391 26.1465C152.837 26.5132 153.399 26.71 153.976 26.7022H154.395V27.1998H148.154V26.7022C149.127 26.7022 149.799 26.479 150.18 26.0818C150.561 25.6845 150.752 24.9905 150.752 24.0197V11.1294L150.376 10.6429C150.113 10.2612 149.777 9.9357 149.387 9.68553C148.999 9.51219 148.578 9.42539 148.154 9.43112V8.93122L154.402 8.92899Z" fill="#01A0E2"/>
<path d="M69.8817 31.728H167V32.2837H69.8817V31.728Z" fill="#01A0E2"/>
</g>
<defs>
<clipPath id="clip0_163_485">
<rect width="167" height="66" fill="white"/>
</clipPath>
</defs>
</svg>
