<svg width="73" height="36" viewBox="0 0 73 36" fill="none" xmlns="http://www.w3.org/2000/svg">
<ellipse cx="36.9982" cy="18" rx="36" ry="18" fill="#244CCB"/>
<path d="M26.2982 23.95C25.0982 22.35 24.4982 20.1167 24.4982 17.25C24.4982 14.3833 25.0982 12.15 26.2982 10.55C27.5148 8.95 29.0648 8.15 30.9482 8.15C32.8315 8.15 34.3732 8.95 35.5732 10.55C36.7898 12.15 37.3982 14.3833 37.3982 17.25C37.3982 20.1167 36.7898 22.35 35.5732 23.95C34.3732 25.55 32.8315 26.35 30.9482 26.35C29.0648 26.35 27.5148 25.55 26.2982 23.95ZM28.3482 12.475C27.7148 13.5917 27.3982 15.1833 27.3982 17.25C27.3982 19.3167 27.7148 20.9083 28.3482 22.025C28.9815 23.1417 29.8482 23.7 30.9482 23.7C32.0648 23.7 32.9315 23.15 33.5482 22.05C34.1815 20.9333 34.4982 19.3333 34.4982 17.25C34.4982 15.1667 34.1815 13.575 33.5482 12.475C32.9315 11.3583 32.0648 10.8 30.9482 10.8C29.8482 10.8 28.9815 11.3583 28.3482 12.475ZM43.6708 23.475H50.5708V26H39.6208V24.375L45.6458 17.025C46.7125 15.7083 47.2458 14.475 47.2458 13.325C47.2458 12.525 47.0125 11.9083 46.5458 11.475C46.0958 11.025 45.4875 10.8 44.7208 10.8C43.2208 10.8 41.9208 11.5917 40.8208 13.175H40.4958V10C41.6458 8.76667 43.1708 8.15 45.0708 8.15C46.5208 8.15 47.7375 8.56667 48.7208 9.4C49.6708 10.2333 50.1458 11.425 50.1458 12.975C50.1458 13.975 49.9458 14.9083 49.5458 15.775C49.1458 16.625 48.5125 17.5583 47.6458 18.575L43.6708 23.475Z" fill="white"/>
</svg>
