<svg width="44" height="44" viewBox="0 0 44 44" fill="none" xmlns="http://www.w3.org/2000/svg">
<path fill-rule="evenodd" clip-rule="evenodd" d="M9.16668 5.04166C8.91355 5.04166 8.70834 5.24686 8.70834 5.49999V38.5C8.70834 38.7531 8.91355 38.9583 9.16668 38.9583H34.8333C35.0865 38.9583 35.2917 38.7531 35.2917 38.5V5.49999C35.2917 5.24686 35.0865 5.04166 34.8333 5.04166H9.16668ZM5.95834 5.49999C5.95834 3.72808 7.39476 2.29166 9.16668 2.29166H34.8333C36.6053 2.29166 38.0417 3.72808 38.0417 5.49999V38.5C38.0417 40.2719 36.6053 41.7083 34.8333 41.7083H9.16668C7.39476 41.7083 5.95834 40.2719 5.95834 38.5V5.49999Z" fill="#244CCB"/>
<path fill-rule="evenodd" clip-rule="evenodd" d="M17.875 12.8333C17.875 12.074 18.4906 11.4583 19.25 11.4583H30.25C31.0094 11.4583 31.625 12.074 31.625 12.8333C31.625 13.5927 31.0094 14.2083 30.25 14.2083H19.25C18.4906 14.2083 17.875 13.5927 17.875 12.8333Z" fill="#244CCB"/>
<path fill-rule="evenodd" clip-rule="evenodd" d="M17.875 22C17.875 21.2406 18.4906 20.625 19.25 20.625H30.25C31.0094 20.625 31.625 21.2406 31.625 22C31.625 22.7594 31.0094 23.375 30.25 23.375H19.25C18.4906 23.375 17.875 22.7594 17.875 22Z" fill="#244CCB"/>
<path fill-rule="evenodd" clip-rule="evenodd" d="M17.875 31.1667C17.875 30.4073 18.4906 29.7917 19.25 29.7917H30.25C31.0094 29.7917 31.625 30.4073 31.625 31.1667C31.625 31.9261 31.0094 32.5417 30.25 32.5417H19.25C18.4906 32.5417 17.875 31.9261 17.875 31.1667Z" fill="#244CCB"/>
<path fill-rule="evenodd" clip-rule="evenodd" d="M13.75 14.6667C14.7625 14.6667 15.5833 13.8459 15.5833 12.8333C15.5833 11.8208 14.7625 11 13.75 11C12.7374 11 11.9167 11.8208 11.9167 12.8333C11.9167 13.8459 12.7374 14.6667 13.75 14.6667Z" fill="#244CCB"/>
<path fill-rule="evenodd" clip-rule="evenodd" d="M13.75 23.8333C14.7625 23.8333 15.5833 23.0125 15.5833 22C15.5833 20.9874 14.7625 20.1667 13.75 20.1667C12.7374 20.1667 11.9167 20.9874 11.9167 22C11.9167 23.0125 12.7374 23.8333 13.75 23.8333Z" fill="#244CCB"/>
<path fill-rule="evenodd" clip-rule="evenodd" d="M13.75 33C14.7625 33 15.5833 32.1792 15.5833 31.1666C15.5833 30.1541 14.7625 29.3333 13.75 29.3333C12.7374 29.3333 11.9167 30.1541 11.9167 31.1666C11.9167 32.1792 12.7374 33 13.75 33Z" fill="#244CCB"/>
</svg>
