<svg width="228" height="35" viewBox="0 0 228 35" fill="none" xmlns="http://www.w3.org/2000/svg">
<path fill-rule="evenodd" clip-rule="evenodd" d="M137.486 17.4417C139.143 17.1501 145.2 17.2667 146.057 18.7251C146.971 20.3001 147.314 24.5001 146.229 26.2501C145.029 28.1167 140 27.8834 137.943 27.8251L137.486 17.4417ZM33.5428 5.77506C18.1143 9.97506 15.3714 15.3417 20.0571 29.5167C19.6571 15.4584 23.7143 11.8417 33.5428 5.77506ZM0.0571289 5.71673C15.5428 9.97506 18.3428 15.4001 13.5428 29.5167C14 15.4584 9.94284 11.7834 0.0571289 5.71673ZM3.19999 0.758395C13.2571 6.53339 16.9714 8.34173 30.2857 0.758395C18.5714 12.6584 13.2 11.7834 3.19999 0.758395ZM104.514 0.233398H99.2571V28.4667H104.514V0.233398ZM90 27.1834C88.9714 28.1751 84.4571 28.1167 84.3428 25.0834C84.2286 22.6917 86.4571 21.0584 90.1143 22.8084C90.2286 23.9751 90.2285 27.0084 90 27.1834ZM88.3428 16.9167C87.7714 16.9751 84 17.6167 84.6857 18.2584C84.9143 18.4917 86.9714 17.8501 87.7143 17.8501C91.1428 17.7917 90.1143 21.9334 90.0571 21.9334C89.8286 21.9334 87.9428 21.4084 87.4857 21.3501C85.0857 21.0584 81.7714 21.2334 80.2857 22.6917C78.4 24.5584 79.0857 26.8334 81.5428 27.8834C83.6571 28.7584 86.7428 28.7001 89.0286 28.3501C89.5428 28.2334 90.2857 27.8834 90.2285 28.2917V28.7584H95.3143C95.2571 22.9251 96.9143 15.9834 88.3428 16.9167ZM224.8 7.35007C221.143 7.99174 221.429 13.4167 225.314 13.3001C227.314 13.2417 227.829 11.4334 227.829 10.0917C227.886 8.75006 226.514 7.05841 224.8 7.35007ZM222.4 16.9167V28.5251H227.829V16.9167H222.4ZM169.314 27.1834C168.286 28.1751 163.771 28.1167 163.657 25.0834C163.543 22.6917 165.771 21.0584 169.429 22.8084C169.543 23.9751 169.486 27.0084 169.314 27.1834ZM167.657 16.9167C167.086 16.9751 163.314 17.6167 164 18.2584C164.229 18.4917 166.286 17.8501 167.029 17.8501C170.457 17.7917 169.429 21.9334 169.371 21.9334C169.143 21.9334 167.257 21.4084 166.8 21.3501C164.4 21.0584 161.086 21.2334 159.6 22.6917C157.714 24.5584 158.4 26.8334 160.857 27.8834C162.971 28.7584 166.057 28.7001 168.343 28.3501C168.857 28.2334 169.6 27.8834 169.543 28.2917V28.7584H174.629C174.571 22.9251 176.229 15.9834 167.657 16.9167ZM178.571 17.0334L178.514 28.4667H183.714C183.714 28.4667 183.657 23.5084 183.714 22.1084C183.714 20.8834 184 19.3084 185.371 18.4917C187.029 17.4417 189.714 18.4334 189.771 19.8334L189.829 28.4667H195.257V19.4251C195.257 18.2584 192.686 16.9751 187.943 16.9751C186.514 16.9751 186.171 17.1501 183.714 18.3751V17.0334H178.571ZM113.943 23.0417C113.829 21.1167 114.8 18.0251 117.543 17.9084C120.286 17.7917 122.114 19.9501 122.114 22.7501C122.057 24.8501 121.029 27.7667 118.057 27.9417C116.629 27.9417 115.771 27.2417 115.029 26.1917C114.286 25.2584 114.057 24.1501 113.943 23.0417ZM114.4 16.9167C108.743 17.5584 106.057 24.3834 111.143 27.5334C113.429 28.8167 117.543 29.4584 119.943 28.2917C120.457 28.0584 121.143 26.8334 121.6 27.4167L121.429 34.7084H126.8V16.8584H121.429V18.9584C121.429 19.0751 120.114 17.9084 119.086 17.3834C117.6 16.7417 116.057 16.6834 114.4 16.9167ZM208.571 21.7584L215.029 17.5001L214.229 16.4501L204.514 22.8667V0.291735H199.257V28.5251H204.514V24.2667L214.343 31.6751L218.571 29.4001L208.571 21.7584ZM61.0286 17.9084L67.4857 28.5834H75.0857L65.1428 12.9501L75.4857 0.350072H74.2285L64.5143 11.7834L57.3714 0.350072H50.1714L60.4571 16.9167L50.8 28.5834H52.0571L61.0286 17.9084ZM146.971 9.91673C146.629 13.0084 144.8 16.2167 140.914 16.6251C139.029 16.8584 137.886 16.9751 137.6 16.6251C137.429 16.4501 137.314 1.22507 137.6 0.933406C138.114 0.408406 142.057 1.40007 142.743 1.69173C146.286 3.3834 147.314 6.65007 146.971 9.91673ZM130.857 0.350072C130.857 3.32507 130.8 24.2084 130.8 28.3501C134.057 28.2917 141.2 28.5834 142.686 28.5251C146.971 28.4667 152.057 28.2334 154.4 24.5584C155.486 22.8667 154.971 20.8251 153.429 19.3667C150.914 17.0334 148.571 17.5001 147.143 16.8584C147.657 15.6334 154.229 15.1084 155.029 9.97507C155.6 6.18341 152.057 3.15007 148.286 1.4584C145.314 0.233402 135.371 0.116739 130.857 0.350072Z" fill="#C89C40"/>
</svg>
